<mxfile host="Electron" modified="2024-02-23T14:12:11.470Z" agent="Mozilla/5.0 (Windows NT 10.0; Win64; x64) AppleWebKit/537.36 (KHTML, like Gecko) draw.io/23.1.5 Chrome/120.0.6099.109 Electron/28.1.0 Safari/537.36" etag="65rNBBoYw9OFXU8LEnwH" version="23.1.5" type="device">
  <diagram name="Seite-1" id="_xPNFa75n8Vm5j1PagCO">
    <mxGraphModel dx="1687" dy="993" grid="0" gridSize="10" guides="1" tooltips="1" connect="1" arrows="1" fold="1" page="1" pageScale="1" pageWidth="1169" pageHeight="827" math="0" shadow="0">
      <root>
        <mxCell id="0" />
        <mxCell id="1" parent="0" />
        <mxCell id="bIEeLJ-2RRx14gN9JyyU-1" value="" style="shape=image;verticalLabelPosition=bottom;labelBackgroundColor=default;verticalAlign=top;aspect=fixed;imageAspect=0;image=data:image/png,iVBORw0KGgoAAAANSUhEUgAAAPMAAAFPCAIAAAAX62/SAAAPDGlDQ1BJQ0MgUHJvZmlsZQAAeJyVV3k41G33P1/G2Mc2xs5YsmQb+5Z1kJ3sJAxjGcuYxr6ECiVKSlERKdJCaRFKQoWKqERZnqypkMjSovn9oafn+r3v9V7v9Z4/7utzPuc+9znnPn/c9wHgvUqi0aKYACCaGkd33W6B9/bxxbMOARNIAAAnqJGCY2nmLi4O8B9l9TUgAAAvVUk0WlTRemG7F/5lW/RjNwXy+Orif/YDAAAM3dvHFwBRAQBs2CY2AwBs0CZ2BwBsYhwtDgAJBwBscDiJDICkAYAK3d2VCIDUAAAmbBM3AgAmaBN3AQAmITgsDgAZAkDzU8kUKgDrHADahBwSGwyAUQEAMjk2OBoAcxQA6Y2OjiED8AYCgGIwjR4HwHsQAOS8fXzxmymT1wAMUQDot/9wEdIAtbcBxKX/4RTuAwiTAK5v/YdbdgUEABDc89hQLU0AAEC4LABYxhiMZXkA1mMAG4UMxo9KBmPjPADzCMCDqOB4esLv+0KQHoD/pm/W/FuYEQAmACZ1ZidUOMse9CnW62zt7EMcnziXuDkwQjzSvKp8hvzmAg5Yd0EvnL9QsDBFhCYaKxYnHi+RJJkqlYnPks6SOSB7SO7IlhPyZxQqFGuUrm1tVO5UGVAdV1slcGjIaGppeWin6lToPtFbN1AyJBmd2TZqImVKMbtjwUXcZXnTmn873abfTt3+sMMXJwfnuh08rlFuTzzEPKO87vtgfAN21vh99ScGHArsCeIJdiYfC3kexhFuTomPqIscjxagWsYk0q7ufhuLiiPEByTkJ95Lmk3hSzVJo+0pT+/MGMmc2Du9b27/YtZS9mrOxkFULtchvjzBfInDike0CoyOmhfaHNtx3LPI94T/yeBiSknkqcjTlDOU0oiy8LOkct8Kt3P2lWbnNS4oVSlUb7koU4O/JHFZ5IrgVb5a3jquayzXfl1fr1++MX9z+tbw7f6GZ3c6Gpua6puv3r1071zLyftHWg89yGrb257SQX9IfUR9HNVJ6iJ247onntx4mvHMrkeoZ6b31vOsPtd+qf75Fw9eFr4KGFAd+P766WDxEOmN6ptvbx8PF4x4jkqMTo3V/kV/p/vu23jzROqk4eTqVMN02oz5e+b33bP5H5w+8n58+al4znteeH5ooeSz96Lw4sCXwiWnZe7l7q9ZK+YrjNX7aynrOuuL32q/R/5Q+jHzs3Ij8JfUr7eM3QwGABOKmR+FY8GiBVl52DjZ2dg3OL5xfuaa4n6D6eFp463nq+QvEsjGJgpG4nYJOQsTRQxEdcVUxNUl1CR1pUzwVtKmMvqyqnIqW1TktyoQFFWUCFt1lYkqdqreahT1ZEKuRplmg9Zz7QVdPj1tfTeDFMOLRoPGbCY6prvNas1nicqWkVbXrNdtrGzz7IYcNBzTnPpdxHaEuTa4Ix6Onse8RnyUfGk7b/it+esH7AlsJW0EG5ETQu6ELoerUSIiLkd+jJan+sWU0F7TBWLd4wrjnySyJTkkH0l5lDqZ9mnP5/SVjG+Z3/f+2s+SxZUtkCNyQOKgXC7hkGGeRb7tYecj3gV+RwMLyccijscU0U7QT8YUU0top6JPh54JLPUuczlrVa5boXpOtVLlvNIFpSrFavmLcjWyl+Quy16RuipeK1onck34umA9/w2emzy3MLe5G7jv8DXimoSbhe+K3cO3KNxXa9V5YNBm0e7U4ftw56Ptj/GPlzq7u0q7o5+YPxV6Ov/sUc+p3ujnxD6JvtX+nheVLxNfOQ3IDKy87h4sHYp5Y/6W7+3o8NWRtFGbMb6x4b8q30WMq40vTjROHp0KnzadEZqZf/9w9tQH6kerTyKfPs7dmz+8sOuz2ucfi51fji35LystL329u5Kz6rImvDayXvmN8p3wff3HvZ+ZG1a/ML+eM6I3+8+0xryI+sryGT3POs82zz7GMcz5iuspdwumjqecN48vkZ8s4IAlCPIILuP6ha4IZ4n4iRLEWMQGxask4iWtpHikRvFV0tEyhrJo2ddyl7aky3soqCiyKb5X6txao3xYJU51p5qFuhpBXINdY01zWqtf+4HOdd0yvVz9BAOSoYPRtm14Y7TxosmA6W2z4+YJFhSil6W1lb61/HZhGxabVdsPdm/suxwaHKudSpxzXZJ2hLl6ujm4G3moeEp54by5fZh8vvp+2Dnh93bXK/+egI7A+6SWoObgG+TzIbmh9LCAcBuKeoRoJGvkStRUdD/1fkwdrXL3SfrB2KS48Hj/BKdEkyT1ZOkUbCoqdTnt3Z7e9PsZVzKL9mbsC93vnKWdjctBctYOzB+czH17qC+vM7/58LUjNQWlR/MKM47RjpOLPE5Yn9QulisRPMVy6uvp6TNDpT1l989eLS+rOH4uuzLtfMwFUpVX9Y6LtjVGl2Quw+WRK/eultTS65yvqV3HXF+o77lx6WberZjbbg06d3B31hpHmlqay+6m3yO1EO9vaWVpnXzQ0VbdntVBemj8SPTR6uO+zqquvO7SJ21PJ54xekWfG/T59qe9KH3Z9Wr+tfig81Dem2fDAiOBo01/CbzLGP86uXcaM3Nx1uUj36fX83WfT34pXC5bqV+b+Y7/GfgrncEA2Hz7AADQugAl8QDe4wCuVQAFGwCKXAC4GgAXbgB3A0DaCwC5kg2IRcHf7wcAMAEb8IEkqIIpuEMU5MB5eAjTCAeiifghB5FG5AOTBJMH0xGmJ8xszDbMecz9KFEUGVWPYrA4s5xn+YZ2QV9mRbGSWB+wSbPtZ5tld2Sv5xDlyOKY4/TibOfS5CrjZuWO557AOGNaeJR5SnhZeWN5x/lc+Fr4lflLBFgE4gWmsW7YNkGCYAWOH5eN+yYUJfRO2Ef4uch2kQei20QbxHTFmsVNxNslbCT6JL0lp6XoUgx8vrSk9E0ZW5lx2VQ5rFz9FpctS/LFCiYKk4r5SgZKM1tPKFsqL6tUq/qrCav1qecSrDRAo0UzQ8tCm1m7XSdb10FPUp9Jf8Fg0LDd6Oa2KuMik2zTRLMI82CLXUQ3SxsrC2vT7WY2ZrZmdtvtXRx8HUOcaM77XYp31Lt2u417IJ4KXo7eiT6VvoN+PLsM/YMDigLbScvBCmT/kOLQnnA0ZXtEbmRPNC/VM6aC9pluHpsX91eCdmJu0kiKauqBtNl0y4yyzB/7PPc3ZUvlpB94m2t66Ha+3xHxgoHCU8eDTsie/FhSdzq91PGsQPn4uYbzhVXkizaX1K5gr/6oW7j+/sbUrbGG2caVu1wtsq1ObTEdGY8qOpu7x56x9hL6vF8cfdU1iH5DHM4bHXknP5E2NfB+64c9nyYX7BYvLXOuxK5Nfbf+eY/B2PxJAAcIghzoggOEwF44Bx3wAeFHTJBopBwZYOJmsmHKYXrMzM7szFzMPI5SRqWgOlmEWcJZmtEYNAXdyarEmsv6ic2F7Ra7JPsB9i8cvhxdnDqclVz8XPu5VrnDuN9inDFtPDo8l3lleU/z8fId4PvFn8C/JEARGMfuxL4WdBJ8grPGtQkZCzUK6wnfEdESqRPVEL0mpiHWKG4i3iFhLzEgGSC5IJWGZ8eXSG+VfiDjITMnmyMnKde0xXPLqnyxgpHCsGKmkoLS861JynjlLpVYVWnVV2pZ6lrqU4RiDRuNDc0GLaq2nPaQzlFdRz2c3qr+hMFTwwaji9tOG+eapJhGmQWYe1nsINpYGlvpWWtv17bRtdWxM7a3dnBx9HUKdU52yd9R7drqNui+5inhZeEd7VPi+8yPZRfB3yvgQOAt0kQwlmwTkh5aHzZDkY0gRZZHjVHFYwJoVbsXYjXjkuMfJmKSPJNLU6bTdPfkpL/IlNobta8pizublFN34Huu46Eb+baHNwpqCv2PixQ9O7m/RO/UypmGMmq5YsVs5fULidVmNQKX3l+5V3viWkJ90E3727p3NJrU7mq3GLd6t5E7zB9pdIp2cz3ZeLbeu9D34cXXVz8HOd+IDmuPev2VOl45+XIGNav9MXLu1sLaF+PlvSsv1pW+03+++tN/ThACeTAAZwiHLKiCTphHcAgRiUWqkTEmISYPpmKmMWZ55jjmxyhxVCJqgEWfpQLNgU5Fz7OGs06wBbKNse9iH+MI4pjmpHAuciVyMbhzMThMJY86TyvvDt5pvj38WP46AUeBeWyhoJ7gCC5faJvQnPAFkSBROdEBsSPiNhKIxAPJdCkLPArfKX1UZqesouyKXMeWk/KRCkRFnOIXpWdbLyrvVfFTNVGTUWdWnyZ0a9RqFmvt1Q7VcdLdpqehr2dgbGhmZLvNy5hkEmmaYLbf/ITFReJNy3arAetPNihbYTsde3eHWMdjTrech3egXbXdAtwLPLq9EG9znwzfTj/BXQ7+6QGNgQtBSsFkcnXIbJh8eBSlORIV5R59jvqVZr+7ms6I84lvShRJSkx+kaqdVp6OzgjP7Nunvb88G5OTcGA4d/uhtnzPw2sFhYVax0aLMk7KFD86FXlGrLTtbHAF57mm8xFV2OqumszLulfmaquukeuVbizcqm1IbrRvlry71NLbeqctuX32odOje52ErstPJJ8e70H3Jj9f7vd50ftKf6B8EIZ83lwfRo14jJ4dG3snN+43cXjy7tTQ9Mp77KzyB7OPTp9c55znHRfsPpsuan7BL3EsfV7u/1q3kr9KWbNY510f+3b1e8oP259CP0c3yn51MBgAm/MSAABwEGOiYuh4B6Llfxnu/leJjor/OwYPAHBRg5ycAYAfAB7GJrhZAQAvALwOpVjb/sYzZJKlPQCIA8BqSjjRCQC4ABD+ULq166YvIhlBsnMBAAwAQgiherj95k1ocRauACAMgLiExFr9zYenhLt7/d6fEhlj7/r7zIPkEMvfOSBF1CgnBwDAASAXKHG27gCABUCawRpIQIcwCAFVcAAiWII1TAEdwv7onjAFdKD80TdXVQgFEtAhAUIgFiJhBugQHUDZRwf87x3dEAx0IAH1b4ZwhfCB8POPnQgxEAUx8I/H5oqH4D8WCpAh5t/5AMo+evSN0ISSmGRDz/DeuTtzf87YrCfoT7b2EAUhEA90CAHqv9Tw/yPB5iwNAIDmBSgNBABoXU/N/Ne+x4UkxQEAEGNoyXRKWHgc3pxGiwpRwdtSg9VU8JoEgj78H2BPQl8ykUZvAAAACXBIWXMAAAsTAAALEwEAmpwYAAAgAElEQVR4nO2deVRT1/qwz5AEUDQQpYAEHBkKIaD1hxSxWrXX3tYBUq1t9bpsrS2TgANW6rhotXdVr6VdThUHqEWtqF1gsLRyaUHUotcJQeAaJZWhgqVAqAKZzvfH/jzr3AOEMOvO+/zhSs7Ze59z8Mmbd78n2SEZhiEAADuogT4BAOgTwGwAT8BsAE/AbABPwGwAT8BsAE/AbABPBD3s3245HGrkQJcgSdLMjebTI7MZhgGzgT6iX83mqsx7zGvWk3MCLI22EpMkyTAMu73tg87HNMdCrsRGoxFtQQ/YvahBR1EcADqCKytJkugpRVHsLpIDt41pzIrZbeO00Wg0Go3oKXrAik48sR8AzAR5THAkRhtpmkbBm9uAIAhuOO+ITszm5RtcofV6vV6vZ0M4kpt9SkBOApgHLx7TNE08cV0kEhEEQdM0UpmiKIqi0OOemk1wkg0krsFgYBjGYDCsWbMmJSUF9AX6CIqi0tLSXnrpJaPRSFEUkp6N352GbVNmcwM2m3KgBwaD4f79++7u7mFhYew7BQD0Fo8fP163bl1lZaVWqxUKhQRBUBRlNBpRcmLOCObm2QiDwYDk1uv1DMO4ubmFhYWhtw/gWeepilCNjY0ff/yxXq/X6XTcwgi3VkGYLJV0ErPZPAQ5bTAYtFqt0WhE/9I0jVIfbpe0tDS5XO7l5dV2wOrq6mvXrk2dOnXIkCHdu2C1Wl1UVPTaa689Vf8NQB+h0+laW1vZWSObgaBsG7XpSO5O/ODlIWjWqNPpdDqdwWBot/2SJUvOnDnTbnkkLy9PoVBUVFR06fK4nD17VqFQtLa2mt8lJydn+PDhf/zxR7cPCgwUyOzW1latVouUQ0ULhkNHfc3KRowcDAaDwWDQ6XQdDYqmmCaGMueIHcErL3ZKY2NjQkLCn3/+CTPdZxFkGk3TqPyHEgQ0oex0BmkqZnNLIvon6HQ6rVbb2trabszm0tDQUF5e3qlStbW1xcXFWq227a6Wlpbbt2/r9XrTI7RLfn7+5MmTpVJpXl4eaP2MotVqm5ubtVotitkoYKPw2mlfs7JVdjiUhyCzTcTO+vr6kJAQR0dHd3d3V1fX9PT0dt0qLCwcP368i4uLn5+fRCLZvHkzm2bodLo1a9ZIJBK5XO7s7Lxo0aL79+/zujMMs3LlSrFYfPLkybbjDx06dMaMGbGxsUFBQT38BAIwUHCzEa1Wq9fr2RoGW6brqG/nM0jif4M3eumgY3TUcceOHYGBgcnJycOGDVu/fv3ChQuvXLni6+vLbVNVVTVt2jQvL69z585JJJL09PSEhAS9Xr9161aCIOLi4nbv3r1p06ZZs2bl5eV99tlndXV1WVlZ3HOLjo5OSkpKSUkJDQ1t666vr69MJiMIQq/XX7p0ydTfD3haQTkCko2maXbKh7IR02/FHZrNOo1iM3ceaTrPJghCLpdnZ2ejG0iurq5yuTwxMTEpKYnbZtu2bY2NjcePH3d1dSUIQiaT3bt3b+fOnatXr25qatq/f/+7774bHx9P0/TEiRPr6up27typ0WhQX6PRGBERkZKScuTIkfnz53f0GUj2tpaJ6weeZvR6PQrVer0eZdhIcXPSy07ybOKJ3GhQbrZtIhuZM2eOUChEbnl5ebm4uJSUlPDOJj8/38PDY8SIEagZRVFTpkzR6XRlZWVXrlzRarXTp09Hd54oikpISKitrWVrhWFhYUlJSUuWLGk3WgPYwCrHTvZ4GYgJxTuv+nGr2uzHRdCdmo56OTg4sI9JkvTx8amrq+O1UavVgYGBXC9R8H7w4AGad/r4+LB7hUKhWCxmn54+fVoul3/77bd37941ff7AMw3KDtjsl+thpyUys2aQ3LuP3HvsHcmtVqu5T2/evIms5WJvb8/z8vr16wzDjBw50t7eniRJ7pRRo9Fw6yeZmZnff/89TdNhYWFQ98AYVGJGWrMGmtm3a3fyDE8wnWdfvHiRPQOVSlVTUxMQEMBLG3x8fC5fvvzo0SN2S0FBgVgs9vT09Pf3JwiCW61bu3ZtcHAw+zQgIGDkyJHr168/f/78oUOHQG4sQbkHynvZkMr+yz7oqLu5MZtbHum04FJQULBq1aqSkpJbt2598MEHNjY2UVFRPLPXrVun1+tXrFhRUVGh0WiSkpKUSmVkZOTgwYNfeOGFWbNmHTp0KDMzs7Kycvfu3SkpKQqFwsrKCvVFQ8XGxvr4+MTFxVVWVpr1pwKeHZBd3FDN07rTcNa52ewQXLkJk8l7fHx8bm6uXC4fP358aWlpZmams7Mzz+zg4OCkpKT09PQxY8YMGzYsPDw8MjJyw4YNBEGQJJmSkjJp0iSFQjF69OiYmJjZs2fv3LmTdxSRSLR79+6Ghobo6Oge3toEnma4CTBh9ve2OvxMIJososSjpaXl8ePHOp3ur7/+0mg0Wq22sbHxk08+cXJyyszM5H3WDxVoGIZRqVTNzc3e3t6oTkI8ydfRnVL0VKPRFBYWGgwGX19fe3t77uecDAZDbW1teXn5qFGjHB0d0VHQFQoEAvYkDQYD+3H1duF1AZ4JGhoa7O3tly5dOnXqVHt7e7FYbG1tPXjwYFtbW6snCAQCmqbRZ1zbYqqezQv+vJyko46sQx4eHkSbb7lxDSNJUiwWBwcHE+1VnWmadnZ2dnJy4u7ifbSQN2C78LoAzyIm4jTTwQdIuh/JOn1HMLPSbLoZlKstHG4VrkulAghmAJ6A2QCegNkAnoDZAJ6A2QCegNkAnoDZAJ6A2QCegNkAnoDZAJ6A2QCegNkAnoDZAJ6A2QCegNkAnoDZAJ6A2QCegNkAnoDZAJ6A2QCegNkAngzMKhxVVVVHjhwxZ+V6oOeQJDlv3jwfH5+BPpF+ZWDMPnXq1MaNG7v9C2NAl2hqaqqtrd25c6dFrbsyMGajZeurq6th6aZ+QCaTWeDb40CKJRAIwOx+wDJXI7KgtyfAogCzATwBswE8AbMBPAGzATwBswE8AbMBPAGzATwBswE8AbMBPAGzATwBswE8AbMBPAGzATwBswE8AbMBPAGzATwBswE8AbMBPAGzATzB2WyGYU6cOFFaWtru3urqaqVS2dTU1O3x1Wq1UqlkGMb8LkajsduHA7oE5mYvWbLkzJkz7fqUl5enUCgqKiq6Pb5SqVQoFHq9vtOWjY2Ny5cv9/LyGjRokKen58aNG1taWrp9XMAcMF8UwWAwmIipPYygDMOYM8Ljx49feeWVkpKSiIgIFxeXtLS0rVu3qtXqlJQUi1rapp+xlL9sQ0NDeXl5p5lDbW1tcXGxVqttu6ulpeX27dvmRGgely5dun79+sGDBz/77LOoqKhffvnlpZdeOnr0aHl5eVeHAswHf7Pr6+tDQkIcHR3d3d2lUml6enq7fhcWFsrlchcXFz8/P4lEsnnz5tbWVrRLp9OtWrVKIpHI5XJnZ+dFixbdv3+f151hmJUrV9rZ2Z0+fZo3/qVLlyiK+vvf/05RFEVRNE2HhoYSBFFWVtalHB3oEvibvWPHjvr6+uTk5LNnz0ql0oULFxYVFfHaVFVVTZs2bciQIefOnbt+/fpHH320bdu2hIQElGzExcV99dVX8fHxFy9e/Oijj7Kysj744APuemIMw0RHR+/du3fPnj2hoaG8NZlCQ0P//e9/29rasluys7MZhhk9enRfXrelg3meTRCEXC7Pzs4WiUQEQbi5ufn6+iYmJh48eJDbZtu2bY2NjSdOnBgxYgRBED4+Pvfu3du5c2dsbOzjx4/379+/bNmy+Ph4mqYnTpxYV1e3c+dOjUaD+hqNxoiIiJSUlCNHjrzxxhttlxrz9vYmnixBxjBMYmJiVlZWaGioh4eHZa5L1j/gH7PnzJkjFApJkiRJ0tPT08XFpaSkhNcmPz/fw8PDxcUFNaMoasqUKTqdrqys7MqVK1qtdubMmRRFoV0JCQm1tbV2dnao7/Lly5OSkpYsWRIaGtrujBCNSRBEcXHxrFmz1qxZo1AoDh48SNN0X1+7JYO/2Q4ODuxjkiR9fHzq6up4bdRqdWBgIHeLq6srQRA1NTVo3unj48PGV6FQKBaL2aenTp2Sy+Xffvvt3bt3OzoHvV6/adOmCRMmVFZWZmRkpKamsi8MoI/A32y1Ws19evPmTWQtF3t7e56X169fZxjGzc3Nzs6OJEnulFGj0XDrJ1lZWd9//z1N02FhYe1WThiGmT9//ueff75ly5YbN268/vrrsAJtP4C/2RcvXmSrziqVqqamJiAggNfGx8fn8uXLjx49YrcUFBSIxWJPT09/f3+CIHJzc9k6xtq1a4ODg1mJJ02aNHLkyPXr158/f/7QoUNtT+DkyZOZmZmfffbZRx99hNJ9oB/AP3gUFBSsWrUqPDxcr9evWrXKxsYmKiqK12bdunU//vhjZGTkJ598IhaLv/vuO6VSuXbtWltb24kTJ86aNSspKSkoKGj8+PHp6ekpKSnvvPOOlZUV6ovSktjY2NTU1Pj4+NmzZ6NpKEtOTo6trS1Jkvv27eNunz17tpubW19eukWDv9nx8fEZGRl79+5lGMbBwSEzM9PZ2ZnXJjg4OCkpKTo6OjU1lXhSxduwYQOaEaakpPzjH/9QKBRoV2ho6M6dO3nzP5FItHv37pdffjkqKurkyZPcqeT58+cbGxtXr17NO+jYsWNdXV2hPNJH4Gw2RVHNzc0URW3ZskWlUjU3N3t7e6M6CUEQCxcunD9/PhKUJMmlS5cqFIrCwkKDweDr62tvb8/aOXz4cKVSWVtbW15ePmrUKEdHR9QrMjIyPDycTZonT57c3NyM6ifc07h582a7d2Romgat+w6czSYIgtXOw8OD+N/ftSBJkjuTI0lSLBYHBwcT7f38BU3Tzs7OTk5O3F3onmJHA3L79sKVAF0Ec7NZzIyOpptBiH2GwL82AlgmYDaAJ2A2gCdgNoAnYDaAJ2A2gCdgNoAnYDaAJ2A2gCdgNoAnYDaAJ2A2gCdgNoAnYDaAJ2A2gCdgNoAnYDaAJ2C2pWBpKxpb1tUClgOYbRFY4Dc4wWz86cZq9hgwMN9dr6ys1Ov1I0eOtMBY0v/U1NRkZmZWVlb2/6Ht7e337dsnFAr7/9ADYzZaaM/d3R3M7mtIkkQLdbMLfvcbtbW1t27d+vTTT9suytUPDIzZbm5uAoHgxx9/hFVJ+5SBXcTn5MmTCxYsGKijD6RYNE3D+klAHwEzSABPwGwAT8BsAE/AbABPwGwAT8BsAE/AbABPwGwAT8BsAE/AbABPwGwAT8BsAE/AbABPwGwAT8BsAE/AbABPwGwAT8BsAE/AbABPwGwAT8Ds9mEY5sSJE6Wlpe3ura6uViqVf/31V7fHV6vVSqUSrU4B9AVgdvswDLNo0aKMjIx29+bl5YWEhFRVVXV7/MzMzJCQkNbWVnMab9u27YUXXrCxsXF1dV22bFlFRUW3j2s5gNlPO3FxcRs3bvT29t6+ffvLL7+cmpo6e/ZsrVY70Of1tANmd05DQ0N5eTnDMKab1dbWFhcXt+tcS0vL7du3u7G+ntFoPHjw4Pvvv5+cnBwREXH48OHly5cXFRXdvHmzq0NZGmC2Kerr6+fMmePo6Oju7i6VStPT09v1u7CwcPz48S4uLn5+fhKJZPPmzTqdDu3S6XRr1qyRSCRyudzZ2XnRokVt19djGCY6OtrOzu706dO88cvKyoxG4+uvv07TNEVRNE3PnDmTJElI0DsFzDbFjh07Ghsbk5OTz549K5VKFy5cWFRUxGtTWVk5bdo0Gxubc+fOXbt2LS4ubtu2bQkJCUi+uLi4L7/8Mj4+/uLFi2vXrs3Kylq+fLnBYGC7I62//vrrPXv2hIaG8hY69PLy+uOPP+bOnYueajSaXbt2jRgxIiAgoI8v/ZkHltUzhVwuz8nJQUu0ubm5+fr6JiYmJiUlcdts3bq1sbHx+PHjrq6uBEHIZDK1Wr19+/bo6OjHjx/v37//3XffjY+Pp2l64sSJf/75544dO9jFI41GY0REREpKytGjR9tqTRAESZJo6cPs7OywsDC1Wi0UCnNzc2Glz06BmG2KOXPmCAQCkiRJkvT09HRxcSkpKeElDOfPn/fw8BgxYgRqRlHUlClTWltby8rKrly5otVqp0+fTlEU2pWQkPDHH3/Y2dmhvmFhYUlJSUuWLFEoFKZ/bWPUqFGLFy+eOXMmTdNLliy5e/duH142FoDZpnjuuefYxyRJymSyuro6Xpt79+69+OKLXC9R8K6pqbl37x7DMDKZjN0rFArFYjEbcU+dOuXn53fkyJFOTR03btyWLVuysrIOHjyoUqkOHz7c86vDGzDbFGq1mvv0xo0bUqmU10YikahUKm4gv3HjBkEQbm5u9vb2BEH89ttv7F6NRsOtn5w5cyYtLY2m6bCwsHYrJ0eOHJk/f35TUxO7RaFQ2NnZ/frrrz2/OrwBs01x4cIFVkqVSlVTUzNp0iRejiuTyS5fvvzo0SN2y6+//mpnZ+fp6env70+SZF5eHjvI2rVrg4KCWIlffPHFMWPGbNiwIScn59ChQ21PoLm5+fTp0/n5+eyW4uLihoaGUaNG9eqFYgiYbYqCgoLY2NiSkpJbt26Fh4fb2NhERUXxzP7444/1ev2KFSsqKio0Gs3+/fuVSmV0dLStre3EiRNnzZp16NAh9GMau3btSklJefPNN62srFBfNFRsbKy3t3d8fHx1dTXvBBYsWGBvbx8TE/Pzzz9XVVV9++23y5Yto2k6IiKif/4Czy5QGzFFfHx8enr6nj17GIZxcHDIzMx0dnbmmT1lypSkpKSVK1cePXqUeFLF27BhA8qtU1JSli5dqlAo0K7Q0NAvvviCtx6+SCTau3fv9OnTo6KiTp48yU3Z7e3tv//++8WLF0+fPh1tcXFxOXbs2IQJE/r62p91wOz2oSiqubmZoqgtW7aoVKrm5mZvb2+hUIi0Xrhw4fz585GgJEkidwsLCw0Gg6+vr729PWvn8OHD09PTa2try8vLR40a5ejoiHqFh4d/+OGH7I+ZBAcHNzc3o/oJ70xeeukllUr13//+t6KiwtXV1cPDQyQS9d8f4pkFzO4QVjtPT0/eLrbMzD4Vi8VTpkxpdxyapp2dnXm/QkRRFFdi3oA8RCKRTCaTyWRdvQRLBvJsAE/AbABPwGwAT8BsAE/AbABPwGwAT8BsAE/AbABPwGwAT8BsAE/AbABPwGwAT8BsAE/AbABPwGwAT8BsAE/AbABPwGwAT8BsAE/AbABPwGwAT8BsAE8GZlWG0tJShmHEYvGAHP1ZBP25hELhQJ9IF0Arwg3UgsgDY/Zzzz2Hlo42vbQuBvTKBTY2Nu7du/e1115zd3fv+Wj9iUQicXR0HJBDD4zZEomEpumtW7eaWD4GA3rrdfvbb7/t3bt3yZIlc+bMgTXhzWQgxeKtkwQAvQiIBeAJmA3gCZgN4AmYDeAJmA3gCZgN4AmYDeAJmA3gCZgN4AmYDeAJmA3gCZgN4AmYDeAJmA3gCZgN4AmYDeAJmA3gCZgN4AmYDeAJmA3gybNtNsMwx48fLy0tbXdvVVWVUqlsamrq9vhqtfrMmTNGo7FLvfR6vU6n6/ZBgV7hmTf77bffzsjIaFe+3NzckJCQioqKbo+fmZk5d+7c1tZW87vU19ePGTMmNDS02wcFeoVn2+ynkLCwsJ68loDeAh+zGxoaysvLGYYx0Uan0xUXF9fU1LS7t6Kiorq6uifncPjw4ezsbCcnp54MAvQKOJhdX18fEhLi6Ojo7u4ulUrT09Pb+q3X6zds2CCRSPz8/KRSaUBAwNWrV9lm//nPf3x8fMaMGTNy5MiAgID9+/e3HYFhmJiYmMGDB6elpbV7GqWlpTExMfv27Rs2bFivXyPQVXAwe8eOHfX19cnJyWfPnpVKpQsXLiwqKuK1Wbdu3Y4dO7Zs2XLr1q0zZ860tLS8+uqrDx48IAiioqJixowZNjY26enpZ86ccXBwiIyMzM/P58rNMEx4ePi+ffuSk5Pnz5/f9hy0Wu0777yjUCgWLFjQpxcLmAkOy+rJ5fLs7GyRSEQQhJubm6+vb2JiYlJSEtvg/v37aF28mJgYmqa9vLzc3d29vLz+9a9/ff7559u2bWtpaTlx4sTo0aMJgnjhhRfGjh175syZyZMno+4URS1fvvzIkSPHjh1TKBTtnsPHH3/c2NiYmJjY95cLmAUOZs+dO1coFKKlHL28vKRSaUlJCTfiXr58ubW1dfr06TRNo2Zjx46VSqWFhYUMw1y8eNHd3X3kyJFol4ODQ21tLUmS7JqDy5YtS01NjYiICAkJafcEsrKydu3alZOTA+smPz3gkI04ODhwVyj18fGpq6vjNkAzy8DAQG4zqVSKppLl5eXe3t7cXdbW1lZWVuzT06dPT5gw4fDhw3fu3Gl79NbW1qVLl/7tb3/T6XR5eXm5ubmPHz+uq6vLzc2FIskAgoPZarWaG6Fv3LghlUq5DSQSCUEQKpWKbWYwGIqKitzc3AiCsLOzu3//PncElUrFlfLs2bNpaWkkSUZERLSdWTY3N9fU1CiVyhlPUKvVBQUFM2bMOHr0aG9fK2AuOJh94cIF9k6NSqWqqamZNGkSNwbLZDKSJHNyclgvb9261dTUFBAQQJKkv7//9evX2VuVarXa39//m2++YbsHBQWNGTNm48aNubm5hw4d4sktFotra2tramp+f4Kvr+/MmTN///33FStW9O2VAx2Dg9kFBQWrVq0qKSm5detWeHi4jY1NVFQU1+yAgIDp06cfOHAgKyurubm5tLQ0LCxsyJAhYWFhFEXFx8cbDIbo6Gi1Wn3hwoX333+fIAhuAQQNtWbNGplMtnr16srKSu7RSZJ0+F8EAoFIJHJwcBg0aFB//Q0APjiYHR8fn5ubK5fLx48fX1RUlJmZ6ezszDWbJMnk5GQ/P7958+YNHTpUJpM9fPjw3Llzw4cPJwgiMDAwNTVVqVSOGzdu6tSpZWVl33zzjYeHB+8oAoFgz549Go0mKiqqXy8P6BbPdm2EoiidTkdR1JYtW1QqVXNzs7e3N1snefvtt998802apgmCGDFiRFZW1r1791Qq1ahRo8aNGycQCFAzkiTffPPNefPm3b59WygUuru7W1tbo/EjIyMjIyPZwwUFBZnz6airV6/2ydUCXeHZNpsgCPaXbjw9PXm7SJLk/g4OTdPu7u7t/ogRSZLW1tYTJkzou/ME+hkcshEAaAuYDeAJmA3gCZgN4AmYDeAJmA3gCZgN4AmYDeAJmA3gCZgN4AmYDeAJmA3gCZgN4AmYDeAJmA3gCZgN4AmYDeAJmA3gCZgN4AmYDeAJmA3gyYB9d91oNF67dg0tmQCY5vfffycIoq6urqqqiruOSv8gkUhsbGz6+aA9Z2DMvnbtmtFoDAoK6odjGQyGfjhKP/Dee+8NyHEnT56cn58/IIfuCQNj9vPPP0+SZGpqKruSb98Bbws94euvv35GV5QdGLNtbGxomlYoFNyVbvqC/n/vxoyffvoJzO4yJEmCeUAfAbURAE/AbABPwGwAT8BsAE/AbABPwGwAT8BsAE/AbABPwGwAT8BsAE/AbABPwGwAT8BsAE/AbABPwGwAT8BsAE/AbABPwGwAT8BsAE/AbABPLNdshmG+++670tLSdvdWV1dnZGQ0NTV1e/zy8vKMjAyGYbo9AtATLNrsxYsXK5VKo9HYdm9eXt68efN6siCBUqmcN2+eXq/vtOX9+/f/rw3P6FoITw8DuSoDgCgtLb169eobb7zBXaOir1diwR748xEEQdTX19fX148ePdr0+ie1tbW1tbUeHh4ikYi3q6Wl5e7du56ent0wUqVSOTo6pqWldbUjYALLzUYQ9fX1c+bMGTZs2NixY52dnTvKjG/cuOHj4+Pk5OTr6zt06NDNmzfrdDq0S6fTxcbGisVimUzm4ODw9ttvV1ZW8rozDBMTEzN48OBTp061HRy9JHr90iwcSzf7n//8p0aj+e6777Kzs11dXRUKRVFREa9NZWXl5MmT7ezscnNzi4uLN27cmJCQsGXLFrQ3Njb2q6++2rRp09WrVzdu3PjDDz8sW7aM251hmPDw8H379iUnJ7/xxhttz0GlUjk4OCQkJISEhCxatOjAgQPtpv5Al7D0bGTChAk///wzSiFSU1M9PT2/+OKLQ4cOcdt88sknjx8/PnXqlJOTE0EQ3t7ed+7c2b59++rVqzUazf79+z/88MP4+HiKoiZMmPDw4cPt27drNBrU12g0hoWFJScnHzt2TKFQtHsOd+/eLS4uvnnzpp+f308//XTs2LGjR4/+8MMPVlZWfXz1OGPpMXvu3LnserAeHh5SqbRtHTA/P//5559HWiOmTJmi0+lKS0uvXLmi1+tnzJjBJuiffvppY2PjkCFD0NNly5YdOHDg/fffDwkJ6egcZDLZ+vXrS0tL09LSqqurY2Njf/755y+//LI3r9PysHSzHRwcuLNGmUxWV1fHa1NeXv7iiy9yt7i6uhIEUVNTU15eThCEj48POwhN04MHD2afnj592t/f//Dhw3fu3OnoHI4fP/7pp5+iF5hQKFy9ejVN0zk5Ob1weRaMpZutVqu5U8YbN25IpVJeG4lEolKpuFuuX79OEMTIkSPt7e0Jgvjtt9/YQTQaTXFxsVarRU/Pnj2blpZGkmRERES7c1OtVqvRaLi7nJ2dJRIJNgvaDxSWbvb58+fZ6dqdO3cePHgQGBjIa+Pr63vp0qVHjx6xWy5evGhnZ+fl5TV+/HiCIH755RdWzZUrV06aNIl9Onny5DFjxmzevPmXX345cOBA2xP48ccfJRJJRkYGu+XChQsPHz709/fvvau0RCzd7F9//TU2Nra0tLSwsHD58uW2trYrVqzgtVm/fr1OpwsPD6+oqEBTRqVSGRsbO2jQoIkTJ7766qtoS1VV1a5du44cOfLOO+/wJjTBJJwAAAXBSURBVH+rVq3y9fWNi4urrq7mDT5t2jQXF5eYmJjs7Ow///yzoKAgNjbW1tY2Nja2b68cdyzd7E2bNp0/f/7555/38/MrKys7d+6co6Mjr01wcPDhw4dPnz7t5uYmFovDwsJWr169YcMGtDc1NTUwMDAkJEQqlUZHRysUisTERN4IAoFgz549Go0mIiKCt2vIkCHp6elDhw595ZVXhg0bFhgY2NTUlJOTM2LEiD66ZAvBcqt+FEWhuy2bN29WqVTNzc0+Pj5sneStt95666232MZLly5dsGBBYWGhXq+Xy+VisZjdJZFIzp49+/Dhw3v37o0ePfq5555D21esWMEN/0FBQR1Vqf39/W/evFlSUvLgwYOxY8e6ubnBT0H0HMs1m8u4ceM6bTN48GBehYSLg4ODg4NDt0+AJElvb29vb+9ujwDwsPRsBMAVMBvAEzAbwBMwG8ATMBvAEzAbwBMwG8ATMBvAEzAbwBMwG8ATMBvAEzAbwBMwG8CTgTEbVh0A+hqI2QCegNkAnoDZAJ6A2QCegNkAnoDZAJ6A2QCeDNh31xmGycjIYFdBAJ5O1Gr1QJ9CNxkYs+3s7IxGY7uLSQNPG0FBQQN9Ct1hYMx+7733Zs2aBXcinwmGDRs20KfQHQYsG3FxcRmoQwOWAKS5AJ6A2QCegNkAnoDZAJ6A2QCegNkAnoDZAJ6A2QCegNkAnoDZAJ6A2QCegNnAUw35hK527NBsNBxFUWQb2I09O2cA6ByuZu0q15GH5sZsnsqgNdAPtI2q5vftQjbCHZ09Bk3TXTpXADAfrs1c98xR3CyzeakITdPdzn4AwHyoJ3RVa8Kcbx5wx0JaUxQlEAgYhtHr9X/99VdPTh0A2gV5hXwTCATIOqQ4YZ7fZn2nhp01otHpJ2RnZw8ZMqTnlwEA7SIQCFit2xYwTMtt7rfFeEk2RVGLFy/29/fX6XStra16vV6n02m1WoPBYDQaDQaDwWBgGKYXLg7AGiQVCpQoaFpZWQmFQoFAYGNjExAQQHNAgZV4Ms0zLbcps7mvEpSB0DQtEokIghCJRKNHj3ZycmptbdVoNFqtVqvVtrS0IMuR3wzDGAyG3v5TAFjB+ioSiSiKsnqCtbX1oEGDbG1thUIhSki4wZswozrXSczm5iEMw6CXjkAgEAqFVlZWyOBBgwaxRxUIBIYnMAwD304HTMPLb5HTIpHI2traxsbG2tpaKBSKRCI2opt/O8WsGST7L+880CtJKBQyDMN6bDAY9Ho9TdMobPfG5QPYgkxFIqHILRQK2TjNzVK4WhNm3Jvs0GxuTzQ0QRDIY5Ik0auK3SUSibRarVAoRKkIG7PBbMAE3FyX9QqZLRKJUMwWCATsRl6RpBfybPYM0GEoikJ5CEmS6KXGno1OpzM+gYBf7QBMwqrFjc0ikQgFUNZsNKfkTiV7rTaCjs2eAcMwSHG0i2EYnU7H5t9Ia6iNAJ3C5hVIHvQAZdVsrGTnjl2aPhJm5tnIZoIg0ASR+1JD7xQot+ZVRcBswDQk5zMa3PobO3+zsrJC00qkO/qXq7gJOslG0BCoKoLKI+h9AY1L07TBYECTRaPRqNfrkdZsNgJyAybgzgWRadziBFIZTSvRU5T9sqk5YTJ4m5WNoFGQ32wNBB3AYDBQFIWEZs0mCAI9ALMBE7BrTHPvcLP1NzYPQcGUV/XrdPBOYjbvAXdaiqxFW5DuAoGAazYBMRswCTsL5FYp2AkiKoawVYq2JRHTk0jStHxoLxKXTTNQ4kEQBPuYrWczT+B2B4CO4AZNNsVlMxM2lrOJOO+rMKZGNkc+NhKzU0P2zjlrPCs0T24A6BSkL8EJw6zc3CzcfK2JLn0iiiAIhmHYVIQkSVTSRqk2V2UwG+gSPFnZyhsbyNmM3Byn/39LMxVsG4/ZB+ztGMhDgO7RVuu2D0hOJdscuc01m4VnM2HyRiP4DZimI0c7ct38kf8fVRmYdV++RlAAAAAASUVORK5CYII=;" vertex="1" parent="1">
          <mxGeometry x="100" y="62.00337402343746" width="243" height="335" as="geometry" />
        </mxCell>
        <mxCell id="bIEeLJ-2RRx14gN9JyyU-2" value="" style="shape=image;verticalLabelPosition=bottom;labelBackgroundColor=default;verticalAlign=top;aspect=fixed;imageAspect=0;image=data:image/png,iVBORw0KGgoAAAANSUhEUgAAAf8AAACdCAIAAAA12OYMAAAPDGlDQ1BJQ0MgUHJvZmlsZQAAeJyVV3k41G33P1/G2Mc2xs5YsmQb+5Z1kJ3sJAxjGcuYxr6ECiVKSlERKdJCaRFKQoWKqERZnqypkMjSovn9oafn+r3v9V7v9Z4/7utzPuc+9znnPn/c9wHgvUqi0aKYACCaGkd33W6B9/bxxbMOARNIAAAnqJGCY2nmLi4O8B9l9TUgAAAvVUk0WlTRemG7F/5lW/RjNwXy+Orif/YDAAAM3dvHFwBRAQBs2CY2AwBs0CZ2BwBsYhwtDgAJBwBscDiJDICkAYAK3d2VCIDUAAAmbBM3AgAmaBN3AQAmITgsDgAZAkDzU8kUKgDrHADahBwSGwyAUQEAMjk2OBoAcxQA6Y2OjiED8AYCgGIwjR4HwHsQAOS8fXzxmymT1wAMUQDot/9wEdIAtbcBxKX/4RTuAwiTAK5v/YdbdgUEABDc89hQLU0AAEC4LABYxhiMZXkA1mMAG4UMxo9KBmPjPADzCMCDqOB4esLv+0KQHoD/pm/W/FuYEQAmACZ1ZidUOMse9CnW62zt7EMcnziXuDkwQjzSvKp8hvzmAg5Yd0EvnL9QsDBFhCYaKxYnHi+RJJkqlYnPks6SOSB7SO7IlhPyZxQqFGuUrm1tVO5UGVAdV1slcGjIaGppeWin6lToPtFbN1AyJBmd2TZqImVKMbtjwUXcZXnTmn873abfTt3+sMMXJwfnuh08rlFuTzzEPKO87vtgfAN21vh99ScGHArsCeIJdiYfC3kexhFuTomPqIscjxagWsYk0q7ufhuLiiPEByTkJ95Lmk3hSzVJo+0pT+/MGMmc2Du9b27/YtZS9mrOxkFULtchvjzBfInDike0CoyOmhfaHNtx3LPI94T/yeBiSknkqcjTlDOU0oiy8LOkct8Kt3P2lWbnNS4oVSlUb7koU4O/JHFZ5IrgVb5a3jquayzXfl1fr1++MX9z+tbw7f6GZ3c6Gpua6puv3r1071zLyftHWg89yGrb257SQX9IfUR9HNVJ6iJ247onntx4mvHMrkeoZ6b31vOsPtd+qf75Fw9eFr4KGFAd+P766WDxEOmN6ptvbx8PF4x4jkqMTo3V/kV/p/vu23jzROqk4eTqVMN02oz5e+b33bP5H5w+8n58+al4znteeH5ooeSz96Lw4sCXwiWnZe7l7q9ZK+YrjNX7aynrOuuL32q/R/5Q+jHzs3Ij8JfUr7eM3QwGABOKmR+FY8GiBVl52DjZ2dg3OL5xfuaa4n6D6eFp463nq+QvEsjGJgpG4nYJOQsTRQxEdcVUxNUl1CR1pUzwVtKmMvqyqnIqW1TktyoQFFWUCFt1lYkqdqreahT1ZEKuRplmg9Zz7QVdPj1tfTeDFMOLRoPGbCY6prvNas1nicqWkVbXrNdtrGzz7IYcNBzTnPpdxHaEuTa4Ix6Onse8RnyUfGk7b/it+esH7AlsJW0EG5ETQu6ELoerUSIiLkd+jJan+sWU0F7TBWLd4wrjnySyJTkkH0l5lDqZ9mnP5/SVjG+Z3/f+2s+SxZUtkCNyQOKgXC7hkGGeRb7tYecj3gV+RwMLyccijscU0U7QT8YUU0top6JPh54JLPUuczlrVa5boXpOtVLlvNIFpSrFavmLcjWyl+Quy16RuipeK1onck34umA9/w2emzy3MLe5G7jv8DXimoSbhe+K3cO3KNxXa9V5YNBm0e7U4ftw56Ptj/GPlzq7u0q7o5+YPxV6Ov/sUc+p3ujnxD6JvtX+nheVLxNfOQ3IDKy87h4sHYp5Y/6W7+3o8NWRtFGbMb6x4b8q30WMq40vTjROHp0KnzadEZqZf/9w9tQH6kerTyKfPs7dmz+8sOuz2ucfi51fji35LystL329u5Kz6rImvDayXvmN8p3wff3HvZ+ZG1a/ML+eM6I3+8+0xryI+sryGT3POs82zz7GMcz5iuspdwumjqecN48vkZ8s4IAlCPIILuP6ha4IZ4n4iRLEWMQGxask4iWtpHikRvFV0tEyhrJo2ddyl7aky3soqCiyKb5X6txao3xYJU51p5qFuhpBXINdY01zWqtf+4HOdd0yvVz9BAOSoYPRtm14Y7TxosmA6W2z4+YJFhSil6W1lb61/HZhGxabVdsPdm/suxwaHKudSpxzXZJ2hLl6ujm4G3moeEp54by5fZh8vvp+2Dnh93bXK/+egI7A+6SWoObgG+TzIbmh9LCAcBuKeoRoJGvkStRUdD/1fkwdrXL3SfrB2KS48Hj/BKdEkyT1ZOkUbCoqdTnt3Z7e9PsZVzKL9mbsC93vnKWdjctBctYOzB+czH17qC+vM7/58LUjNQWlR/MKM47RjpOLPE5Yn9QulisRPMVy6uvp6TNDpT1l989eLS+rOH4uuzLtfMwFUpVX9Y6LtjVGl2Quw+WRK/eultTS65yvqV3HXF+o77lx6WberZjbbg06d3B31hpHmlqay+6m3yO1EO9vaWVpnXzQ0VbdntVBemj8SPTR6uO+zqquvO7SJ21PJ54xekWfG/T59qe9KH3Z9Wr+tfig81Dem2fDAiOBo01/CbzLGP86uXcaM3Nx1uUj36fX83WfT34pXC5bqV+b+Y7/GfgrncEA2Hz7AADQugAl8QDe4wCuVQAFGwCKXAC4GgAXbgB3A0DaCwC5kg2IRcHf7wcAMAEb8IEkqIIpuEMU5MB5eAjTCAeiifghB5FG5AOTBJMH0xGmJ8xszDbMecz9KFEUGVWPYrA4s5xn+YZ2QV9mRbGSWB+wSbPtZ5tld2Sv5xDlyOKY4/TibOfS5CrjZuWO557AOGNaeJR5SnhZeWN5x/lc+Fr4lflLBFgE4gWmsW7YNkGCYAWOH5eN+yYUJfRO2Ef4uch2kQei20QbxHTFmsVNxNslbCT6JL0lp6XoUgx8vrSk9E0ZW5lx2VQ5rFz9FpctS/LFCiYKk4r5SgZKM1tPKFsqL6tUq/qrCav1qecSrDRAo0UzQ8tCm1m7XSdb10FPUp9Jf8Fg0LDd6Oa2KuMik2zTRLMI82CLXUQ3SxsrC2vT7WY2ZrZmdtvtXRx8HUOcaM77XYp31Lt2u417IJ4KXo7eiT6VvoN+PLsM/YMDigLbScvBCmT/kOLQnnA0ZXtEbmRPNC/VM6aC9pluHpsX91eCdmJu0kiKauqBtNl0y4yyzB/7PPc3ZUvlpB94m2t66Ha+3xHxgoHCU8eDTsie/FhSdzq91PGsQPn4uYbzhVXkizaX1K5gr/6oW7j+/sbUrbGG2caVu1wtsq1ObTEdGY8qOpu7x56x9hL6vF8cfdU1iH5DHM4bHXknP5E2NfB+64c9nyYX7BYvLXOuxK5Nfbf+eY/B2PxJAAcIghzoggOEwF44Bx3wAeFHTJBopBwZYOJmsmHKYXrMzM7szFzMPI5SRqWgOlmEWcJZmtEYNAXdyarEmsv6ic2F7Ra7JPsB9i8cvhxdnDqclVz8XPu5VrnDuN9inDFtPDo8l3lleU/z8fId4PvFn8C/JEARGMfuxL4WdBJ8grPGtQkZCzUK6wnfEdESqRPVEL0mpiHWKG4i3iFhLzEgGSC5IJWGZ8eXSG+VfiDjITMnmyMnKde0xXPLqnyxgpHCsGKmkoLS861JynjlLpVYVWnVV2pZ6lrqU4RiDRuNDc0GLaq2nPaQzlFdRz2c3qr+hMFTwwaji9tOG+eapJhGmQWYe1nsINpYGlvpWWtv17bRtdWxM7a3dnBx9HUKdU52yd9R7drqNui+5inhZeEd7VPi+8yPZRfB3yvgQOAt0kQwlmwTkh5aHzZDkY0gRZZHjVHFYwJoVbsXYjXjkuMfJmKSPJNLU6bTdPfkpL/IlNobta8pizublFN34Huu46Eb+baHNwpqCv2PixQ9O7m/RO/UypmGMmq5YsVs5fULidVmNQKX3l+5V3viWkJ90E3727p3NJrU7mq3GLd6t5E7zB9pdIp2cz3ZeLbeu9D34cXXVz8HOd+IDmuPev2VOl45+XIGNav9MXLu1sLaF+PlvSsv1pW+03+++tN/ThACeTAAZwiHLKiCTphHcAgRiUWqkTEmISYPpmKmMWZ55jjmxyhxVCJqgEWfpQLNgU5Fz7OGs06wBbKNse9iH+MI4pjmpHAuciVyMbhzMThMJY86TyvvDt5pvj38WP46AUeBeWyhoJ7gCC5faJvQnPAFkSBROdEBsSPiNhKIxAPJdCkLPArfKX1UZqesouyKXMeWk/KRCkRFnOIXpWdbLyrvVfFTNVGTUWdWnyZ0a9RqFmvt1Q7VcdLdpqehr2dgbGhmZLvNy5hkEmmaYLbf/ITFReJNy3arAetPNihbYTsde3eHWMdjTrech3egXbXdAtwLPLq9EG9znwzfTj/BXQ7+6QGNgQtBSsFkcnXIbJh8eBSlORIV5R59jvqVZr+7ms6I84lvShRJSkx+kaqdVp6OzgjP7Nunvb88G5OTcGA4d/uhtnzPw2sFhYVax0aLMk7KFD86FXlGrLTtbHAF57mm8xFV2OqumszLulfmaquukeuVbizcqm1IbrRvlry71NLbeqctuX32odOje52ErstPJJ8e70H3Jj9f7vd50ftKf6B8EIZ83lwfRo14jJ4dG3snN+43cXjy7tTQ9Mp77KzyB7OPTp9c55znHRfsPpsuan7BL3EsfV7u/1q3kr9KWbNY510f+3b1e8oP259CP0c3yn51MBgAm/MSAABwEGOiYuh4B6Llfxnu/leJjor/OwYPAHBRg5ycAYAfAB7GJrhZAQAvALwOpVjb/sYzZJKlPQCIA8BqSjjRCQC4ABD+ULq166YvIhlBsnMBAAwAQgiherj95k1ocRauACAMgLiExFr9zYenhLt7/d6fEhlj7/r7zIPkEMvfOSBF1CgnBwDAASAXKHG27gCABUCawRpIQIcwCAFVcAAiWII1TAEdwv7onjAFdKD80TdXVQgFEtAhAUIgFiJhBugQHUDZRwf87x3dEAx0IAH1b4ZwhfCB8POPnQgxEAUx8I/H5oqH4D8WCpAh5t/5AMo+evSN0ISSmGRDz/DeuTtzf87YrCfoT7b2EAUhEA90CAHqv9Tw/yPB5iwNAIDmBSgNBABoXU/N/Ne+x4UkxQEAEGNoyXRKWHgc3pxGiwpRwdtSg9VU8JoEgj78H2BPQl8ykUZvAAAACXBIWXMAAAsTAAALEwEAmpwYAAAgAElEQVR4nO2de1wU1fvHz+wdgVURTQK1JUS/eEFDU7/hJbXSSNHEDEtM0rzfw6/1SryVmWbFK+Uronb5vrSsvJCVN7ylpaipSGUamSBECEqpsPeZ3x/Pz9NhZndZkL3APu8/9jU7c2b2zOyZz3nOc55zDicIAkEQBEF8DJmnM4AgCIJ4AFR/BEEQXwTVH0EQxBdB9UcQBPFFUP0RBEF8EVR/BEEQXwTVH0EQxBdB9UcQBPFFUP0RBEF8EVR/BEEQX0Th6QwgjQ17c4fgnCK+BsdxtdqPuBlUf+ReEck6z/POJEN8AZtCz3Ecux8rA0/B4TuJ1BkoPLQI2fwqSoz4Dvakn1SvAOged+YNIaj+SB2Qqjxsg9VPj4oaAVjSfA2RoHMMhBCZTCZtAYiaBYhLQc8Pcq9Q6afVAGxQ9RfVFoiPIDXqOY6Ty+W0PIjqA8TNoO2P1AJWx4W7UN2HDfpV1CCw5xFCGiVU0+knGPuCIMCGXC4nhMhkMvgqqgmwPnADaPsjtYZVdmrj8zxvtVq/+eab77//XtQOoGd5MM+I+xFZ/axvx8/Pb9asWc2aNaNHZTIZexaUFqwDXAra/kgtEKoDKm+xWAghVqvVarUOHjw4NzfX09lEGgCffPLJ448/LpfL5XI5tADI3c4AbAG4B7T9EWehhgJr7LOfFovFbDZ36dJl//790K5HEClfffXVCy+8YDQajUajWq2GDgClUslxHM/zokYA4jpQ/ZFaIO3XpU4eqAMEQVAoFC1atED1R+wRGBhImCIEKg8bIP1QH3g4lz4Aqj/iLCKHD8g9z/Mmk4nnebPZbDab0ZGI1Agou9lsNplMNPrTYrGA24fWB4irQfVHagFr+/M8b7FYrFar2WyGOsBkMqH6I05isVhA/SEKSKVSEUKsViux1QmMuAKc5Q2pNazbBzz+gMViQfVHnAQKDHUYsjHBiHtA2x9xFir6bDcv1X2DwWAwGMB2Q5AagcaiXC6nnb3g+aHDAtDqdzWo/kjtoFY/NfnNZrPFYoGGvKdzhzQYoMAoFAqoAMBuYBsBGPLvalD9kVpDQ32gDjCbzWD+o+cHcR6IDzabzQqFghCiUCigEQC9vij9bgDVH6kZtqdX2utLDX+DwYDqjzgJxPyoVCoYLQif7ChxxNVgry9SO6Rjvmi8v9VqxfcWcRLagcSaFNj9607Q9kechbX64b1le33BlLO3tAuCiIDyA0VIJpNRhw8F3T6uBtUfqQXSSX7oOwwVAFptiJNAgQHTgeo+G/2JZcnVoOcHqTXSdjq+rkhtoXIPX6n/B3EbqP5I3REN9cKYH8R5oMyInP6k+lIQiEtB9Udqh8jwZ/fjS4s4D7X92bkCWb+ipzPY+Kmd39/e642vvS/AvpnU6U9HfsEnlgTESdiYH6n6YzVgD3ud4XXoJK9B/UUvs71/At95X0A6sQ/7FT0/SK1gY34AGPHLWhW45K89pI9F+qxqfHR21V9gBlvb+ypKjDRueFvgLF3IPcLKPZQocrewofrbQ7RqJmEWRXC+DhCrv0jl+btLclOrX2CW6qZ78LVv3MD/SyM7TSYTfJoZ4JCnc4o0GNhZAjmOg8JjNptlMhmtAGAKIE/n1Bth60WYF48egsmx6QKZwt05M6RPsgbbn26zEi+19VD9Gzfw/1oZbPp/sBggtQWKEKzuIgiCUqmEZV5A9wVBoBP9IxSR4c8zy6LRnc7MlVRN/UVBVwIz+IL28gnMZC+0ZYDVQOOGtf2tVqvRaLRarWD7w5gdCN1Dvz/iPNTvbzabCSF0jSBBEGBZUGgToPpTqI6zq97TObEJ0wigFae0+mQrg3/UnzXnWaEHysrK3nrrraqqKlK9kiDYB+AziKp/avhT6TeZTH/99Vfr1q09nVPEq/n7778JIYcOHcrNzVUqlbCeO8zxKZfL2Vn+wbD1dH69AumaB6yXn/p5IiMjZ82apVAoQPpF/h9iT/1ZeGbqLvh68uTJzZs349odiGOw7kdq5JdffiGEXLx40UEaLEh1Q6lUTps2ja0SpH4hyv+rv02fD+vhhQm8Pv/88+HDh2M/DGKP5s2bezoLiLcDUrN9+/annnpKJCYw1z9SN1544YVPPvkEOk5gD7jR4IFLF00T+/1J9TF4tAUAh+RyOTTQ3HpPSIMCiwfiDCgmLoKGUcHMqbQzQNoJXM32p0JPAznA5IfJez1yJwiCNEowmtNFmM1mUTAofKWNAEo1ZxAb00lHb4L0Yyg30rgZOXJkaGiokz1b48ePb9WqFbwUJ06cCAkJeffdd13XP1lRUZGVlZWamrpgwYJNmzaVlZW56IfcA3bkuhSTyQTxeNRvzwZrsCGaNkZ7CdXnb6G4/S4QxH389ddf169fd7Kz8e+//y4rK4PEZrO5rKyssrLSRRnLz88fMmTI1atX6ST4qampW7du7devH9rOCAsIPWGG5hBmJLA0/T+dA1TxaQAfjeY2GAzo+UEaN9nZ2VVVVXXodezbt69er3/11VddEZkuCMITTzxRWFi4fv36kpKSS5cuvfbaa3/++WdSUtKtW7fq/eeQRoDBYDAajXQQPuzkbS2YLC6vooAfC4Ob8o4gnqCiouL69euwXVRU9PvvvxNC9Hr9iRMndu/eXVRUZO9E1vbX6/WXL18GXS4sLNy1a1dOTo7RaJSeVVpaum/fviNHjsAYGntcvHixsLBw6tSpycnJwcHBDz744OLFi/v06VNYWJidnY1hkYgUqtjUfwPDMKUVwD/qT3t92RmX6BQu6PlBGjfPPvtsREQEWDnJycmPPfbYwYMHdTpdv379Ro4cqdPpli5datNhnZOTEx4e/v777/M8f+bMmS5dumzZsuX555+PiIhISEh45JFHoqKiCgoKaHqDwTBz5sywsLC4uLjBgwcHBwcvWrTIno6fPHlSEITY2FjasJDJZE888QQh5Pfff0f1R6RQxYZPOjZTmlImGuJLmGW72dW60fODNG6gtMM2z/NFRUXx8fHjxo07duzYF1980apVq2XLluXl5UlPFAQB7CzYtlqtCxcuPHfu3LZt244dOzZ58uSrV6+mpKTQ9ElJSRkZGbNnz87JycnOzh4xYsSbb745b948m1XLo48+evDgQZB7ypdffkkIad++Pfr9ERGCIBiNRlBstteX2JqO00a8PyGEzrLNNgjcdgMI4nGMRuPrr78+Z84cmHOmuLh41qxZeXl5Xbt2rVFz/f39T5w4ERgYSAjp1avXrl27cnNz4dDRo0d37tw5dOjQVatWwXViY2OvXbuWmZm5aNGioKAg0aV0Ot0DDzxAf1EQhDVr1pw7d65r166PP/44qj8ihU65SDdEJj4d8FWt19dmtA/t/vXkDSGI20lOTobhSBzHRUdHcxz3yy+/OONseeaZZ7RaLZ2Bq3Pnzvn5+fAG7dy5k+f5F198kQZiKxSK+Pj4yspKe358KvFXrlwZMmTIggULHnzwwS+++MLPz69+7xdpHFDPD+vDF8V6Ajbm+BTF/9CZHd17CwjiSVQqlVarpV81Gg0hhEZQOCY4OJj9qtFowJxSKBS//vqrIAgzZsyYM2cOTQA9xiUlJfYuaDKZli5dmpaWZjab586du2jRoqZNm9b2jhAfwWKxyOVyNswfBv1KKwAb8W2iNoLNSgNBGjf3MuGMUqm0dwgifJ5//nm2agF69+5t85TCwsJnnnnm9OnTQ4cOXb16dWRkJDijEMQmrPnuWL3tFnGR8wdtfwS5d9q3b3/06NGYmJinn36a7rx582ZRUVF4eLjUj280GseMGXPmzJkNGzaMHz8eZ0dAagRsf+rAtxnrCYgjPm0a/vZObhDAQPw1a9Y403F94cKFkJCQlStXQuJajf6/F/bs2fPOO++4+lcQj9O/f3+O4/bu3StjSEpK6t27t83RwgcPHjxz5kxycvKECRN8eU60kSNHtmrVysnEubm5LVu2XLlyJSHku+++CwoKWrNmjevyZjQaDx8+/Oabb6akpKxbt664uNh1v+UMIrkWbbMpbc/0QAHbv+FKP6nlQHyLxcImrtXo/zrD8/wrr7xy+/btefPmufSHEI+TmJiYnp7+8ccf63S6uLi4ysrK9evX79+/f/bs2ffdd580/fHjx3mer6iomDJliujQmDFjBg4c6CP1we3bt2/evOlkYovFUlFRodfrRduuoKqqatiwYYcPH4ZAGkEQ5s+fv3bt2okTJ7roF2uERnkCDlI6Un9yN96gxqt4MzAQH9YMqu252dnZPM+7bs5xg8Hw448/pqWl5eXltW3b1kW/gngPMpls586dU6ZMSU1NXbx4MSFEq9UuXbo0JSXFZvk8fvy4IAjbt2+XqnynTp0GDhzojkx7AXUe2Ny/f39Y3qTeswTMnTv30KFDc+fOnT9/fkBAwJdffjlp0qTp06c/9thj7dq1c9GPOgP1/tOv0jSOdI31Arkif+7BbDaXl5cHBgYGBgbq9fpr1661bt1aq9UWFhaePXs2JCSkW7duarXa5rkVFRVGozE0NJQQUlRUZDabdTqdXq8/f/58eXl5t27d2rRpI/25n3/++cqVK9HR0eHh4Q4ydvXq1aioKJhDu0E/4cYB6AvU9Pv27aPbQExMjMFgAEcNIWT79u00Qd++fekhus1eeceOHezVWrVq9fnnnxcUFFy4cEGtVvfs2TMoKMieaQJGpc1DdN52X+DGjRsGgwHeRL1eX1hYGBISotVqCwoKfvjhh9DQUHtvsclkKisr02q1MPzi2rVrZrM5PDxcr9efPXu2vLw8JiYmLCxMdFZpaenZs2c1Gk3v3r0dR9YeOHAgOjp69erV0BUPwwMzMzNPnjzpKfV33lUjHusrhYYNuTjPrgIG4qelpfE8f/r0aRiIP27cOHYgPkzqIsXx6P/w8HDR6P/vvvuuQ4cOPXr0GD16dGRkZJcuXX7++Wd7GWvRosX777+/fv36DRs2NGnSpN5vHKkVsNiIdBuAwHyq0WwC9pAomb2ryeXy8PDw+Pj4IUOGBAcHO2iVwrk28anlzseMGUPF9NSpUx07dty6dWtiYuIDDzwwatSo3r17d+jQgZ1Og3LixImwsLC0tDT4mpSUNGjQoEOHDoWGhsbGxo4YMaJNmzbsW2wwGKZMmdK6desnn3xy4MCBTZs2dTAPR3l5Oc/zcXFxbDUcFRVFCJEO3HMbjuN8CFM9NP4CJNgaiP/DDz+wA/EXLFhgs3pzPPq/devW7Oj/c+fODRw4UKlUfvbZZ+fOndu4cWNxcXG/fv3y8/NtZiwwMHDChAnJycnJycn2Gh9II4Yuu4HUgZSUlNzc3N27d586dWratGnXrl2bP3++MyeWlJTExcW99NJLZ86cycrKuv/++5csWULf4sTExMzMTLj4t99+m5CQAEO+bV4qODj46tWrb7zxBq2J//zzz8zMzBYtWjz66KP1cpv3jsi4Zw/54iqaAQEBJ0+ehIDrPn36ZGVl5ebmOtNWMhqNK1asmDt3Lry0paWl06dPp6P/58+fbzKZtm7dGhMTQwjp0qVLSEhIXFzcxo0bV6xYYdNS8ynzDUHqEa1We/r0aX9/f0JIz549s7KyLly44MyJRqPx3XffBUGPiYkpLi6eNm1aXl5edHT04cOHd+3aFR8fv2rVKkgcGxtbUFCQmZm5bNkyxyPsXnzxxdOnT1+8eFGr1e7evduzCxRLzX+b+uaL6jNq1KiAgAD6FTw/Tg7jTEpKovZap06dCCGXLl0SBOHmzZvHjh176KGHoqOjaeKBAwcGBgZ+/fXX6NZHkPpl9OjRIP1AVFTUlStXnJyQZvz48XS7c+fOhJBLly4RQnbu3EkISU5Opkc5jhs+fLher8/OznZ8TaVSWVVVZbFYbt68mZ6eXlFRUZu78Qy+aPuLAof9/PycXLxMpVI1a9aMPZEQArOfwgj+y5cvR0REsHNyVVVV/fHHH/WZewRB7L/FNRrdKpWqefPm7Ink7lt8+fJlQsj06dNnz55NE0D8d41vcXp6uiAIJSUlb7zxRkZGhk6nW758ee1uye34ovo7GIjvGAcFC0bwR0VFxcfHi5y5KpUK3bsIUr+47i0eP348BAix2JyHo7S0tKysTKfT+fv7gxc3LCzs3XffzczM3L17N6q/r9C+fXtCiMFgSElJYadh+fnnn1H9EaRBEBkZeezYsZiYmJEjR9KdN27cgHk4pOm3bds2e/bstWvXTps2jb7jGo3G39//zp07bsr0PeCLfn9XEBoa2r59+7y8vOLiYjqC/8SJEzExMWvXrkW/P4J4PwMGDCCEfP311+zOMWPG9OjRw+Zo4e7duxNC9uzZw0YM7tu379atWxD6IcVsNldUVLBTD9y6dauiooJeQZrAdaD61w8cx61Zs0YQhISEhD179vz0008ff/xxQkJCQEDAnDlz0PZHEO/nueee692794cffrh8+fLz588fP348MTHx4MGDc+bMsTnLUN++ffv37//111+PHz9+9+7dWVlZ48aNS0hI8PPzW7Zsmc2f2LFjR1BQ0OTJk+meXr16BQUFXblyxV4C14Gen3pj6NChn3zyycyZM4cNG0YIEQRhwIABb731lk6nQ/VHEO+H47jdu3dPmjQpNTU1NTWVENKsWbOVK1c6GEmwbdu25OTkrVu3btmyBfZ07tx53bp1HTp0cFOm7wEOYl1gDmez2Ww0Gi0Wi16vNxgMBoPh9u3bRqPx1q1bR44cSU9P37Fjh7RXE2HR6/UXLlz4448/dDpdt27dPJ0ddxMYGNixY8eTJ0/iHPSIPVJSUt5+++2vvvoqLi7O03mxTWFh4fnz5zUazcMPP8yG+TlI//PPP5vN5sjIyIiICE8V/nHjxn3yySeffvoprE0UEBCgUqkCAwPlcrlGo1Gr1XK5XK1Wg1+a4zi0/esZPz+/Xr16eToXCILUnbZt29Zq1sXapvcS0O+PIAjii6D6IwiC+CKo/giCIL4Iqj+CIIgvguqPIAjii6D6IwiC+CKo/giCIL6IWP05W5C7y7sjCIIgjYOabX+2DkAQBEG8HCdFW8Ga9vZScxyHs1QiCIJ4PyLdlzpyKDXY/nR9SLT9EQRBvB8Hcs8mIE6qPyGEncAaQRAE8Wac6a/9R/2hQpDL5TD9G+yRyWQwXx2sW4YgCIJ4M3K5XKFQgHRT9bdZGYg1HSx9cPWA4Y9WP4IgSEOBtdRh254XqNoMz9TLTxhXD3y9ffs2IWT8+PEqlcqVOUc8htFoFARBo9Hcy0WqqqrOnz/funXr+sqVk1gsFjf/IlJnYJXEMWPG1HlldkAul3fs2PEeL9KYuHjxIiEEpu8HLw7FZvpq6s+2Dug5cCGoA1QqVZMmTVx9D4hHqKio4DiuefPm99LDj8UDqRGtVnvvF7lz586NGzfOnj1rcymVRhylwjpzqFbTr926dVMoFAqFgvrwAXabXuof9acxnfxdYNkvq9XK8zz8YRkZGcOGDWvET9aXue+++5o2bXrx4kUvX5ZLocAliRCyadOmiRMnxsbGtmzZUuTfaHxjVFkFl9+FrtXl5+enVCr9/f39/Pz8/Pyo0NNz7V1WQVPIZDKQe/YEUatBJpMpFIpG80wRERzHgdXg6YwgiFNoNJomTZqAJnISSOOqAARBAE8M9OsqlUq6ZKNSqVSr1SqVSqlUKqpD13GUuv7/X/0FBsJUNVarle5x/w0jCII4AESQxrdQA5kNXPR0HusNGoQJnyqVCmx/tVqtUChA+ims54dtDbB1QDVDniaFUB/o+IVtHOuLIIi3Ad4IMIdpDyc0BQijdI2gDmA9+HDXcONg8tMNavvTVoKoVcRe8x/PD7uXPkS4BFzLfTeKIAjiBOD5YSPcQbjAQd341J8N41GpVDKZDHw+tBGgUqmgKQDVAFV/KuA2en1FsZ5g7PPVcf8NIwiCOID2goL601gXtiYgjUL9SfUBubS5Q/08KpVKZPWzRrzU8CeiXl/w+dChXoQQOA3n+UEQxAtRqVQajQa83iCF1OAFm5e6gDyd03qA9eNTcYd7B/VXKpXU9ofKQFoHsBcUR3xS6acdAPRX3XyrCIIgjgEXB/V+wDZoIm0BkEYxUQ0ryyw0+Ifa/vBV2hdiw+9PRZ/clX7R76HnB0EQ7wRc/CD6CoUCYh+pTxwUkDQK9QfYoCbauKHNHfocWG+YNPz/n5gfuovdgGqA53mFQmGxWNDwRxDECwFHB4x4AvWnbhDW/9M41J8N2eSqD/4CrxeNBKVfRR3gtj0/tMuXQnuAcaI3BEG8Fja0kcZBUvWnrg9PZ7MeYG10atHTzm16v6LYUAf93gqbl6YbGOaPIIjXQkWfjnfVaDQwApa6RBqN+gMi25/2bFM/Dxj7bH8ve5aNiE96XZs/gL2+CIJ4ITSwnfr9IeIFAoEat/oTphFACKHdAGxQEJtA+hDEE2bR69L+XpzlH7h582ZVVVVYWJinM2KXO3fulJeXP/DAA57OCIK4CTYokQbCswHv9NPTOa0fpPa7TDKdA9j+ojrPpvluo0qELl8ptcplQkJCaGgonTbOMRcuXAgJCVm5ciXP8ydOnAgJCVmzZo3r6huj0XjkyJFVq1YtXLgwPT29qKioxlMsFsvjjz+elZXlEVdYWFjYhAkTbD6QP/74IzAw8LXXXuN53mg09urVKycnB/11dWD48OH33Xefk4nHjh0bFBQEiwp89913QUFBLi2xFL1eP3369IyMDFf/UEOBDndS3QXMf5j7TKPR+DUu4L7obdJtOskP2+HBuv4d9fqS6sN9KdT8r+2/8tdff12/ft3JEy0WS1lZWWVlJSHEbDbTbVdQVVU1atSo7OxsnuehYyMlJeW9996bOHGigxpu/fr1JSUlEyZMcIMHbOPGjTNnzty6devIkSNhj8FgsKcsgiAYDAaz2UwIadGixYsvvjhjxozvvvsOF+GpLbdv375586bziSsqKqB4WyyWiooKWLHE1cybN2/9+vXPPvvs5MmT3fBz3o/IR029H7K7M+HQsa+ezmn9INUf1i3vwGS3KVxiz4+oAqBjfWtbAezbtw8CRmt1FiGkb9++er0e/r/anusMCxYsOHDgwIwZM2bPnq3Var/66qupU6fOmjVr0KBB4eHhNk+pqKhYsmTJvHnz3LN0Cc/zZrOZlfvAwEAnF8SYM2dOWlpaZmbmtGnT6lZRNZr3pLYcPny4bm2m/v37gyVR71kS8eWXX65fv97Vv9LgoJMQ0z5PGvzT+NRfhE2V56oH+TgomTWrc908P3/99ZfBYAgNDSWE6PX6a9eutW7dWqvVFhYWnj17NiQkpFu3bmq1Wnqi2WwuLy8PDAwMDAwkhBQVFZnNZp1Op9frz58/X1ZW1r179zZt2ojOun79+rlz59Rq9cMPP+xYow8cONCpU6fVq1fDgnBJSUnff//9xo0bc3JydDqdzdtMS0urrKycMGECu9NisZw/fz43N1er1fbq1att27bsUavV+uOPP+bm5vr7+z/00EM6nY4eEt1ReXl5t27d6B0VFhaWlpYKglBcXJyfnx8REUEI0Wq1rPpXVlaeO3dOq9V26dJFlNVWrVqNHDly9erVEydOtPl4HeDjiyOWl5cbjUYosdeuXTObzeHh4Xq9/uzZs+Xl5TExMfa6fEwmU1lZmVarDQwM1Ov1hYWFISEhUNTPnDkTGhpqs6iXlpZCie3du7efn1+N2SsuLp40adKoUaO2b99+7zfbaOCY1U7YuE+2AmhM6u/YnK/R2BchYx0+gi3qFvI/duzYiIgIEJQzZ8506dJly5Yt48aNi4iISEhIeOSRR6Kion7//XfpiTk5OeHh4WlpafCLycnJjz322MGDB3U6Xb9+/Z5++unw8PClS5fS/BgMhpkzZ4aFhcXFxQ0ePDg4OHjRokX2+hvKy8stFsvQoUNpaeA4LioqihDSvHlzm6cIgrB58+aePXu2atWK7rx69Wq/fv369Onz0ksvJSYmdujQ4Y033qBZKioqGjx4cI8ePSZMmDBmzJjIyMhZs2bduXMHjoruaOTIkewdPf/887A9d+7cXr16wY00bdq0adOmcHpaWlrLli0HDBjw0EMP3X///dnZ2SKL9dFHHy0qKtq7dy96/2vF6NGjaYd5UlLSoEGDsrOzQ0NDY2NjR4wY0aZNm8WLF9t8C06cOBEWFgYl9tSpUx07dty6dWtiYqJOpxs1alTv3r07dOhQUFBA0xsMhilTprRu3Xro0KEDBw5s2rTpokWLHP9ZPM+PGzcuKCjonXfeqdebbvDYtHwbMaSu5rhNXBUIZbVaqS0pCILVal24cOEPP/ywbdu2Y8eOTZ48+erVqwsWLJC+ToIgWCwWup/n+eLi4vj4+HHjxh07duzzzz9v3br1smXL8vLyIEFSUlJGRsaMGTNycnKys7NHjBjx5ptvzp8/3+aLGhwcfPny5RUrVlC3Umlp6QcffNC8efP+/fvbfKB5eXl//PHHgw8+SPeYTKYhQ4acPn36jTfeOH/+fGZmZkRExOLFi48cOUIIMZvNTzzxxIkTJ9577738/Pzvv/9+7Nix6enp0DErvaMvvviCvaO0tLQ5c+bIZLLU1NSsrCzIZ1xcXPfu3TmOy8zMTElJiYyM3LZt2+HDhxMSEiZPniyq6iIjIwkh+/fvR/W/F0pKSoYNG/bSSy+dOXMmKyvr/vvvX758OS11jklJScnNzd25c+epU6emTZtWUFAwf/58ejQxMRH+x/Pnz3/77bcJCQmvv/76nDlzHBhYb7311vHjxz/66CNcNlkE6CA7m43MDtImQgPF3g066N21h/uWSA0ICDh58iR4MPr06ZOVlZWbm+uMQhmNxrfffnvu3LlwS9evX58+fXpeXl7Xrl2PHj26Y8eOuLi4t99+G4Syf//+RUVFmZmZqampQUFB0qvJ71r9L730Uk5OzsWLFwMDA3ft2qXRaGz++rfffksIiYiIoA90w1/DjRYAAA7LSURBVIYN+fn5r7766ssvvyyTybp06dK+ffsBAwZkZWUNHDhw48aNly5dWrJkydSpU2UymU6n69Gjx9WrV9euXTt16tQOHTpI76i0tBTuKDo6unv37qdPn+Y4rnPnzrGxsfCL//nPfwghJpNpxYoVzZo1O3r0KDQFoI/kgw8+YDPcsWNHjuMOHTqE6n8vGI3GNWvWzJs3jxASExNTXFw8c+ZM+I9qPFer1Z4+fdrf358Q0rNnz+3bt1+4cAEOHT58eNeuXfHx8atWrYI9sbGxBQUFmZmZixcvtllic3JyUlNTly9f3qNHD+f7pX0E1m/h6bw0PNw3CGL06NEBAQH0a6dOna5cuQLBKjXywgsvUPHt3LkzIeSXX34RBGHXrl2CICQnJ3NMF8fw4cMNBoPUJSJCqVRWVVVZLJabN2+mp6fbe69KSkoEQWDVf//+/TzPjxgxgjYgYmNjDx06lJycTAjZs2cPz/ODBg2i6WUy2cCBAwVBOHfuHM2SzTty/BBycnKuXbuWlJQEPSKANFSpZcuWzZs3LywslDcWX6eneOGFF+g2dLHU+B8BzzzzDEg/0Llz599++w2awjt27CCETJw4kR7lOC4+Pl6v12dnZ0svdfv27bFjx/773/9esGBBYxqyhHgD7rP9g4OD2a8ajYbneWcGBKhUKrbPE4x0qDZ+/fVXQRBmzJgxZ84cmqCyslIQhJKSEseXff/99wVB+PPPP1esWJGRkREeHr58+XLpC1ZeXk4IYbttr1y5IpfLwYqn9O3bFzZ+++03f39/cNTQo127doVDoP4O7sgBV65cIYRAPzDF5tgunU536tSpyspKVoOQWlG3/who2bIl+5UWdYVC8euvvxJCpk6dOnPmTJoA4pttltgZM2bcuHEjOzsbpR+pd9yn/hBjUwcchI1WVVURQp5//nlpQGTv3r2l6UtLS2E0rL+/P7xOoaGhq1ev3rRp0zfffLNs2TLpKeCNNRgMdE9lZaWfn5/odqjW6/V6WGqOPVpSUsJxHM1kHQJhaR5o7zHNHicZ1wfTstY25gdhqdt/BDgo6lBix48fzzbggD59+oj2CILw8ccfN2/efNSoUbAHGhD79u176KGHHn/88ZUrV9Y5kwjiPvV3Be3btz969GhMTMzIkSOp/t68ebOoqCg8PFza9fHZZ5+9/PLLa9asmT59Oj3apEkTf3//27dv2/yJFi1aEEIuX75Mrfvw8PCCgoLc3NwePXrARfR6/cKFC7t06TJx4kSdTnf48OGffvqpW7du9CInT54UBMFeRKmTwHCEo0ePzp07l+7Mz8+XRmrm5+c3a9bsXvQLcRGRkZHHjh2DEkt33rhxA0qsND2bjBBisVjy8vL8/f0feOABUQsDQWpLw25OQqDO3r172b7+pKSkPn362BwtHB0dbbVa9+7dy8ZXHDhw4O+//+7evbvNn+jVqxch5PLly9Rl/9hjj3Ecx/YrbN68OT09/e+//6ZZOnDgABuTevz48eDg4H79+jmv/tJOi5iYGK1We+zYMZPJRHdu2LBBlKy8vPzWrVui8QeIlzBgwABCyNdff83uHDNmTI8ePUStOkIIx3E7qrNlyxZCSGxs7I4dO9g4IgSpAw3bPExMTExPT//444/btWs3bNiwysrK9evX79+/f+bMmTbnbOnbt2+/fv327NkzYcKE0aNHC4Kwc+fOXbt2qVSqxYsX23St9u3bVyaTXb58me6ZMWPG+vXrly9f7ufn16NHj71792ZkZLRs2TIxMZEQMnv27IyMjCVLlmg0msGDB5eWlr7zzjtXr15dtWoV2+ntAIgu3bRpk1KpHD58OK0wgoKCXnnllQULFjzxxBOvvvpqy5YtP/roo4MHD4pOz8/PJ4QMGjTIqSeIuJfnnntu3bp1H374Ybt27Z566qnKysp169YdPHjw5Zdfdn6WIQSpFxq2+stksp07d06ZMmXp0qVLly4lhGi12qVLl86fP9+mlHMct2XLlkmTJm3ZsmXr1q2EEJ7no6Ki0tLSoqKibBrmwcHBXbt2ZW3/gICAw4cPjx079uWXXyaECIIQHR2dnp4eEhJCCGnatOnBgwefe+456p9RKBTvvvvujBkznOy4e+SRRwYPHpydnX3q1Knr16+zXQjz58+/c+fO8uXLhw4dSghp06ZNdnY2hAxRLl26RAh58sknnfktxM1wHLd79+5JkyalpqampqYSQpo1a7Zy5Up7JRZBXAcHUTcWiwXGZxkMBovFotfrDQaDwWC4ffu20Wi8devWkSNH0tPTd+zYER8f74z7wmq1CoIArmcY7SXqmbSXQJSYTQZIr2a1WgsLC3Nzc9Vqdc+ePYOCghy/SFartaCg4JdffjGZTO3bt4+IiFCpVA5uasOGDdOnT79w4cK//vUv9iIwGUNoaGh4eDjMqkpzaLFYLl++fPHixdDQ0M6dO9NOZifviBBy/fp1mUwmCpSih06fPh0WFta5c2dpWOfQoUOvXbuWl5dX2z6Gpk2bBgcH//bbb7U6C6kbtMQ+/PDDzZo183R2Gh6bNm2aOHEi9LcFBARotVq1Wu3v7+/v769UKv38/GCVc7reYb0Mjm1kuMr2Z1WJ4zhpD6S9BKLEUnWTXk0ul+t0OjYos8a8hYeH25vTTUpSUtLq1aszMjLee+899iJt27a16V7nOE6pVHbq1KlTp042f12aXvp82IklpIfi4uJsHvrtt9/279//6aefYln3cuwVHgRxG842NmFMnW9WoRqN5r333tu8eXONYwg8zqpVq/r37z969GhPZwRBEG8HXY1O8eSTTz711FP//e9/vXmNs+Li4qysrPfff9/TGUEQpAHQsHt93QbHcf/73/8grtTTebFLaGjon3/+6elcIAjSMED1dxacNgdBkMaE91qyCIIgiOtA9UcQBPFFUP0RBGnw+GAs4r0jVn/pWmJ0xRyP5A9BEMQedB0rura7p3PUkEBNRxCkwYO6XwcUdKVgYv8J4pNFEKThggpmE9u2v2hd4PpaQh5BEKQekS5o7ukcNSQceX7o08RniiCIF2JPo1CynOEf9YfnKJfLaUUKlSrM7YNjnRAE8UJAo+gnlS+CdUBN2J4EnxDCNqZQ+hEE8ULkcjlrsIrwdO68HdszPdCaU8ZACJk0aRK7QJV09UEvR7oELkK5c+dOVVVVu3btPJ0RBLENK+iwECYrUKKuSg/kr6FRTf1FDh/anlIoFJGRkdHR0Xq9HpYigQmfeZ6nG+RuZdDgqoRGD8dxgiBIHaOiEOnAwECe59kKkv6hNDGCuAFaJqkZSocc0eFHwcHBbdu2bdeunYKBChepPnTJg/fizTia5Y0d6tWyZcuFCxdWVlaazebKykqDwWA2m41Go9lstlgsJpMJ6gDAbblHnISOiKGvk1wu53mefbusVivdL5PJLBYLiD6s/kbrAEEQcOgf4lKow5luKJVKlUoll8s1Go1Go1GpVAEBAUqlMiAgwKa3B0XfGf5ZUQtWVWTNf5lMplQqYRlCWPvQZDKBTBBCYC1DhUJhtVpVKhXP81QmPHlDiC1AtQlTDYDKk7uNAPj3eZ5XKBTwFVp4hPlDaeWB6o+4AdAi0BmlUqlUKuVyeZMmTaAmoJ+wX+SxoFfw7C14OQpOEtcP6g8OH5lMBmtjqlQqQoharZbJZODwgX/Fchew+oW7eO6OEDH0L2btd7lcDosJ02Sg/kqlkud5OMrqPr2U1ImEIPUL6+oBnQHzHz7VarVKpVKr1SD9IFDyuxBGxzx9H96O2PMj6ukFCxFqAkEQWPWnLQBYDp76fFD9vRBqxYONz9r+dD/7h1Kbi0hsf3yvEDdAixn1MSgUCvD8gDFKzX/YgKM07pM1ZD19K97LP54f2ICHRQ1DWG0cvDpwiNbAVqtVrVZbLBar1Qp2IjX/PXQviF2o1U9tf7rBpiGEyOVyOEr9QqS67kOvgKduBPEdQMTB+087dam3B2x/aAeA+U9rCFEF4On78F7+sf1FnSfU6ieEWK1WqAbAKqS2PyQD9YejaPh7J6LoHfhnWdufdudQ9aeKL9og6E5F3AIVItahr1arwRUBok8VXxTy7+m8Nwyq9foSQiAOBKQBHjHVdIvFAv4B2M/zvMlkAnufpkH1907Y/lsQffDg0c5e7m5MJ7tfFN6DnWmIOxFNOgC2P/U9gPrTpgDsl/p/PH0TXo043h8eGfT+gQTQdx6ePhwCh4+fn5/VaqUOHzAeES9EFPMDfjyq+5BGZPtD+4BuUH8R2laIe+CYSQdoVA/oO+3ppS0AlUpFj4rcGJ6+D+/F7lhfjgn2h8cNQkDdweDzgU9CCEb6ezNSFz+N6YS/lTr6aZVPK37oIkb1R9wPq0Ii9Wc9QqD4dMQvOv2dRNzrS9394ApQq9XgBwC/MASEAHRsl4BjfRsIoghO+O+o7hOmY4DKPWzQRjS+Tojb4JihiFTTwQMB3b9gg0JNoFQqqalKqwEsro5xZPsrFAoY8AkSIJfLzWYzGPusu5/cdSWj+ns5othN1lPHuoboayM19vF1QtyGTfWnJj/soWOSaIQ6Gv7OI7b9CdO5B4pPnybrDhbpPqv+iNdC/yDq7pdG6FLdh38fdmJ/L+IpROpPCKFzzrOWPgQlSqUfS6wDqkV8ijagyQ9KQR0C1NVDHT4Erf6GA8eE+UPMLmEqAwroPv3r8RVCPAXrcuSYyX9ELn52P8F5fpzDrueHjQmhvX80NJCqBqTHWM+GAlu1g8SLOgMIY+nTF4xg1Y54Atb5A3uoz4cwfcL0KN3vofw2MMQRnza/0uhvdi4HVu5pQAhqhDfDMcN9RX8WG9LDHhX1AeD/i7gTjhlsCHtEAQgyW+u6kOotBsQett9n6smhEi/y7dg09lEavB/2faCKT5jp/kl11z/74uH/i7gfqUkqcuuLKgObZyE2cTS/P7n7cG3afWgJNnRs9veylQE1/z2SPQSRInLoS11DiPM4peBS17DjZIjXci8vCf6/iPtxXGLZRoBbstOowMkaEQRBfBH03iAIgvgiaPsjCIL4Iqj+CIIgvgiqP4IgiC/yfyBPN+aJhebfAAAAAElFTkSuQmCC;" vertex="1" parent="1">
          <mxGeometry x="355.5" y="68" width="367.78" height="113" as="geometry" />
        </mxCell>
        <mxCell id="bIEeLJ-2RRx14gN9JyyU-3" value="" style="shape=image;verticalLabelPosition=bottom;labelBackgroundColor=default;verticalAlign=top;aspect=fixed;imageAspect=0;image=data:image/png,iVBORw0KGgoAAAANSUhEUgAAAX0AAAF3CAIAAADGgAxgAAAPDGlDQ1BJQ0MgUHJvZmlsZQAAeJyVV3k41G33P1/G2Mc2xs5YsmQb+5Z1kJ3sJAxjGcuYxr6ECiVKSlERKdJCaRFKQoWKqERZnqypkMjSovn9oafn+r3v9V7v9Z4/7utzPuc+9znnPn/c9wHgvUqi0aKYACCaGkd33W6B9/bxxbMOARNIAAAnqJGCY2nmLi4O8B9l9TUgAAAvVUk0WlTRemG7F/5lW/RjNwXy+Orif/YDAAAM3dvHFwBRAQBs2CY2AwBs0CZ2BwBsYhwtDgAJBwBscDiJDICkAYAK3d2VCIDUAAAmbBM3AgAmaBN3AQAmITgsDgAZAkDzU8kUKgDrHADahBwSGwyAUQEAMjk2OBoAcxQA6Y2OjiED8AYCgGIwjR4HwHsQAOS8fXzxmymT1wAMUQDot/9wEdIAtbcBxKX/4RTuAwiTAK5v/YdbdgUEABDc89hQLU0AAEC4LABYxhiMZXkA1mMAG4UMxo9KBmPjPADzCMCDqOB4esLv+0KQHoD/pm/W/FuYEQAmACZ1ZidUOMse9CnW62zt7EMcnziXuDkwQjzSvKp8hvzmAg5Yd0EvnL9QsDBFhCYaKxYnHi+RJJkqlYnPks6SOSB7SO7IlhPyZxQqFGuUrm1tVO5UGVAdV1slcGjIaGppeWin6lToPtFbN1AyJBmd2TZqImVKMbtjwUXcZXnTmn873abfTt3+sMMXJwfnuh08rlFuTzzEPKO87vtgfAN21vh99ScGHArsCeIJdiYfC3kexhFuTomPqIscjxagWsYk0q7ufhuLiiPEByTkJ95Lmk3hSzVJo+0pT+/MGMmc2Du9b27/YtZS9mrOxkFULtchvjzBfInDike0CoyOmhfaHNtx3LPI94T/yeBiSknkqcjTlDOU0oiy8LOkct8Kt3P2lWbnNS4oVSlUb7koU4O/JHFZ5IrgVb5a3jquayzXfl1fr1++MX9z+tbw7f6GZ3c6Gpua6puv3r1071zLyftHWg89yGrb257SQX9IfUR9HNVJ6iJ247onntx4mvHMrkeoZ6b31vOsPtd+qf75Fw9eFr4KGFAd+P766WDxEOmN6ptvbx8PF4x4jkqMTo3V/kV/p/vu23jzROqk4eTqVMN02oz5e+b33bP5H5w+8n58+al4znteeH5ooeSz96Lw4sCXwiWnZe7l7q9ZK+YrjNX7aynrOuuL32q/R/5Q+jHzs3Ij8JfUr7eM3QwGABOKmR+FY8GiBVl52DjZ2dg3OL5xfuaa4n6D6eFp463nq+QvEsjGJgpG4nYJOQsTRQxEdcVUxNUl1CR1pUzwVtKmMvqyqnIqW1TktyoQFFWUCFt1lYkqdqreahT1ZEKuRplmg9Zz7QVdPj1tfTeDFMOLRoPGbCY6prvNas1nicqWkVbXrNdtrGzz7IYcNBzTnPpdxHaEuTa4Ix6Onse8RnyUfGk7b/it+esH7AlsJW0EG5ETQu6ELoerUSIiLkd+jJan+sWU0F7TBWLd4wrjnySyJTkkH0l5lDqZ9mnP5/SVjG+Z3/f+2s+SxZUtkCNyQOKgXC7hkGGeRb7tYecj3gV+RwMLyccijscU0U7QT8YUU0top6JPh54JLPUuczlrVa5boXpOtVLlvNIFpSrFavmLcjWyl+Quy16RuipeK1onck34umA9/w2emzy3MLe5G7jv8DXimoSbhe+K3cO3KNxXa9V5YNBm0e7U4ftw56Ptj/GPlzq7u0q7o5+YPxV6Ov/sUc+p3ujnxD6JvtX+nheVLxNfOQ3IDKy87h4sHYp5Y/6W7+3o8NWRtFGbMb6x4b8q30WMq40vTjROHp0KnzadEZqZf/9w9tQH6kerTyKfPs7dmz+8sOuz2ucfi51fji35LystL329u5Kz6rImvDayXvmN8p3wff3HvZ+ZG1a/ML+eM6I3+8+0xryI+sryGT3POs82zz7GMcz5iuspdwumjqecN48vkZ8s4IAlCPIILuP6ha4IZ4n4iRLEWMQGxask4iWtpHikRvFV0tEyhrJo2ddyl7aky3soqCiyKb5X6txao3xYJU51p5qFuhpBXINdY01zWqtf+4HOdd0yvVz9BAOSoYPRtm14Y7TxosmA6W2z4+YJFhSil6W1lb61/HZhGxabVdsPdm/suxwaHKudSpxzXZJ2hLl6ujm4G3moeEp54by5fZh8vvp+2Dnh93bXK/+egI7A+6SWoObgG+TzIbmh9LCAcBuKeoRoJGvkStRUdD/1fkwdrXL3SfrB2KS48Hj/BKdEkyT1ZOkUbCoqdTnt3Z7e9PsZVzKL9mbsC93vnKWdjctBctYOzB+czH17qC+vM7/58LUjNQWlR/MKM47RjpOLPE5Yn9QulisRPMVy6uvp6TNDpT1l989eLS+rOH4uuzLtfMwFUpVX9Y6LtjVGl2Quw+WRK/eultTS65yvqV3HXF+o77lx6WberZjbbg06d3B31hpHmlqay+6m3yO1EO9vaWVpnXzQ0VbdntVBemj8SPTR6uO+zqquvO7SJ21PJ54xekWfG/T59qe9KH3Z9Wr+tfig81Dem2fDAiOBo01/CbzLGP86uXcaM3Nx1uUj36fX83WfT34pXC5bqV+b+Y7/GfgrncEA2Hz7AADQugAl8QDe4wCuVQAFGwCKXAC4GgAXbgB3A0DaCwC5kg2IRcHf7wcAMAEb8IEkqIIpuEMU5MB5eAjTCAeiifghB5FG5AOTBJMH0xGmJ8xszDbMecz9KFEUGVWPYrA4s5xn+YZ2QV9mRbGSWB+wSbPtZ5tld2Sv5xDlyOKY4/TibOfS5CrjZuWO557AOGNaeJR5SnhZeWN5x/lc+Fr4lflLBFgE4gWmsW7YNkGCYAWOH5eN+yYUJfRO2Ef4uch2kQei20QbxHTFmsVNxNslbCT6JL0lp6XoUgx8vrSk9E0ZW5lx2VQ5rFz9FpctS/LFCiYKk4r5SgZKM1tPKFsqL6tUq/qrCav1qecSrDRAo0UzQ8tCm1m7XSdb10FPUp9Jf8Fg0LDd6Oa2KuMik2zTRLMI82CLXUQ3SxsrC2vT7WY2ZrZmdtvtXRx8HUOcaM77XYp31Lt2u417IJ4KXo7eiT6VvoN+PLsM/YMDigLbScvBCmT/kOLQnnA0ZXtEbmRPNC/VM6aC9pluHpsX91eCdmJu0kiKauqBtNl0y4yyzB/7PPc3ZUvlpB94m2t66Ha+3xHxgoHCU8eDTsie/FhSdzq91PGsQPn4uYbzhVXkizaX1K5gr/6oW7j+/sbUrbGG2caVu1wtsq1ObTEdGY8qOpu7x56x9hL6vF8cfdU1iH5DHM4bHXknP5E2NfB+64c9nyYX7BYvLXOuxK5Nfbf+eY/B2PxJAAcIghzoggOEwF44Bx3wAeFHTJBopBwZYOJmsmHKYXrMzM7szFzMPI5SRqWgOlmEWcJZmtEYNAXdyarEmsv6ic2F7Ra7JPsB9i8cvhxdnDqclVz8XPu5VrnDuN9inDFtPDo8l3lleU/z8fId4PvFn8C/JEARGMfuxL4WdBJ8grPGtQkZCzUK6wnfEdESqRPVEL0mpiHWKG4i3iFhLzEgGSC5IJWGZ8eXSG+VfiDjITMnmyMnKde0xXPLqnyxgpHCsGKmkoLS861JynjlLpVYVWnVV2pZ6lrqU4RiDRuNDc0GLaq2nPaQzlFdRz2c3qr+hMFTwwaji9tOG+eapJhGmQWYe1nsINpYGlvpWWtv17bRtdWxM7a3dnBx9HUKdU52yd9R7drqNui+5inhZeEd7VPi+8yPZRfB3yvgQOAt0kQwlmwTkh5aHzZDkY0gRZZHjVHFYwJoVbsXYjXjkuMfJmKSPJNLU6bTdPfkpL/IlNobta8pizublFN34Huu46Eb+baHNwpqCv2PixQ9O7m/RO/UypmGMmq5YsVs5fULidVmNQKX3l+5V3viWkJ90E3727p3NJrU7mq3GLd6t5E7zB9pdIp2cz3ZeLbeu9D34cXXVz8HOd+IDmuPev2VOl45+XIGNav9MXLu1sLaF+PlvSsv1pW+03+++tN/ThACeTAAZwiHLKiCTphHcAgRiUWqkTEmISYPpmKmMWZ55jjmxyhxVCJqgEWfpQLNgU5Fz7OGs06wBbKNse9iH+MI4pjmpHAuciVyMbhzMThMJY86TyvvDt5pvj38WP46AUeBeWyhoJ7gCC5faJvQnPAFkSBROdEBsSPiNhKIxAPJdCkLPArfKX1UZqesouyKXMeWk/KRCkRFnOIXpWdbLyrvVfFTNVGTUWdWnyZ0a9RqFmvt1Q7VcdLdpqehr2dgbGhmZLvNy5hkEmmaYLbf/ITFReJNy3arAetPNihbYTsde3eHWMdjTrech3egXbXdAtwLPLq9EG9znwzfTj/BXQ7+6QGNgQtBSsFkcnXIbJh8eBSlORIV5R59jvqVZr+7ms6I84lvShRJSkx+kaqdVp6OzgjP7Nunvb88G5OTcGA4d/uhtnzPw2sFhYVax0aLMk7KFD86FXlGrLTtbHAF57mm8xFV2OqumszLulfmaquukeuVbizcqm1IbrRvlry71NLbeqctuX32odOje52ErstPJJ8e70H3Jj9f7vd50ftKf6B8EIZ83lwfRo14jJ4dG3snN+43cXjy7tTQ9Mp77KzyB7OPTp9c55znHRfsPpsuan7BL3EsfV7u/1q3kr9KWbNY510f+3b1e8oP259CP0c3yn51MBgAm/MSAABwEGOiYuh4B6Llfxnu/leJjor/OwYPAHBRg5ycAYAfAB7GJrhZAQAvALwOpVjb/sYzZJKlPQCIA8BqSjjRCQC4ABD+ULq166YvIhlBsnMBAAwAQgiherj95k1ocRauACAMgLiExFr9zYenhLt7/d6fEhlj7/r7zIPkEMvfOSBF1CgnBwDAASAXKHG27gCABUCawRpIQIcwCAFVcAAiWII1TAEdwv7onjAFdKD80TdXVQgFEtAhAUIgFiJhBugQHUDZRwf87x3dEAx0IAH1b4ZwhfCB8POPnQgxEAUx8I/H5oqH4D8WCpAh5t/5AMo+evSN0ISSmGRDz/DeuTtzf87YrCfoT7b2EAUhEA90CAHqv9Tw/yPB5iwNAIDmBSgNBABoXU/N/Ne+x4UkxQEAEGNoyXRKWHgc3pxGiwpRwdtSg9VU8JoEgj78H2BPQl8ykUZvAAAACXBIWXMAAAsTAAALEwEAmpwYAAAgAElEQVR4nO3dZ1wUV/s38JktsHQWUKp0UFEEBcvtbUvsFQvB3o0Rg9LUWNJtd2KNEBR7iyiRWBBLTALWgGJBUXoVpYmsAsvWmefF+WeeydIWWGYXuL4v/Iy7Z2dmZ3d/nHPmzBmcJEkMAAAYxFL3DgAAOh3IHQAA0yB3AABMg9wBADCNo0whhb5n6IoGACA4jjf5SF315w5JklS4UMv0R1q+mwCADoSeMmgZx3GFhXpeVbcuQ6UMIpfL0X8JgsD+HUkAgE6OihgMw1gsFovFQgs4jqPletPnX/UdkoYgCBQ0x48f/+WXX6jQYeS9AADaE3qyrFq1ysfHh8VikSSJoockSYX0qSd3MAyTy+Uod+Ry+b179+zs7Hx8fJRptgEAOrOTJ08mJSVNnDiRzWZjGIbjOJU+dP8/d6jmlfwfBEFIpVKCIHr37j19+vS6LwYAALo7d+7IZDKRSKSlpYXqMRwOB9V30L+o2L9yBzWvqOiRSqUymYwgCPwfanovAID2gcPh1NbWSiQSqqNHLpfX7ej5VxWG6kimQkcsFqN+ZQAAUAZKD9RUQhWXuv3CirmD+nRkMplUKhWLxbW1tVKpVOE18fHxt27dUlhXVVVVRESETCZTfv8ePHiQkJDQZF91TU1NcXGx8qsFAKiRTCZDVR6ZTEb1FCv8zP9/7lA1HRQ6EolEIpGIRKK69Z3Lly9fuXJFYUUCgSA4OFgkEim/f9euXTt37lyTuRMaGrpmzRp0Qg0AoOFQbqAAQfUdlDv0X7piVzHKJxQ9IpFILBbXrcLQT3vRH1eIBrFYXHef6LWnJocCnT171s/P79ixY9DWA6C9QP0zEokE9dXIZLIG21nUsB0Mw6gqD2pq1fubLy4uHjt2rIGBgaur69WrVxXWe+/evb59+5qYmFhbW0dERKBny8rKpk2bZmJi4uzsvGHDBvpqq6qqpkyZ8tVXXykkl1wud3d39/T0VMXRAAAwQS6Xo8oOqsTQBwNSQVHP+SxU36G6eOrNnejo6LCwsKNHj/70009z58598eIFtcbS0tIpU6bs3bv3k08+efr06dSpU21tbSdOnLhs2TIul5udnV1YWDh16tQ+ffqgl3z48GHq1Kn29vZffvmlwqn6OXPmkCRZXl5eXl7eRscIAKBa6Dy6jo4O6t+Ry+UcDgf796jj+vuV0b9Up3TdVffr12/p0qXdunXbvn07juPx8fHUSs+dO2diYjJr1iwejzdw4MDJkyefO3fu1atX169f/+qrr7p27ert7X306NFu3bphGPb+/fsJEybw+fyDBw9qa2srbAUNtYZT+AC0I1R0oNChRufQy9QzFBCVQ1mF2mZ1f/bDhg1D4xG5XG7v3r0FAgFVJisra+DAgdQZeycnp6Kiory8PBzHe/XqhUJkzJgx//3vf3EcP3funFAofPr0qUQiaeRttPJAAAAYg85QobpLQx249YzfoV5G1X3qvri0tBQlC0EQqampQ4cOxTAM9UCbmprm5uZSJVNTU21sbExMTAiCKCwsRA/+9ddfycnJJElOmjQpKSmJz+dv2rSpobfBZrPhujAA2guUG/TOnbplFOs79HNM9Z54R65evZqVlUUQxKFDh/h8vpubG4ZhqBU3duzYJ0+e/PXXXyRJlpaWJiQkTJ8+vXv37s7OzhEREbW1tW/evFmwYIGuri5JkpaWlhwOJyws7ODBg3fv3m3onVDXtgIANByVO/TrzBXKNHY9eiPnuYcOHTpq1CiCID58+HDs2DE2m021swYNGvTVV19NnjzZ2dm5uLh40aJFU6ZMYbPZx48fnzlzZlRUFJvNXrp0aY8ePai22ODBg+fNm+fv75+UlKSrq6uwLdTOIggCogcAzaeQG/VGz//Nv4M6dNAAZaFQWFVVVV1dXVVVJRAIwsPDJ0yYsG7dOupnT13DlZ2dbWdnp6uri0JHJpOhKg9BEO/evcvNzXV0dDQxMaGuhZfJZPn5+ba2tlwul8VioQoY1V4jSRL1GSlo5CkAgEYJDQ19+fLl4sWLzczM+Hy+gYGBrq4uj8fj8XhcLpfNZqPfexPznNZb30GvZLPZPXv2/NecGhwOVcDMzMzU1FRhLjIul+vs7Pz/rw2j1V8aqctANQeAdkqpfuXmavz0dr3PwhlxAABUJQAATIPcAQAwDXIHAMA0yB0AANMgdwAATIPcAQAwDXIHAMA0yB0AANMgdwAATIPcAQAwDXIHAMA0yB0AANOazh24cRUAQLWamAcDa+Y0FGKxeN68eTU1Na3YJQCABunatevx48dVu86mc6dZ3r17d/ny5YiICJimCwDN1+S8NB8+fFi9evXRo0dVOw2WinMHwzCSJBcsWEDNAQYA0EzKTIZVVla2evVqlW9a9emA/0PlawYAdAxwPgsAwDQmcufAgQNv3rxReDAlJaXujdUbFxUVRd2BqyHV1dWpqalVVVXN3ksAAFOYyJ2tW7cWFBQoRMxff/118ODBZp2k37ZtW0ZGRkNRRRBEQECAhYXF6NGju3btunPnThgBAIBmYiJ3qKSg33FY4UaCMpms3phA9yBVWE+9Lly4EBsb++zZs8LCwoMHD3733Xfv3r1r7a4DANoAQ/07N27ccHV1NTAwGDdu3KtXr+hPVVRU+Pn5denShc/nL1y4sLKyEsMwgiC2bt1qbm5ubm7u5+eXl5dHf0lycnK/fv1u3bpFT6J79+6NHz/ezs6Oy+XOnTtXS0srPj4ebnAMgAZiKHfOnTt34MCBe/fuCYXClStX0is+S5cu5XK5ubm5mZmZJSUlISEhBEGcOnXqwIED165dS0lJkcvla9eupWpDSUlJPj4+69evHzp0KP2s2bfffrt79240buj27dsSiWT48OHMvDsAQLMwlDsLFy4cMWKEp6fnunXrfv/9d5FIhB5//fr11atXAwMDjY2Nzc3NQ0JCzp8/L5PJjhw5smjRIg8PDxsbmx07dkycOBGVv3fv3sSJE7dt2zZjxgyFgUyGhoa6uroEQURGRvr6+m7atMnMzAxO5wOggRga3TdixAgWi4XjuJeXF0EQ1PmmvLw8Ho/n4eGBAsLJyUkkElVWVubk5Pj7+6MHHR0dHRwc0PLOnTutrKwSExPnz59fdytpaWlLliwRi8UXLlwYPHgw3GgUAM3E0C+zpKQELaSmpvbo0cPMzAz9l8/n19bW0p/V0tIyMTExNjamTpkXFBScPXsW9dSEh4efPXv2xIkTt2/fVui7yczMHDp06OTJk//+++8hQ4bAhRoAaCyGcufAgQMSiaSioiIyMnL8+PFUTaR79+4ODg779u0TCoUkSZ49e3b69OlsNnvKlCm//vprYWGhRCJZt25dTk4OShlra+u+ffsGBASsWLFCKBTSNxEZGTlkyJDFixcLBIKysrLS0tLa2lpm3h0AoFkYyh1LS0sHBwdnZ+fs7OyVK1dS3S4cDufIkSPR0dEuLi7Ozs4FBQXbtm3DcXz9+vUWFha9evVydHT88OGDv78/vdH05ZdfSiSSLVu20E+93717NzY21tbW1uYfZ86cgfNZAGggJvp38vPzWSzWhw8fysrKHB0d0SWjQUFBgYGBbDZ7yJAhmZmZ6enpRkZGtra26FkjI6NLly6VlJTo6OgYGRmhRlNKSgrqJDI0NMzKysJxnB5G9+/fV0gZVJiBN6h2r169Ki8vV/deaBw2m927d29ocWsgJnIHRYmxsbGxsTH1IBUZOI7r6Oj07dtX4VVsNtva2lrhkXqXG3qk8xgxYkRVVRWXy1X3jmiWioqKqKioqVOndpI/P+0IzFbREYjF4itXrvTr10/dO6JZRo0aJZFI1L0XoB7K5k6zzknD5DsMk8lkbDYbDrsCuEBPYymbJkp+hKiHhX5RFWAAh8PpzM3MhrDZbGhhaSYVn8+Cj1ld6JeeAApJkvCd1EAworcjgApmvVAWw1gKDQS50xFAO6te0M7SWJA7HQS0s+oF7SzNBLnTEUA7q17QztJYkDsdAbSz6gXtLI0FudNBQDurXtDO0kyQO6DDgnaWxoLcAR0WtLM0FuQO6MigncUwuVxOkmSTU0FA7oAOC9pZGkvNVxLGxcWdOnUKvhmtBPdHrdfbt2/Dw8NjYmKgyqNg1apVQ4YMUeMOqDl3fv/99/fv30+cOBG+Ga1x5coVde+CJqqqqho0aJCXl5e6d0Sz/PLLLwkJCZ06dzAM69ev34oVK+DeD62xYcMGde+CJpLJZKNGjZo5c2b7/avWFr+LJ0+eqHydzaX+3EHTlULuaI5Hjx6VlZWNGzeu3p9rVVXVqVOnli9fnpKS0kgxJcnl8qysLENDQysrq1bscv04HA6Hw+k80922I/BrB4oSExMvXrzYUKebQCAIDg4WiUSNF1NGbGxs165dR44caW9vP27cuOrq6havqiEw9ZdmUn99B2gaf39/rNEaPvoxN1mscSKRaN68efv37//kk08KCwtHjBgRExOzYMECqJt0Bqqv7zTrGkUY3a+BDh8+HBwcTBBEREREaGjoihUrTE1N7e3tT58+TZVBNyAKDg7GMGz//v2omJmZmb29PXX7oKysrDFjxhgZGbm7u588eVKhZvT48WMejzd79mwul+vk5DR69OirV6+2xZlNCDINpPrcQY1qJQvD1Ywqodrr0d++fVtQUIBhmEAg2Ldvn5ub24sXL3x8fNasWYNGhaEtlpaWFhYWEgRRUVERHh7u5ub28uXLadOmhYSE4DheW1s7fvz4Pn36pKWlofy6efMmPVa8vLzS09NRKNTW1sbHx0+cOFGF7wL757DAKA0N1Cb9O839GUCnciup/Hp06t5kAwYMCAgIsLCw+OKLL0pLS9FdutDny2Kx0E+axWJ5eXn5+/t37dp1zZo1FRUVJSUlly5dEgqF3333nZWV1ZAhQ/z8/KKjo+kRoK2tzefzMQxLTk4eMGCAvb399OnTVftNQJ3KKlwhUBWN6N8hCAK+H62kwhYr6r4hCIIgCCsrKxQW+vr6HA5HKpVitCotFU/W1tbo7l0GBgYymUwkEmVnZ1dUVLi4uKB1SqXSjz/+WOFTFgqFoaGhv/322/r161etWtUW98MgCALaWRpII3IHtJJq21n0igz27/4RuVyOHpTJZPR4wmh/PFDly9TUtFu3bunp6eiFb9++JQiCfrWUXC738fHhcDhPnz41Nzdviz88VDsLokfTdIpaxqNHjxrps6yqqoqIiJDJZAKBICIiovUVh5qamuLi4laupFnarp1Fvxk0lW5121kKL5fL5SNHjiwuLr5y5QqHw3n9+vXYsWOvXbtGL/PgwYPHjx//+OOPOI6Xl5eXlpYKBAIVvgWs1e2s6OjorKyshp59+vQp+lKdPXs2MzOzxVtBKioqSktLW7mSdqRT5E5iYuKlS5ca+qMnEAhWrVolEokqKyt37NjR+rpDaGjomjVrGB450kbtLIw2BIZKt7rtrLrx5OLiEhYWtnDhQmdnZzc3tyFDhsyfP5/+Edy9e1cgEPTt27dbt242NjY2NjZz5sxR+fnN1rSzTp48mZqa2tCz8fHxkZGRBEGcPn06LS2txb3XNTU1Y8eO7dKlS/fu3b28vG7fvt2y9bQvnaKdhUaaNILFYnE4HHt7++zs7NZUHM6ePRsTE3P58uVp06Yx2WOl2nbWxo0b0VQG1AKGYYaGhrW1tWhGm9raWg6Hs379evRjoxZQMalUilJp8eLF06dPz8zMtLKysrKyUjggoaGh6DQ8Bcdx1dbaWtnOunTpUiMfIkmSJEmy2WxUrMXpFh4eXlZWlpiY2KdPn40bN27evPnmzZstW1U70inqO2ikCUEQCiNNTp8+Tf1gZDJZYWFhv379xGJxQ8UaH5CCYZhcLu/Tp4+npyfG7EhZ1fbIslgs9PunFqitoF8X2lwjxdACjuPGxsb9+/e3sbGp+wNGWU+n8kEVrWxnzZ49G7WkfHx8jh49Onz4cAMDg4EDB+bk5GD/fL5yudzPzy8uLo4kyUmTJh0+fHj48OH6+vpUMQzDoqOje/bsaWhoOGrUqLotstevXwcHBw8YMIDH4w0bNiw5ObkznPjvFLlTXl5eWFiIYVhlZSUaaZKamjpt2jSF1pBYLH758iVBEPUWQwNS3N3d0YCUdevWKQxIwTBszpw5mzZtGjhwIHRkUtR7KFrTzsrJyamsrMRxvKioaPPmzdu3b09MTMRxfPfu3agTHX36+fn5Hz58wDCsuLh469atW7ZsSUpKIkly165dBEHcunXL39//m2++KSgoGDNmzMiRI8ViMX0r+/btW7BgQUFBwYULFzZs2LB06dLO8OXpFLlD5+3t7e/vb2FhsXbt2oqKivLy8nr/vNQtdvnyZaFQ+P3336MBKTNmzFAYkIL9082B43hn+OpovlaOG6ReLpPJAgICBg0a5ObmNmfOnLS0NKpXC9XRqHQLCAgYMmSIm5vbvHnzUKdPeHj4jBkzfH19+Xx+aGioXC7/66+/6m4rPj5+7dq12dnZbXF9rAbqFP07dFZWVui7oq+vj2GYSCSqtypet1hWVlZlZaWDgwMqQBDEyJEjmdtv0HytbGdRL+dwODY2NujPia6urkgkksvlVDuLHk8oNXAc19fXF4vFbDY7Ozs7Nzf34sWLaJ1yufzdu3d1t7Vo0aJFixZdv359/Pjxo0ePdnd3b/FutwudLndazNTU1Nra+sWLFyiP0IAUqNdouFZ+RvSXowUWi4USh2pn0eOJ6tuiUsnIyGj58uVbt25FZQoLC83NzembGDt27Jdffjl06FAMw8aMGWNoaPjixYsOnzudrp2l5LewbjE0IOXatWtsNhsNSImLi2uDHQQqo8J2Fn09VD963XYWtUDF0+TJky9duvT69WsOh3Pt2jVPT8/379/Tt+Lq6rp79+6ioiKCII4dO1ZbW9u/f38Mw6Kjo589e4Zh2Nu3bw8fPoymsn3w4AFVdWrXoL6jLFdX1/3798+fP9/MzKykpGTp0qWLFy+G+o4mU2E7i1oPVZGpt52F0U7bo3havXr106dPXVxcbGxsxGLxsWPHLC0t6VtZtWrVxIkTHR0djY2NxWLxoUOHnJycMAzbuHHj8uXL+/Tpk5+f/+mnn44cOdLAwODXX3+Nj4+fOnVqi9+UhsBRihMEIZPJxGJxbW2tUCisqqqqrq6uqqqqrKz8+eefJ0yYsG7dOmU+wuLiYnt7+5qaGiXP7AYGBhoYGHz//fdtOtoFjdBns9nUAnpcJpOhASkymYzD4ZAkKZfLORxOQ8VIknz//j0akGJpadnQeV+FlzPA0NAwPj4eJhJW0K1btx07dsyaNatlL0cXheA4Ti1g9X2XGi+G1lNSUlJSUtKzZ09dXd26G5LJZNnZ2WKx2MXFpd4CqrVs2TJ7e/svv/xSmcJlZWXm5ubU9TFNCgoKSk9PX7ZsmampqbGxsb6+vp6eHo/H4/F4XC6XzWb/X5S36h20E9QhUzh2VDhSo2+pkSn1FqMGpDRxbyC4xlUztHLcIPWXg/4npO53qfFi6HFra2srK6uGdoPD4XTv3h1T95gDJnWK3FGtzvPlaO/a4gL3Fmv8a9PZvlTK/mVu1t9wjfq8OwPVXifRYcBh0VjKpomSo/6pyeiatxPQMGmdtrjIoAOAeb80loo/leZWF9H1xzDpf+vBTNX1gjFWmknNfw3gr7RKQIOiXjC/ssaCWmhHAO2sekE7S2PBp9JBQDurXtDO0kyQOx0BtLPqBe0sjaXmE96FhYVJSUkXLlxQ7260dziOz5w5U1tbW5nCYrFYJpPp6em19V6pXU1Nzbp16zZv3qxkeUNDw549e7asftSO6pv379+nplVQFzXnjo6OTo8ePUaNGgWV4dZAf9KVPIa//fbb27dv582b18Y7pX7NOiz5+fmxsbFTpkxp451SP1dX108++US9+6Dm3DEzM3NwcFDy4i+gEpmZmfn5+WvWrIGuaLp79+7Fx8e34LDAV7cF1Jw7aC4lFosFHx5jqGvQ4JjToZkr4LAwAw5xZ6TyOzd0DGw2Gw4LMyB3Oh3UA9qO+kGZgTqD4LAwA3Kn02Gz2XBquS40gY6696KzgNzpjKCdVS9oZzEGcqfTgXZWvaCdxSTInU4H/qTXC9pZTILcAeD/QDuLMU3nTrMmx2lZh2VzR0y8f/8+IiKikR379ddf09PTBQLBzz//3Po/Yvn5+SKRqJEC4eHh6E61qpKbm3v27FmFB+Pi4pKTk6uqqg4cONDK9au2Xzk6OjorK6uhZ9FngWHY2bNn694dvGWePXsmFApVsio6uVwOVR5mNP2Dp6bIVwa6N4Pym2/ZvF8VFRW7d++WSqUNFfjpp58ePnxYUVGxZ8+e1vzGnj592q1bN3d3dxsbGx8fH3QPIwX379//888/VXK507hx4x4/fkySZHZ2dnh4uMJvICoq6tatWwYGBn/99df9+/dbsyHV9iufPHkyNTW1oWfRZ0GS5OnTp9Gte1u5uStXrvTr1y8jI6OV66kL6juMUaqi0azvCv2uiU1q2cfs4OCQnp7eyGWQBEEQBOHo6JiRkdGayZ4/++yz8ePHZ2Vlpaen5+bmnjlzpu6hWLduXWBgIP2N1E1emUymTLampKSgaDM0NKx7PxOZTEaSJEEQq1atWrNmTYv/Mqu8X/nSpUuN3NEJfRY4jl+6dGnKlCmtvBDvzZs3a9asIUlS5aOKoV+ZSW3Sv9PW8ysXFhZ6eXnJZLK8vDwvL6/Tp0+7uLjw+fxly5ZJJBLsn29Pfn6+h4eHWCzOy8vz9PQ8efIkKrZ06VJUTCQSBQcHW1paWltbf/7552KxmL4VsVgsFou/+uorc3NzMzMzT0/P5ORkhZ9NSkpKXl7ekCFDMAwjCGLr1q3m5ubm5uZ+fn55eXkYhlVUVPj5+ZmZmfH5/IULF6J7Re7fvz8kJGTFihVmZmb29vanT58mSXL06NHl5eVz5sy5evWqvr4+n89ns9m3b98eMGCAubn5vHnzqqqq0NaHDBmSk5Pz4MGDltUdVD5+Z/bs2VevXs3NzW3ksyBJ0s/PLy4ujiTJSZMmHT58ePjw4fr6+gMHDszJyUHriY6O7tmzp6Gh4ahRo+ptkREEsXTp0o0bN6K7VqnwLWDQr8wsNfcrt6ydJRKJXr58KZVKJRLJ8+fPz58/n5CQcOTIkfPnz9+/fx/dLw3HcbFYnJGRwWKxpFLpy5cvL1y48Oeffx45ciQ6OvrOnTskSa5Zs+bhw4exsbFJSUlZWVmBgYH0rWhraz969Khbt26PHz+OjIy8cOHCrFmzFH6xT58+7dGjB6pSnTp1KiIi4tq1aykpKVKpdO3atQRBLF68mMvl5uXlZWZmlpSUBAUFYRiG7obYu3fv1NTUadOmhYSEEARx7tw5IyOj8PDwkSNHOjg4BAUFiUSiyZMnf/zxx3fu3HFycrpx4wa6gAjH8Z49e964caPF8aHadlZOTk5lZaVUKm3ks8AwLD8/H/WCFRcXb926dcuWLUlJSSRJ7tq1iyCIW7du+fv7f/PNNwUFBWPGjBk5cqTCnwEMw3bt2sXn8+fMmdNGE3JDO4sx7XJ+ZarSge7huWfPHisrq2nTpnl4eFAdDdTd2lDzhCTJ3bt329raTps2DfUOiESiY8eOff311/369bOxsfniiy+io6MVampo9/bu3btx40ZTU9O6bZ9nz545Ojqi9Dxy5MiSJUv69u1rY2Oza9euCRMmvH79+vr16yEhIcbGxubm5sHBwefPn5dIJARBeHt7f/bZZxYWFmvXrq2srHz37h2fz+dyuSYmJtra2np6eoMGDbp9+7aRkdG2bdtcXFy+/vrrLl26YP9kdPfu3Z8/f96ytobK21nU9FpSqVThs0AfAfVZULP/BQQEDBkyxM3Nbd68eajTJzw8fMaMGb6+vnw+PzQ0VC6X//XXX/StPHr06MiRI+Hh4aghr/KAgHYWkzrCja6sra3Rt1lPT08kElG1AGoB9XZbW1ujZT09PaFQWFBQIJFI5s+fj77B6PcsEon09fUV1n/8+HG5XB4QELBs2bIXL17Qn8rMzKRuH5qZmenv749+Y46Ojg4ODnfv3uXxeL1790YFnJ2dq6urKysrWSyWpaUlSg20uZqami5duuA4Tv0ycRy/fv36kCFDUF8Gm80ePHgwFTS2trZ5eXlyubwFPz+Vt7Po9xG3s7ND+8/j8UQiEUEQVDuLfh9xKysr7J/PQiwWs9ns7OzsvLy8K1euoHWKxeJ3797Rb/U5d+7cTz75JCUlBR2lpKQkAwMDR0dHVb0LaGcxqSPkjjJ/9jkcjpaWFlpGXy8+ny+TyS5evOjt7Y3juEgkKioqoodOamrqypUrExISUPV72rRpJ06cEAqF9FqPlpZWUVER2gFTU9OioiL0eEFBwf3793v37l1VVVVSUmJnZ4dWqKur27VrV+zfLR2qkqVwX11dXd3s7GxqWy9fvvzPf/6DtlVWVubs7NzC49UG10lQcYlaghiGUc0raoEeT1RnP1XLMDIy+vTTT7du3YrK5OXlWVpa0nvTrK2t7969e+/ePVT+0KFDBEGsWLFChe8C2lmM6UTjBqmfN/oldOnSZdCgQcePH5dIJBKJ5IsvvggJCaH/xevZs2dBQcG+ffvEYvH79++PHTvWt29fhZNonp6eWVlZ6FWTJ0+Ojo4uKiqSSCTr16/Py8tzcXFxdnb++eefhUIhSZJnzpyZNm0adX6H6qSgWg08Ho8+LGX8+PHPnj27efMmSZLXr1/PyMhA57MwDMvNze3du3fLfiRt185SaKVSZ53qtrOoBTTrDYZhkydPvnTp0uvXrzkczrVr1wYMGKAwJOr333//448/bt68efPmTR0dnYMHDy5fvlxVbwGDaZiZ1Ylyhw59yY4cOXLv3j0nJydbW9unT5/+9NNP9KoTm83+7rvvvv76azs7Oysrq7S0tIMHDyrUrUaOHEmdeZBbCAMAACAASURBVNmwYYO5uXnPnj2dnJwEAsFnn33G4/GOHj0aFRXl6urq7Oz86tWrH3/8Ec0spfAtRykwderUuXPnxsbGomcHDx68YcMGHx8fR0fHtWvXTpo0idp6enp6nz59NOR8Vr0VGeqMQb3tLIz2O0etyICAgAEDBvTo0cPJyWnFihWRkZEWFhYKu03BaKGmKtDOYhKOPn6CIGQymVgsrq2tFQqFVVVV1dXVVVVV6MzLhAkTlJyKtLi42N7evqamRslRM4GBgQYGBt9//32zvkMkScrlcg6HQy2gx+VyOZq9UC6XoxU2Xgx1haanp6MzRFSLgL4hgUCQnZ1tZGRkb2/P5XLrFvD09Dx06BDq5ZHL5SUlJTo6OkZGRtTPQyQSpaenGxkZ2draon0gCAKd6EErkclkaNMEQVRWVhoZGVG7ShBEaWlpRUWFq6srKsNisZ49ezZ79uwnT55QLcdm+fTTT3NychR6bVtD4WhTD9I/C3RwFBawfx8KuVz++vXr4uLinj17GhgYNDLShzpiqnoLGIbdvXt30aJF9IYtwDCsrKzM3Nyc+oibFBQUlJ6evmzZMlNTU2NjY319fT09PR6Px+PxuFwum83+vz9RbbzbbQLHcfT9phYQ6pdMLTReDMdxLS0td3d3rIHZv3Ec5/P53t7ejRT44YcfwsLCTpw4gTpNUO81vYCOjo6npyf95QofIbVvLBbL1NSU/hTqgbawsKC/fO/evZs3b+ZyufUdm6ZR7SxV9WUoHG2FBxtZwP59KNhstq2tbbdu3ZoMlNaMBQWaoJO2s+jQHM8tLjB27FhnZ2c0ILCRNbR8//798pqaGktLSx8fnxavU8Pn/YI7i3QG8HejtXAc/+abbxjbnJ6e3tatW1u5Epj3C6gX1Hc6HZj3C6gd5E6no+HtLNAZQO50RtDOAuoFudNJQTsLqBHkDgCAacrmTrPG9cHwCk0GNR2gdk0HBLp8hrrer3Gow1ImkykfPTdv3qx3/lDQRh48eCAQCIKDgzvbSJnGZ+0pLi5mbE9A0+nQrJpOc+dXnjNnTt15J0CbGjFiREVFhaGhobp3RLMYGRk1MlsrUC3VN4ia1cgaMGBA//79Vb4PoHH0eW0ABY4JY9TcEdPkNQoAgI4HzmcBAJgGuQMAYBrkDgCAaZA7AACmQe4AAJgGuQMAYBrkDgCAaZA7AACmQe4AAJgGuQMAYBrkDgCAaaq/PoskyeLiYphGEwDGaGtrt+wmjk2qrq5ui9WqOHekUimGYY6OjqpdLQB1NWvGlY6Ny+Win15bMDIyUvnF2yrOHTQJRklJCUw5CNoUfMEoeXl5AwYMqKysbKP1a2lpqSd3lN8quvs1/Q7fAIA2paOjg+O4np6eunekGZTqVyZJUvlZBzkcDoQOAKARyqZJ43PTUqj5lVu+RwCAjk7F59HrbZEdOHDgzZs3Cg+mpKRcvXq1WSv/5ZdfCgsLGy9TUVFRWlrarNUCABjGxPidLVu2FBQUKNwb9+bNmwcOHGjWPVW2b9+elZXV0D12a2pqJkyY0LVr1+7du3t5eSUkJLRmnwEAbYfRcYP0lFHoMJLJZPU25RSabI009yIiIkpLS+/evVtSUvLRRx9t27YNbhQFgGZiKHdu3Ljh6upqYGAwbty4V69e0Z+qqKjw8/Pr0qULn89fuHAhOh1IEMTWrVvNzc3Nzc39/Pzy8vLoL0lOTu7Xr9+tW7fodZ83b94EBAQMHDiQx+MNHTr08ePHDdWMAADqxVDunD179tChQ4mJiUKhcMWKFfSayOLFi7lcbmFhYW5ubklJSVBQEEEQJ0+ejIiI+P3331+8eEEQRGhoKFXTSUxMnDRp0saNG4cNG0bvTtqzZ8/ixYuLioouXry4cePGhQsXNuvOXwAAxjD0y1y0aNHQoUPd3d3XrVv3xx9/iEQi9Pjr16+vX78eGBior69vamoaEhLy22+/yWSyo0ePLlmypHfv3hYWFj/++OPkyZNR+Xv37k2aNOmHH36YNm1avX3YCQkJ69aty8zMtLS0ZOatAQCai6HcGTFiBIvFwnHcy8uLIAjqxsR5eXk8Hs/DwwOFiJOTk0gkqqyszMnJcXNzQw86OjouWrQIVV527txpamqamJjY0FDG+fPnp6WlXbp0aePGjc+ePWPm3QEAmoWh3CkpKUELz58/79mzZ5cuXdB/+Xx+bW0t9Wxqaqq2traJiQmfz6dOmRcUFERFRaHOmoiIiF9//fX48eMKnTsYhk2YMOHWrVsYhrHZ7HHjxhkYGLx8+RK6eADQQAzlTmRkpEQiqaioOHTo0JgxY6jaiqurq729fVhYmFAoJEny3LlzU6dOZbFYkyZNOn/+fGFhoUQiWb9+fV5eHkoQCwsLd3f3zz///PPPPxcKhfRNuLq67t2799WrVwRBHD9+XCgUent7M/PuAADNwlDuWFhYODg4ODs7Z2VlBQQEULnD5XKPHj167tw5FxcXZ2fn/Pz87du3s1isDRs2mJub9+rVy9HRUSAQrFixArWz0H2Nv/76a5FItGXLFvppdX9///T09B49etjY2ISGhoaFhTk7O8NNkAHQQExcSFVUVIRhWFVVVXl5OTVFRkhISEhICIZhQ4cOzcnJSU9PNzIysrOzQ88aGRlduXKltLSUx+MZGRmhB1NTU9GCoaFhbm6uwla6d+/+/PnznJwckUjk4uKiq6vLwFsDALQAcxdwGhgY6Ovr1/uUlpaWu7t73bqJubl5szbB4XBcXV2x5lxADwBgHqMXjjcSB6pKCkgcADQfjKwDADANcgcAwDTIHQAA05rOHSVn/EJgnB4AoElN5w66vkHJ1eE4DpMNAgAap+z8ysqvEeZXBgA0rk36d6DKAwBoBPQrAwCYBrkDAGAa5A4AgGmQOwAApkHuAACYBrkDAGCamgfabNmy5ZtvvmnWkGjQkfB4PGqSf0B3+vTpuXPnqnsv2oqac6e8vDwgIGDNmjVwz5mOR5nho25ubkeOHPn4449hAhO65cuXl5eXq3sv2pD6BxYbGBhYW1tD7nROOI7z+Xxzc3PIHToej6fuXWhb8GsHADANcgcAwDTIHQAA0yB3AABMg9wBADANcgcAwDRlc6dZ57lh3i8AQCOUnV9ZySHFaGbC5s771a4H7yQnJ1+7dq2hKRmrqqoiIiLkcrlAIIiIiGj9yOyampri4uJWrqSjevjwYVxcXEPPVlVVhYWFoc/i559/buVnIZfL09LS3rx505qVdFpKza+s/OqaO7+yXC7Hmjl1vKZJSkq6cOFCQ7lTWVkZHBxcW1v77t273bt3S6XSVm4uKChozZo17fqItZ3ExMSLFy829GxlZeXq1aulUum7d+927drVmmN48eJFU1PTjz76yMbGZsyYMUKhsMWr6pxUX9FoViOLzWarfAcY5u/vf+DAgYbSGcdxiUSCYZiDg0N6erq2tnaLN3TmzBk/P7+TJ09C6DTk888/j4yMbLKYg4NDVlZWi3sDRCLR3LlzIyIiioqKsrKyUlNTY2JiWraqTksjGjjtup118ODBwMBAgiDCw8ODg4OXL19uZGRkY2Nz6tQpVABNdF9YWOjp6SmTyfLy8jw9PU+dOuXo6GhoaLhkyRIUTCKRKDAw0Nzc3Nzc3N/fv7a2VmFDJEm6u7v37dsXa+dHrO0cPHhw9erVGIaFh4cHBQVRn8Uvv/xCL1ZQUODh4SGTyXJzc9FnYW9vb2BgsGTJElRbz8zM/Oijj3R1dd3c3KjPkZKcnKyjozNz5kwOh+Pk5DR+/PjY2FjG3mPHoBFf33b9B/zdu3evXr3CMOzDhw/h4eG9e/fOyMiYMWPG2rVr5XI51eElEokyMjKkUqlEInn58mVMTMydO3eOHz/+22+/3b9/nyTJL7744tGjR3FxccnJyVlZWcHBwQqHZc6cOZs2bfLy8sLa+RFrO2/fvi0qKsIwTCAQhIWFeXh45Obm+vr6BgYG0ouJxeKMjAySJKVSKfosEhMTT506FR0dfefOndra2lGjRnl7excUFBw6dCgoKOjmzZv0lw8YMCA3NxdV1Wtra2/cuDF58mQm32YHoBG5097hOI4qIAMGDAgICLCwsPjiiy9KS0vRJcXoTyjV84XjuFQq3bNnj5WV1bRp0zw8PFJTU8Vi8eHDh1GsdOvWbePGjVFRUQrhgrYC5wqVNHDgQH9/f1NT07Vr11ZUVDR0eTdJkmFhYRYWFj4+Pp6enmlpaZcuXRKLxVu2bOnSpcvgwYP9/PzOnTtHf4mWlpahoSGGYQ8fPhwwYICLi4uvry8Tb6kDgS9xa1Hn+wiCsLKyQg/q6+tzOBzUi0zdUIy+YGdnh67ARhPQ5ObmCoXCBQsWoAdJkmSz2VKptN6UoWIONMLKygodJQMDAwzDGpnlx9raGsMwHMf19PRqa2szMzMFAkG3bt3QswRBjBo1SuElQqEwNDQ0Ojr622+/DQgIgIvpmwtyp7VYLBZqTNXNArlcjh6UyWRUgwstEASBnmKz2TiOm5qacjicuLi4vn374jguEomKiorqnQyBOgMI0dM45bNA4UiamZlZW1vn5uai/5aXl6NjTpHL5ePHj9fR0UlLS+vatatK9razge+uClBf8Ua+642UIUmyS5cu3t7ehw8flkgkEolkw4YNISEh9XbidIAzgBpu1KhRr1+/vnz5MoZhBQUFH330kcKYoKSkpNTU1B07dpAkWVpaWlpaKhAI1LSz7RXUdzTF8ePHp0+fbm9vL5VKe/XqderUKYgYtXB1dY2MjJw1a5a5uXlxcfGnn366ePFieoHbt2+/e/euT58+1CNjx469fv0643vajkHutNb69etJkmSxWNQChmGGhoa1tbWoDVVbW8vhcFxcXBQW0MtjY2NRf42rq+uTJ0/S09NxHO/Zs2dDobNnzx5qK0DBl19+qbCAYZihoSE1qhMtdO/eHXW9UQvIjRs30MKiRYt8fX3T09NtbGwsLCwUtrJ+/fr169e32ZvoFCB3WouKAIUsoJIFLeA4rrCAUPmC47iWlpa7uzvWaHsNEocZ+vr6Xl5e0GHcRiB3NAt80TUHfBZtB/54AgCYBrkDAGAa5A4AgGmQOwAApik775eSGpqGpomdgHM0AHQmSs37pXzHfiec9wsA0FxKVTSaVYuhrn5UBgzJBaATapMGTqeaXxkA0FxqHjeopaW1a9eu8PBw9e4GUBexWOzr68vlctW9I5qlpqZmxIgR6t6LNqTm3NmyZcuKFSta1hsNOgChUKirq6vuvdA4OI47ODioey/akJpzR1tb29HRUb370GnBdQBAXdR/fRZ8+wHobKBDFwDANMgdAADTIHcAAEyD3AEAMA1yBwDANMgdAADTIHcAAEyD3AEAMA1yBwDANMgdAADTIHcAAExT9vos5afIIQhi7ty5Ld0foAJoFkfQSVRXV0ul0rCwsDZaf5cuXWbNmqXadTadO2gSUoIglIkeiUSCYZhQKISrPQFghpaW1rhx4+7cudMWKxeLxXFxcTNnzlTtL7rp3GnWZIBcLpcgiPPnzys/1SlQIZg3FqhWWVmZubk5SZJM506zoJt/s9ls+AEAABoC/coAAKYxkTv79+9/8+aNwoNPnz6Ni4tr1gynZ86cKSwsVKZkSkqKUChsxi4CABjERO5s27atoKBAIWLi4+MPHTrUrDtnbd++PSMjo8mounLlyoABAzIyMlqyrwCAtsdE7lBJQT+/S5IkPXRkMlm9GUS/JY4ylaPi4uI1a9bIZDKYKx4AjcVQ/87169ednJx0dXVHjx796tUr+lMVFRW+vr58Pt/AwGD+/PmVlZUYhhEEsXnzZlNTU1NT0xkzZuTm5tJf8vDhQw8Pj4SEBIVwIQhi4cKFmzZtgrNpAGgyhnInOjr60KFDiYmJYrF45cqV9IrP0qVLtbW1CwsLc3Nzy8rKQkJCCII4derUwYMHb968+eLFCwzD1q1bR9WGkpKSpk6dumnTpmHDhimc29uzZ4+Zmdns2bNh9BAAmoyhesHChQtHjBjBYrHWrVs3Y8YMkUiEHn/9+vXVq1fv3r1rbGyM43hISIivr29kZOSRI0cWLVrk4eHBZrN37Nhx69YtVP7evXthYWG7d++eMWOGwsCiR48eHTp06M6dO1DZAUDDMVTf+eijj1gsFo7j3t7eBEFUVVWhx3Nzc3k8nqenJ6qhODs7i0SiysrKnJycXr16oWRxdHRcvHgxWt6xY4eZmdnff/9dt0Yzb968mTNnPn/+PD4+niCI5OTk7OxsZt4dAKBZGKoaFBcXo4Xnz5/36NHDzMwM/dfExKS2tra4uNjOzg49q6WlZWJiYmxsjE6B4TheUFBw//59dIXIzz//3KdPnyFDhsyaNWv48OH09LGysrp9+zYaLU4QBDpZ5uTkBG0uADQNQ/WdyMhIiURSUVFx8ODBsWPHUk0kV1dXe3v7sLAwoVBIkuS5c+emTZvGYrEmT558/vz5wsJCiUSyfv363Nxc1IVsZWXl6em5cuXKlStXKozQ+f333//444+bN2/evHmTx+Pt379/+fLlEDoAaCCGcsfCwqJbt24ODg5ZWVmrV6+mcofL5Z44ceLs2bOOjo729vb5+fk//vgjm83etGmThYVFjx497OzsBALBypUr0UtwHMdx/NtvvxWJRJs3b6afemfTYBjGYrGadWUZAIAxTLSz8vPzWSzWhw8fysrKHB0dUb9vUFBQYGAgm83+z3/+k5WVlZ6ebmRkZGtri541MDC4ePFiSUmJjo6OkZERipKUlBTUSaSvr5+VlYXjeEPJIhAI4AIxADQWE7mDosTY2NjIyIhq+FCRgeO4jo4O1bVMYbPZ1tbWCo/Uu9zQFgHz/v77b19f32YNQwfM27179+zZs9W4A4z+PhvpbYGOmI6hqKjI3Nw8MjISGrkaa/PmzXl5eerdB6gXABXT09Pr168ftHM1lpmZmdqvIlLqj1KzKiP0K6oAAKAupXKHJEnlq80cDge6VwAAjWjGbO3KFEP1N6jyAAAaoeLOP+geBgA0CU46AACYBrkDAGAa5A4AgGmQOwAApkHuAACYBrkDAGAa5A4AgGmQOwAApqn5gobc3Ny7d++q/So15nXUmSIePnxIv1kIAPVSc+6Eh4fHxcU5OTmpdzcY1oFzNj093cTERN17ATSdmnNHLpd/8skn33//PUzX0jGEhIQkJCSoey+ApoNfO+hQoqKiMjMzG3o2Ojo6PT0dw7Bz5841UkxJ1dXVz58/p27KBJQHuQM6lBMnTrx8+bKhZ3ft2vXgwQMMw06ePNlIsSYRBLFy5UpTU9ORI0eamJjs3LmzxavqnGCiHNChxMXFKdNmv3z5cmua9jExMXFxcZmZmVZWVlFRUf7+/kuXLuXz+S1eYWfT9KEnCAJmtwDtxYwZM+Li4nJzc93d3U+dOmVvb29gYLBkyRKFOaH8/Pzi4uIwDJs0adLhw4cHDx7M4/G8vb2piYejoqJcXV11dXU//vjjjIwMha3cvXt3woQJdnZ2XC53/vz5HA7nzz//ZOYNdgwqbme17EwNdCoDVcnLy/vw4YNUKn3x4kVMTExiYuKpU6eio6PRjWQp+fn5Hz58wDCsuLh48+bNu3fvRndJ+vHHHzEMS0hI+Oyzz7Zv315aWjpu3Ljhw4eLxWL6y7du3bpnzx60HB8fL5VKR44cydRb7AhUP+9XsyYbRGM9OupgFqBGJEmGhYVZWFj4+Ph4enqmpaU1VDIwMHDgwIGurq5z585Fvc5hYWGzZs2aPn26gYFBaGgoQRC3bt2iv0RfX5/H4xEEceDAAV9f32+//RYaWc2i+v6dZs2vDHcdAG0H3X8Nx3E9Pb3a2tpGiqGeBKpYZmZmQUHBxYsXUQG5XF5RUaHwqrS0tHnz5snl8qtXrw4aNKit3kMH1SYNnObOrwztLNAWlPxe1S1mamq6cuXKsn88fPhwypQp9AIZGRmDBw/28/N7/PgxhE4LqPkH347aWQKBICIiopGLAGJiYlAHZHR0dFZWVuu3mJ2d3fqVgBaYOHHib7/9VlBQgGFYbGysp6dndXU1vUBkZOSwYcMWLlxYXl5eWlpaWlqqUJ8qLy8/fPgwGtrz4MGDixcvoq7Ps2fPpqSkMPhWNJSac6cdtbMqKyt/+OGHRqpyu3btSkxMxDDsxIkTL168aOXmrl+/3qNHj1auBLRMUFCQt7e3k5OTvb398uXLjx07Zm5uTi9w69at2NhYS0tLi39ERUXRC+Tn53/66adv377FMOzXX3/dsmUL+uO6fv3669evM/leNBOM31GWvb19bm5uI0FJVYXQCdoWe/bsWVhYWGxsbGtW0mlRtQn6qdUbN26ghaSkJLTw6NEjhQUMw5YtW7Zs2TIMw7hc7pkzZ3bs2FFcXOzm5qarq6uwFfqr6tW/f39qB3bs2EE9np+f37z300FBx4qyCgsL+/XrJxaL8/LyvLy8Tp486ezszOfzly5diipBbDYbdU+isSF5eXmenp6nT59WKCYSiQIDAy0tLa2trQMCAhRO0GIYJpVKbW1tJ0yYwPx7BHTW1tZeXl51Qwe0HuSOssRi8bNnzwiCkEqlT548iYmJuX379rFjx86fP69wJWROTs779+8lEsmzZ8/Onz9/9+5dVAwNIVm7dm1ycvL169eTk5PT0tJWrVql0L3l5eX11VdfLVq0iME3B+oHI2bbCOROM1DjA9hs9t69ey0tLdHYEDTooy6SJH/++WcLC4upU6f27dv35cuXIpHo8OHD3333nYeHh6Wl5Zdffnn27Nl20a0OgApB/04L0Qd91G0rUSwtLdGCrq6uSCTKy8uTyWSzZ89GryVJksPhiEQifX19ZnYbAE0AudNCLRsbYmZmhmHY9evXvby8MAwTiUSvXr2C0AGdDbSzGNWlS5f+/fsfOHCgtrZWKBQGBwcHBATAxKCgs4H6DtOOHTvm4+PTrVs3mUzWq1evX375pR0NYgJAJSB3lOXq6iqVSukLyNWrV9HC/fv30QI1uIM+hIQq1r179xcvXqSnp+M47ubm1tDmhg0b1tzLTQBoLyB31IDNZvfq1UvdewGA2kD/DgCAaZA7AACmQe4AAJimbO40a4oc5ef9AgB0QsqmiZJj+dEZHJj3CwDQCJhfGQDANNVXNJrVyIIhcwB0QhrRwIF2FgCdipo7gKuqqpKSkoRCIUx00hpcLrdfv36aEN9ZWVkCgSAmJkYTdgbUKy8vz8HBQb37oObcKS0tLSwspF92oCFadgNCdXn+/Lm7u7uenp66dwSrqalhs9lhYWHq3hHQGDQdghqpOXecnJw8PDy+++47+PPYGra2tocPH/bw8FD3joD2Qe0/NzXnDo7jLBaLzWar/UC0a9RhVPeOAKAU+LUDAJgGuQMAYBrkDgCAaZA7AACmQe4AAJgGuQMAYBrkDgCAaZA7AACmQe4AAJim4txp2WVNMFgZgE4F5v0CADBN9fMrczgc5af+gkuKAOiEmg4IFoulfOuJml+5WbMOQjurlSQSyaxZs3R1ddW9I+2bl5fXoUOH1L0XnYKy6UAQhDLp0Nzpu6h2FkRPaxAEMXXq1GHDhql7R9qxly9fHjhwQN170Vk0nTuo86WNcgHaWari6ek5fvx4de9FO2ZgYAC5w5im04TFYqlxEtLo6OjMzMyGno2JiUlPT2+ymJKqq6ufP39eVVXVUIHbt2/fuXOnlVuhy8nJOXPmjEIzNjMz8/Tp0xiGhYeHV1dXK7kqHLSaCj9Z0Limc0e9J5tOnDjx4sWLhjqYdu3alZSURJJk48WaRBDEypUrTU1NR44caWpqunPnzrplRCLRqlWrunfv3rJN0I0ePfrJkyckSWZnZ+/bt0/hCD9//jw8PBzDMD6f/80338DJPtDxKNV6UuNkw5cvX546dWqTf4uULNaQ8+fPX7lyJScnp7S09Pjx41999VVlZaVCmfDw8BEjRpiZmVGP1J0WWiaTKRMTT58+/fDhA4ZhhoaGhoaGDRWbNWvWhQsXsrKymvFOAGgPlG1nqeuv7uzZs+Pi4nJzc728vE6ePOni4sLn85cuXSqRSOoWI0nSx8fn8OHDw4cP5/F43t7eeXl5qEBUVFSPHj10dXU//vjjjIwMha3cu3dv4sSJNjY2OI7Pnj1bS0vrzz//VEjbAwcOzJw5E0VbfHx8z549dXV1//vf/8bExGAY9vbtW19fX2NjYwMDg/nz579//x7DsPDw8KCgoOXLlxsZGdnY2Pzyyy8Yho0ePfrdu3ezZs2KjY01NDQ0MjLCcfzt27c+Pj4mJib/+c9/Hjx4gLbIZrPHjx8PZ1hAx6NsO0td55tycnIEAoFEInn+/HlMTMytW7eOHz9+/vz527dv03MBFcMwrKioaMuWLT/88ENKSgqLxfrxxx8JgkhISPjss882b95cWlo6bty44cOHC4VC+la2bt26Z88etJyQkCCVSkeOHEmvPVVVVeXm5rq6uuI4XlJSMnny5KCgIIFAMGfOnAULFlRXVy9cuFBbWxvdHqOsrGz16tUYhgkEgrCwMA8Pj9zcXD8/v8DAQAzDzp8/b2xsfOjQobFjx9rb24eGhuI4vnr16urq6ps3b65fv/7kyZPUdnv06HH9+vW2PMAAqIFS9R0G9qNJJEnu3bvX0tJyypQpnp6eqDu5XkFBQYMGDerevfu8efPS0tJIkvzpp59mz549Y8YMAwODtWvXEgRx69Yt+kv09fV5PB5BEBEREdOnT//+++/5fD69QGpqqqGhIWpknTlzxtbWdtmyZXp6ep9//vmuXbuysrKuXr0aHBysp6dnamq6Zs2a6OholNeDBg36/PPPTU1N161bV1FRUV5ebmRkxGKxDAwMtLS09PT0Bg0aJJfLr127tnnz5n79+vn4+Pj6+lLb7dGjR0ZGhgbe5weA1lD2PLomDLGxtrZGdRA9PT2RSFRvr5NMJrO0tETLurq6bDByZQAACetJREFUIpEIw7Ds7Ow///zzwoUL6HG5XP7u3TuFF6alpc2bN08ul8fFxQ0ePFjh2fT09G7duqHlvLy8Xr16UbWhFStW3L59W1dXt0+fPugRR0dHkUiENkHfGQzD0P4oePjwYW1t7cCBA9E6Bw8e/PDhQ/SUnZ0dhmE1NTXGxsbKHSQA2gHVXyfRdprcB/S7rVvM1NR05cqVJSUlZWVlZWVlDx8+nDp1Kr1ARkbG4MGD/fz8Hj9+XDd0MAzT1tYuKipCy3w+Pz8/H6UeSZKRkZFsNlsoFBYXF6MCz58/5/F4pqammHIDKXV0dMRicWFhIfVy6qmSkhIzMzMIHdDBtJt2VpMa2c9JkybFxMTk5+djGHb58mV3d3fU70vZv3//8OHDFy1aVF5eXlpaWlpaWltbSy/g7e0tEAjKysowDJs8efLTp0//+OMPDMNOnz598ODBAQMGODg47Nu3D9XCzp496+vr20jicLlc+sAcNzc3e3v7vXv3VldXv3r1iqqXYRiWnZ3du3fv5h6KNhIVFVW3S57y5MmTuLg4DMMePnx49erVVm7r3bt3paWlrVwJ0FhK9SuTJKnho0gavwg+MDCwf//+PXr0sLe3/+yzz06ePEk1f5A7d+5cvnzZgiYqKorejnN1dbWyskpPTydJsn///v/73/+mTJliZWW1Y8eO//3vf1wu99SpU+fOnbO3t7e3ty8oKNixY0cj+zN9+vSZM2devHgR/VdLS+vUqVNnzpxxcHBwd3efMGECVTIrK0tzcufEiRMvX75s6Nk///wzMjISw7DExETqrbVATU3N2LFju3Tp0r17dy8vr4SEhBavCmgsZa/PUlet59GjR2iB3rdK/Tm9f/8+WkhJSVFYwDBs2bJly5YtwzCMzWafOXNm586db968cXNzq3v9JLWVRnz66adxcXFDhgzBcTw0NNTf37+iooLq9Pnvf/+bm5ublpZmbGyMOmUwDPvyyy+plxsaGlJBFh4evmXLFgMDA+rZIUOGvHr1KiMjw8XFhb57Fy5cOHPmTJP7xgwlz6ytWrWqNVvZt29fWVlZYmJi3759v/jiiy1btowYMaI1KwQaSNPH76iQlZWVt7d3iy/aDg0NvXbtGtVA09XVpUIH0dLS8vDwoEKnccbGxgrXpvF4PA8PD/ruxcbG9u/f39PTs2U7rHJTp06NjY3FMAyNKho8eLDCICnkwIEDKHoaKhYVFeXq6trQWKri4uLg4GBvb28OhzN06NCnT5+qcdgqaCPKtrPaSy9P2zEwMPjf//6XnJzM2BafP3/+ww8/aM51Q/n5+Sh237x5s23btp07dz5+/JjFYilcVvL27VvUB08vxuFwULHbt2/7+/tv3br19evXY8eO/fjjj8ViMf3le/funT9//qtXry5evLhp06YFCxZozhEAqqJUmsAHj0yYMGH06NGMbW7jxo1WVlaac/Dp9Y7Vq1cPHjzYzc1t3rx5L168aOgldYvt27dv5syZn3zyCZ/PX7dunVQqTUhIoK8Z1a/j4+NDQkIyMjKsrKza9E0BtVC2FtMB2llAhSwsLNACNUhKyWI5OTlRUVFdu3bt2rWrubl5vWOpMAxbuHBhbm7ulStX1q9fTx9YADoGpfp3oJ0FFCj5fahbzMTEZMWKFW/+kZiYOHnyZHqdbsKECXfv3kU1oNGjRxsaGjZyEg20U9DOAoyaOHHihQsXXr9+zeFwrl696unpWVNTQy/g7Oy8Y8eOV69eEQRx9OjR2tra/v37q2tvQRtR6joJNH4Hqjyg9VatWpWcnOzk5GRjYyMWi0+ePGlubk4vEBAQMHHiRBcXFyMjI7FYHBER4ejoqK69BW1EqXndcRyH0AHo7BV9AcOwJUuWLF68GMOwkJCQ4OBgDMM2btyIWkn0YosWLVq4cCGGYWiM5fbt20tKStzc3PT19RW24uLikpqamp2dLRaLnZ2d6xYAHYCy14UCQA04oo88opKl7kK9xdDjdnZ2DQ10wnFcW1u7V69eqttxoHE0fb5BAEDH04nGKwMANISmz+sOAOh4YPwOAIBpyo7fgVoPAEBVNH1edwBAx9Nx5hsEALQXHWS+QQBAO6Lm+QbZbPbp06dVe9PxTkggEHz77bcRERHq3pF27P379wozsYG2o+x1Em20+aCgoIEDB6JxidCga7EJEybY2dnBAWwle3t7de9CZ6Hm60JtbW3RbKFwyTsAnYeK21ktuKICEgeAzkbF43dwHG/8ljIAAKD68cocDofDUbYaBQDohFQ83yBqZ0GVBwDQCGXHKyvfzmrtHgEAOjq4LhQAwDSY1x0AwDRlr5NgYFcAAJ0E1HcAAEyD+4UCAJim7Chk6FcGAKgKtLMAAExTdmCx8teFkiT5999/U1MKQJ80AO1XZWVlW6xWqXkwlG9nGRoa9urVa+nSpaiKJJfLW7uDAAC1GjRokMq7WZSaB0P5dpaent6TJ09at0sAgA4O7hcKAGCasvcLZWBXAACdBNwvFADANGhnAQCYpmw7C2o9AABVgfuFAgCYBvcLBQAwTcXzDQIAQJOUrctArQcAoCrQzgIAME0xU3Aa6kwWul+oWvYPANDuUCONUZLULcCiP123BFXZgVoPAEAZdZOEqsRQj9df38H+SSyqNNR3AADKQClDqbdCo3g9OtXCYrFYHA4HLR89ejQhIYEkSfrAZc0fxAyzcADQpujtKfRvRkZGnz59Gg8dTCF3/n8t6B9cLnf8+PHPnj0TiUQikUgikUilUrlcLpfLoQYEQGeGKiVsNpvD4WhpaXG5XG1t7WHDhnl7e6OblaPOmaZzBxVis9loXWjB1tbW0NCwqqqqpqampqZGLBZLJBKZTKb597eBy+gBaDuoScTlcrlcro6ODo/H09PTMzQ0NDIyQqGDYPX9EhXrO1Q7C0UPtVKpVIqCBlWCUO5AlQeAzgm1oVDthMvl8ng8Ho+nra2tra3N5XJRfQdVXOptbXEUVoQyDOWOlpaWtrY2j8eTSqV6enoYhrHZbG1tbYlEIpfLFbp7AACdCmoboZTR1tbW0tLS1dWlAoiKnno7ejjUKrB/unVQjHG5XLlcrqWlpaOjg6Y6ZbPZtbW1UqmUqvtAfQeATovNZqOsoHJHR0cHRY+WlpaWllbd3mUqehT7d1BNh8vlouqMTCaTy+UodFD1RyaToQc1v38HANBGUJRQHcGoQ0ZbWxtFD73BheJJ4eUc+oqobh16puA4jtYolUrFYjHVs4MqOxA9AHRC9I5g1OeLzmpRDS4UGlQvT/3tLPq6UHphtG5mLperpaUlk8mkUil1JgsSB4BODsUF6hRGEUNFj5aWlkL/Dv2FivUdlCYEQVBnwlATTi6Xo5E79MoOAKAzow9NRimDAggN50H/pZ9Qp/w/NQCAYDoGvFcAAAAASUVORK5CYII=;" vertex="1" parent="1">
          <mxGeometry x="113.5" y="407.0033740234376" width="381" height="375" as="geometry" />
        </mxCell>
        <mxCell id="bIEeLJ-2RRx14gN9JyyU-4" value="" style="shape=image;verticalLabelPosition=bottom;labelBackgroundColor=default;verticalAlign=top;aspect=fixed;imageAspect=0;image=data:image/png,iVBORw0KGgoAAAANSUhEUgAABaAAAACACAYAAAD9NM5ZAAAAAXNSR0IArs4c6QAAAARnQU1BAACxjwv8YQUAAAAJcEhZcwAAFiUAABYlAUlSJPAAAGTJSURBVHhe7b3/a1xHmv8r/RdtcH638psHL9j5zQp7wRqy4A5eiIZ8QKN4wKvJB7wdfyD0aC6fmR7BOlrDenp9uU6vYUU6MCIKXJE2jEjnh49JG9ZE4Y6JAmtGvozZaRjDNKxhGj6Gfe7z1JfTdepUnT5Halmy/H7Bwdbp0+dUPfXUU1XvU1019R//8R8EAAAAAAAAAAAAAAAAAEwaCNAAAAAAAAAAAAAAAAAADgQI0AAAAAAAAAAAAAAAAAAOBAjQAAAAAAAAAAAAAAAAAA4ECNAAAAAAAAAAAAAAAAAADgQI0AAAAAAAAAAAAAAAAAAOBAjQAAAAAAAAAAAAAAAAAA4ECNAAAAAAAAAAAAAAAAAADgQI0AAAAAAAAAAAAAAAAAAOBAjQAAAAAAAAAAAAAAAAAA4ECNAAAAAAAAAAAAAAAAAADgQI0AAAAAAAAAAAAAAAAAAOBAjQAAAAAAAAAAAAAAAAAA4ECNAAAAAAAAAAAAAAAAAADgQI0AAAAAAAE2JqagoHDhw4cLwCBwAAAACKAwEaAAAAAGBCQJQAAIDjD2I9AAAAUI49CdDum18cOHDgwIEDBw4cOHDgwIEDBw4cOHDgwHG8jkmxZwEaAAAAAACkQR8JAACOP4j1AAAAQDkgQAMAAAAATAj0kQAA4PiDWA8AAACUAwI0AAAAAMCEQB8JAACOP4j1AAAAQDkgQAMAAAAATAj0kQAA4PiDWA8AAACUAwL0AdHfXKKZqRla2uzTf5lzgBn2aXutTtVTi7TxxJzbC3Kf9QYtnqnQ6n1z7kgypO2bc3Ti5Bw1HwzNOQBAiOGTbWovV2lmYYP+6AbO4TY1L1SocqFJ3/zFnNsrTzq0dGqKZq50qG9OlWK/3xec/Gy/bGEhL/a+zPmaIOgjHXHK+unTXerernG/ZZV65tQ4Bo+61LqqY9me48SEcONqKi17qq+6T1MJ9WkmGafBy8EE+vTinxsri3T6ZPH6tX8cP/634s7qj+2Oc6xPyuWy1x/LwbXPgdLvUfPKLD9riqZOnqbFlQ7tPDOfHWFemH0mxt7qyX4RO70+XcJOk9IWwNEG5TwhcvpxL4g9C9D99UX1b/C43nvlRVcI0FkGXzWp8WGVKspP9hE8HnWoeYMD0EntbxCgAXjZGVD3VoPqlyq6DYEAfTQZF3sPOF+D73vUkc7na/r5U1NL9MWfirawu9SuTpvvmeOAxEG5NzjClPDT/r0WNZN+SxGBbMADJO7rXJk1PvbZIQrQ2biaSsue6isEaKCZRJ9+926TVkvVr0kBATrOkHY+d8rF74/l8CIE1uH9VZo9z74y4D+ec7t+Wce3ytUO/fmID7ghQBejjAA9MW0BHGlQzpPkJRagNdzRvvm2+ntqqkKL//IdDZ6bjwAIskuttyYTPHorUzQ9fdQF6HyG99rHLIgOqbd2+DO+Xj4mY7eX3p8etWhO2pMSAx7w4tlr7J2Uf/bX3zP9jima/efvzNl8ZND6xrQRoC826Zs/mw8OgFEfCRwPerSqfKeEQPakTfMqlh2mAG3guPpDSX/JFy7Hr38CRkyqrzaJPn2PGiqev0gBegyP29Qu0L4d61g/6FBNxbCj1B/boeb5KZq7s2v+Zp5xfL5QoZlr3SMvQIODYnLaQnl2qb12ZCLXMUeX8zQE6Jee/S/B8bBJ51THoUFfI/CDsfRpY2EyjUTv+ssuQA+p+/P3jlcQfdaln/0EAnRp2G71y2y3fcVQ9qfll7xRfrJBi0duwAN89hZ7rX9OoGDvr9LU2XO673GyTr2xL/AH1Hm/QifMzO2D/pUWBOjjRp/a82UFaBvLjoAAzWl5r7QAPcH6Co4ets9h/tw7k+jT92hV6soREqB371QLtW/HO9abcjlK/TGjOSyuY5QBXCanLZTmUYuq3KcELwJdzhCgX372L0DbTjZ3HCBAg/FAgLYMH6zSm9PHKYgOafvGLE2XnGUFtN3228kXf5p92RtlCNAvBXuJvYl//mECBSsC9PU2tS9KR3SKqmvObKgQMkC42KLWipkBDQEalIL7LT9+tQToidZXcMQY9TkgQAeQunuyWPsGAfrF0v9cL/8JARqkOSwBmp8rS8BAgH5B6HKGAP3yAwEavGAm10i81AL00y7Vzx9GY3lwDL6q84BVOqtHYMD9EjH46mfGbvvo5B8Xf4IA/VJQOvY6/vnZxAToHg055pzgdEydbdK2+SjLkHrLFVraHHC6IUCDvcD9lldJgJ50fQVHilFfDQJ0hmc71DJrCkOAPoICtNl/CgI0SDM5baE4Q9q5s6jXJIYA/YKAAH1cOHQBWjZ4qV06bRYVn6HZKw3qPJSdBVyG1H/Y0TuKq0rep86Hc3SCr6/e2uZPLQPaWa/T/PkZlcapU1Wq3e7xWYdnu+kd/J/3qXdTdl/m62Un3duj+/XvNWnJ3GvmYp2+KNoRHw5od4vzdXFGNZKjb3E+HmxQY4Gfo87zgNh5dnV5I7CLr1yzRG+eEvtU6PSFJarfqFFdNb6202YOpzOZ3iQyXVGHj70dp2U3YU6TlEHlzCK1vjUWULaxz2ZbL3dKd0JS5XtqlpZutmn1nWyaLMX8QZMrggx2qLOyRLMq7ZIv7Qt9f43yp7vUU/6g0zP8tkXz/J3KmRp1xgS34fcbVHfyNn+1QY3LTeq5NvL9jRk+1M8YlY85/uFrfUEOw+87anMjtfMzHzPn56m2tp32cfYzdwd+KbPBQ04r+6P6Dvtykje208ZyNej/KdSO03P6OvHDBS6X7+2V0gjPJ2lyj49SxojB9XazkdQ1ScfcFbZjqH9Zoly7a/WkXGVQkeST40L9bvbm0fI0nycom80naZi5WKPW/bCPit2kHLTddHnV13dMeWm7vS4CmjzTOVI+PeZ54k8/mjHCmntcv72n+DB41Et2Pu9zGrdvS9lymV/9Ivl+jGL+aZD4crtGVa4b+tolan66atZNTQ943JiVameknOUep3QsU2VYfX10v56/0G+6bqTzw+XB7ccoPZz2Fa67t1wPyPu+JhPD3q3ThhfDMjHYsge/VXh+ljkiac2QW89HxGJvKF/ReLcfEdgI0ETb1DynfV8E5iBPO7RkBOpcAZpt7cYWHQPatB28rRezAoe2jW7zV8VfzABlcN/2K8S+LdoO7Nw/uO/6kG73G1veLG+vn6HSJP6r0i/t9ai+qvhv7pdq48cxtr/0DedQ4/eXQu1noXxZvFifPT7SPia7oq+vKjtom+s+k/pepE2L1r8oaQF6VIY6r379VuQI0MXK182XeKvTF8xrq2NxNSBAx+pruD0xVwT6NJZonGYKt68xira7peox35bHFqM2S/qcTere47ReMDE4GeOYw9qBkTiYnA+KpwXGJLlwmTtlqftGDeo+Nh/zE8u18fG+ml+WMcr16YvmP1+AVrHlgnmm+P5Kxxsr7SHOun5s+6lPuvSzuRM6re5h7RoY28nn48nv4/qb+o/Kwitfx/fSafkjn/Dj/2iT5D3Hf/t8zr/0x1Qd5udJWoIxPtMm+eTbIQ/fRqNjkf7l/9qD/SxF2xnFuPo4hqh9XG1Al2UxbeCnJt26DRlpAyNK9clDhOqJEGmf8tpdhWfvypk5jiHeGG6sHxWIQ4G4bVMfj9vhOPLT2VAc6VP3wzn9/NQRioMORTWHgn1xIXfMsef2yynPfftX2q7KWwr0g4VYOYcE6FL9yxL2LUu6T8H3vsR9lXtZP870vyRNOVqcLot0bNeU8VtDXj9uv321ghyiAM3OvTxLlUv8vT9oIw+fcGPxt9L4z9DS51a45Uq+vkHta2ZH8X/4kguCK4HdCZMHljvmuo3LWpD+swSy5wPavqWvkY0JVGV41KWNzSYtvqY716tb2zxoZ8fY7FGPz8+rTneFand3uZNWo8XlNnXudaj1vgkyFz+hMT/05eDSo84mF56aPaLf0qp8SKd4vU2NS7pzs7i+TZ1rb/IzVmmVg/GcqgR8nLf50ezcYhtdbtPvzeazAx4cvMfpd4PyYKuu0+eLDIMeNdTgfFRRd7c2qHNrUc8a4zLrcvCrXW1xPjndN03H9GSNvtjdYdssUn2tw7ZpcedPN7jVf/29vtFYhtS78UOqnKxS84EJRU9HMwuyQXq8P/hERZBHbbbRLNVE6DO+sLNeUzM+Khe4opuKOOQgscENaFX5wyK173O5Xa1zUJT0TbEf5DTRTzv0AT9j9Z65hhvjLqc/VQ+sv5my9dOp0z+msXJ52FR5WLy9Q0pW46DUWT7n/QSd7bjJ+VJp4ecutOnru3WqrWzwoKpLbdtgsp9988cud3iWaHW9y3WsYUSiCtXvpYOwbN715iw3jo9MuTzqUE1sdHKOWg/VKYPu7E2XmvHF9fbKDPt4i777kz6jyk8GyyfTtomV65vsA265KrunyrWjyrWt6jmfV+VRpbbbaeTyrJ3Mlue03yhLvONB1Mint6l5SXx6hmq/TYudYrc5vmd9S2RchtPbXTmnymX2H0fCjbWb7eSnKPE83ZkINMocH1R9HxsfeHDKsWvjht35vE29z9l3lrnhk7+n2AdyqoTrn+qyoH8aZNMYHuhVLjVp+6k+JbHN1hXXFjZmqTQ59at/j9uF2zZtXE78/OrFGjVurFL9XTPAUfHcJtqvG2l7DO5+QBXZWd2kZ8iDURXHr9sXQ/nfF/upmHe+Tt0npnSfch07K50l9i2z07Cfn8S/9uK3gvgIfza7/KXuxLPdu8tv6jSe5fuPHC2X4vU8HHuj+TJY/5zkDGgh2ZDwYivYPm/ffCPxv7gArTc2muKO2o5xl/7dn+k1pi9y+5u6mMv5OvsAx6eW6eS7vrv4mz+qf7W/pPsu2zx4rd0wsdicryz3nFggfljj+npu9LKBB2wtNbPHic1+P+NT/nuZfZ9jeW+rTXXTXs9yf6j/FXcy31+ljS32rxXbxhdYN9tvv/z+kmkvQv2lE/IMtptbHpKvypTOlzKnydd0oM1R8YHzJu2CLg+O9Xdsv8WJcWIH7lfVzutytWmUNk3soPzXu3/aT11xIQ8rQDeo/XmN5hbqtHqjoQbI8twpqd/3vTzYvrHXHiZ26IjQICci5avyJeen6KPffjM2X4oCcdWmZU/1NadPE4vTikj7GnpukEg7OC3t4JY5p9D1eHrhY6ce15N6nI4PQzVGOHG+Nhqsc7p6tv1z/YzZuV1VMc/GnYTHpr+SyUt4TCI+nIxJchlQ5yrX47N16thQIGUpafPqb5kxgGbU50hdn4u0b1y3C/fpOf8/eV3l3/bXMmOyBJOejA0l1r5Js9c6tKvyO6TdTduX59igrhnFWelrTF3vjo+znh/7EyWs2Jnqs0fGdvL/fEZ93B3bt+C+rC5Hp349Z1tWTRzzxgq7a0Zgtb7np6X9dW78f8+J/2rCQ6F9EwTrJ2365qvVZByx8QtTR9w6FbBPGrbD370etUPad+LYssncX+xnluQK2S9Yd5125jvVnY60M4ri9TFIzD6JNqDLbPE331CHfbaINnDiMtvfPNfG+ZRdyvTJQ8TqyV7bJ47jP505QYt3zBhO6rPx7Ypdj36sH5XTFnZuv63P+30+jtuq7JKYs7f+WtLO+74VINEclD3jmoP0xWe5XRrfFy825hCk/bJ2SBFpv6z2VNS/XE1CnpPWJBy7cnz+pohdVd7mCpez27/UJ/ha26/6X0ZAMyT2/Xd9Pm+sUw7tzxW3T8Fp3lB5rNDcP36d5NHvL/lanI7TnMbHnI+QFhezbxG/zenH5Wlb4z28HIcmQPc/f48NX6XWI3PCIhtjKKPM0q9/59zwUYvm5DlnuUCM0w0ebdOO8bWdWzzgfr+jg2yC3RU1HQh7Zh1ICYIpCYedUjmDOGZqkM8NpxoozVO7aCP56bx+BldW1yzDr36mzp97t0Ff/sGcFMSOxhlGjrVNq3yutjXM3CMVBGwZZDqTnG41aPIbUu6UqoDDA+jv0xbrXdfOPXvtC9pVDYTBPuOdT7xnhBneb9Ab02z3r9IhRc1Gk/t4aSriD80CIggN2WYcSCrLX3rBjL3hjg7AlasdZ6dk2QhQbHGOqjd7pMIRB9GdB7ueL6Xpf84dmr+2HWAL+9tFrqRePeitBNLJ6PT7ZRNHiyfe9dwAvCFlueKFBrsDPzdMX6ZUTe3LUieq//xNOo/W/917qYHjOWpupzMlP30XW6YHdbqzWkaAlkZOOm/d1Ns5bsS4o6oag+/Nqdxy1R2MdLlyZ/HvxV4ztLS2o8vVsHtnTl3v1iHxv6lQeVbdoKsHt5mZljY2uZ1QZTeuy+5O3czwQVN1KGc+/NKx/WgwmBagSzyPsYJBxp+47oZ/fh2JD0Ouc3L/s9zwW1Glv0Pbj/JqROT5Qf/kjsUKd4Iz5c6ltrmkyiZri9Eu+el2xsb4OVr61J1xIQNXHpCqRtwbHNi6kbIH2+In0zTLHakUbOu3/Q5b8PucdiUc+jFsSNs3edA+PUP1lFAyyk/67uX8Vl3/vtynRl+4278PeyZuVrgTas7lUaqe67IOxbR4vkb+MWkB2s1rZsDDn/1sZuRnUQFa7pexLdc/7shnNlj+Vm+CdO6WFy3WTAf/8mfq3wSuA0oAu/DL5OWGwtazlK1sXyMtjIpvyT3nP/VqsOlnzC530zOIbJ13O+8G28Y3MmUXRtovuV4NGs05BdvshDwj1F9SccXtL9l2J+0Xki/xIz9f2zdlEMP+mGrzd6ltBJrFZIKCZufWG+r8HMcZN42J/2YGh9pPfTvHsXma5T7NwHm2zCg1gwj/ZU/SL3Pbw5EdXJ+Kle/OLT2Ym/vV1wXylR9XVSzMtAF7q6/WJ/Lqv5s/6S8F21fpL5m/4sTbwR8qH3fiu63HvzHivmJUj91n6QFrlT7+dz9/2+Z6ry3je0/L8wK+tCrnPRuqvk1oTPI3cq2OVVnLOlj/ST1PRDDxW28skvha8TFAWQFa+vTnJN3d9GA+1qeX/E8XHJMl6QnEhxOZ5ZVkc0y51hPRbF/jApfz2DirsX5cSIA2+GM7+X8e0T7ulRk+P0cf74yebdunzHONX/u+N4r/5uWzxfpDMP7rSVDF4r8pl1Pz9PF2qjdiypHL3HMg1z4uyh9y7JD09ccQFaCZaL8kUndLtTM59THd1uUTs4+N6efe/SV1/bqt+jcBbeC36boo93DvW7xPnk+snpRrn3Qcz4zhnnD8kBnAyQsljdhJyjJjp5Laglt30qkPx5xy/TUm6Bd52PilNQeVC1dz4Hx88Br75Lfyx4jEpk5fXMXHomOOSAxRdsi0XyPtySXrX/K9rH8p+/n+ldiV+9NmspkiYtekvSlUzvH+peR5vu30B+xYp4B9y6L3zQikWeKlejnmTogSbH8ppMXpOC0vX3//v81JwfrbO+10213Wb5lQPy5X2zJ/TYpDEqDNz2bfis1Y0kGtsjx6W5A8hwNdFq5AMis4MktW3evGqAsTbeTtMwKdsmjDFsFtJFNmMUEgc55JBrDJ803HecG+nbX0aMPNazTdOZ3PQIdZSNKd6sALOlgXG7BxAy6V7WTo2j61Mz/XK+oP6TdkoTKxAlamkywkgatKn+yOrK/9oXgHQpDANu3OUjP01zcyeY75jj7vl02c3U9/RJVT3IFz4xSXfVBcdHzCn1Vr60RmeYyAHyl/OLlK3/jOaq+VckwebHykqABthaMCHaG9l2vAvqYOuoN9mf0qHYJkdp4hVZ78vUoqvxZbN0Zi3+6aiOJFfUp/P1NWJZ4n6HIN5DfmI/xX7uDUb+DGsMsdxkL++bhNVb5/JbTkjCPu+gK0SlOmnQl3PBQiPqrZxN5PjAJ+zh6ghV9ndouG77/u3Tn4fRPzCr6gc/OTjRehMmECfiv3CQk+nPlkkF6kzSpXzyWNErtC987Ll77PxAVoRg3y5bme4CFt6hs3s22/fDeVCvbJ+ZP+SwLrW+k09zkOyz38gVHyYojjn3yeYG2Y8Xd7f1cYExFxhk54gzFb9m6ehfhgnMthXBuf+U4Y215kyjpUtw3ZPpbOlz/IlHxlhYFQH0Gze+eHSdrd8rOz4ENpVLbPtDHaT8sL0IE4wzmyolrq+UmccNvDkR2+czMwpnyjbbWbrzFx9UfBstpbfY36hHO/rMBerL+UgW0TbQeVjzvtoK3HqV8HjerxyJ9M35rjhfveThO6ngn6qhCqa3yO+zbhMYlcq8ckWcs6cPvVOFWhuTvpoWAw9ia+5pev9Vu/LplyCtTdMLp9kzYiO84L1VeT/w1/HKHTb/M/wqQnZUNdDidufGP+HmHrxZSdNSnYeJQpH1ue6RcQgk1LKQHaiZ/yLfl/lBJ9XCEbNw3j4n9kvBaq1zZW+jE0zMhPwuMI36/S9klI7BAav5cjeH9DsG4Ik2hnovUxUmYRouk3ZZwtS92Pkc9G9VXHL/eXHpq0NlC4Tz6GcfWkSPs0vKd/pdHwr40g95ayTNuprLbAOHUn/eRIHbFpL9RfY+z1mbgTR9szPD5U+X5t1XvpxtjnSP6USUqOOSIxRNkh036NtKd8/wprEsG2yLGT50UBu47am6xVdTmnl+CI9y9Vnp2yVPGP7zvevmWxk4HYHr7+zCSTAAKT9srF6Qn5LWPrtRu7ymhb++VwBGg7cyEWAK3TcJBJnCRqXIY/UwFVpSNyOM+KNhj2GYF0RRu2CG4jkzKLbWQyTsXYAazjWH12Wv2T2Tlaut2l3VQwMETTzY53GAK0MxDPlq+tDE6aCvtDOmhky2QkumQaRIV9NufP6Rhrf/BtNIbhNjXNWnEz7zboswfBlCtivqPPl3yuZSjrb+n1e5RtfNs5PrEfAdpem3eM8mV8pKgAbd7YZTpiGSZcrqGGWMrT/LRl5t1f0kagPG3dyDt0XoyYGahfYUyD4pVV8edpdFkF8mvjY6Z+5cQHuX/m+hLk+GcykzfQ0Y77rUlTpp2xZR+yNfuN+nWDtlPytUi8tLPTZfbx/K8+o+1Y5kPfH3SoJudC7VOQUX78dJfyW/62FqC9WbqM9of0S4oY5eq5vj7cHublS84fjAA9egnlzmyQmYxsR+d5tu2X78ZTMVqPUf88LixA+7NVE7/wZ0Db89GOYaCsLcka53IdH6myH8WIbAzlchjXxme+E8b6RqasOV/FBWiP3HzZgWR2gJZ0ynkQ5JbfWAE6k0btp5MRoNnTbug4l7Jp8uyc9rBg+RZpq8fF1XBZ7a2+Rn3CuV8qHqXa10awfY1RtB3MpjJbj5N6ZvuowTgQqZcccwoL0LZ88g4uC79vlkey94D5fsr2UT+fUBuf9OlDaQ7Yq2D+R88O+aE+p5bViB5pmysfz5RPPM5aP/brl/W5UPxy46d8S/4fpXAfVxONm8G230nLoQnQc5lfrbr2SbB2CMWmkgTvb5A0Bfslwbpbvp1xya2POUTTb8o4aKOINqB/pp+jDbiMGzPmMK6eFGmf9Gzp4v0/ubeUZcpOZbUFwak76SdH6ohNe9H+mr0+E3fiaHtm45FgfVilOXIoXys75ojEEGUHv/1iCmlPLkU1iUw5BOzqtDexcs7dhNDvVzk2SsYAOUfRupwiZ6axwrZPku4kU3uJ0xPyW8bW61R+PW2rTF+tLIcjQNvGIBYAk3s6g4OocRlzv+y09zDRRt4+I5CuaMMWwW1kUmaxjUzGqRgbUDzHGj7uUvO/6Y21lDjyT1+Hf26VSTc73mEI0DbQFW0kCvtDOr3ZMrH3jgmV+jt+/rQ/5ASzKAPaXqsna3RVLoQ3I4r5jj5f8rkDsynZmUVqrG9T366X7NvO8Ylwx7FIp8HY862WtwZqDOMjRQVo4yfpmTAhJlyu1j8zDbEuzx++pu8l5fnZ70blqZ8RfruZxql3hQxhGhSvrIo/T6OvD+SXyzUsPjjpTH1nlJ5CyXcp4J+hskqI+q1JU6adsb6RjWWC/Wl+Kt5m/Nzh6bZaJ12tYTtVobkPN+g7v0qHvm/PXS7o+05+/HSX89sh9Zalw3eOfp1aPsO8jfeXHwlStp7rMgy3h3n5kvMHJEAnduB6u9zlv/jMV3WaWe7RX5zHJZ3PTCdYkDXlZRNK2eRqg7af7FJb+ZaXZjPTNPPzerM0h+yTIM9IsL5RomNoNyM5LRutbe3S4F44ZkUHs1IO49r4zHfC2Poa6i+F48rIzpnvBPIVEvXsjC9/2QVZzzu0DvphC9BBmybPDsQEscOPf1C4fIsM8MfF1XBZ7a2+Rn3CuV92PFCsv+Sjn1W8Hcyrx0k9c2JpNneResnfCfmqyrNf18z9i45J8pAN+BY5L9WrLeo+Gih7ZGJv1M+t3+6zjbf24usLCdA2/6FfrAUJ+KHJ09y//N6cGIP18Uz5xOOs9WO/ftl6l/Xv0We2TyH/j2LsML6Pq4nGTWv/SHyIjddC9XqyAnQ2rcFYaO3wj9nZ7GUJ3t8QrBsCP39cO+NmL9bOCNn6GCmzCNH0GxsF43eeNpDsdzJD8/5mfkLRMWMO4+pJ8fapQh/923ivE+TeUpYhPzq+ArR+xvRbHzuzZCPY5xYdczh2SMN28Nsvw179yy97hWMnz4ui7UfYR42NQvaL9ZuTsuTvSnsY+bX9vrD5C9hRY+3spnsvcXpCfsvEYvhe+2plORwB+oFZOzAwJVxh7+n+tCBqXMb8vPCc81PbPKINhn1GwOmjDVsEt5FJmcU2MhmnYmwjE6kc8sZVgoHMCEgW7Bei6TaVLeN48YCTpDvSoSklQAd/GhKoDIX9Ib0kQLZM+N6X5d7emj8OtsL90mkwtT8EgllRnvedyjrLjXG60x3zHX2++HP1pnaV9NrlbJtgZ8Lxib0L0HytWiNoib74U8ZbAxgfKSpAc7mrmUmB+pZmwuUabYgNXnnazaX02m3ZtaOycHp/Is/2fpIdxTQoXlkVf55G2yCQ35iPSDonKEC7/pk0VYFn27IKlmXUb02aMu2MjSfhRt8K0CIEJF8L+HmGvhailX+e55jnrlsY+n7fnAv+NDDEKD/+9aX99hnf60KFpp0NFPtbP6NZ7jCmN+iKU66e6zIMt4d5+ZLzByVAM1YYVgNH+QlfaN8Asa22YSoVxoajTe8E61vZNPc/l9kh7Ouf7iqxW214cpm/b5ZWkGckWH8p2DGUe78+rTcvTYiUfXQwK+Uwro3PfCeMra+Zsg7UbUuoj6VtpvOVWJPzFRb12DZqbdBFapuNeGQTnPdeO0Fz/jrtzGEL0Hb2cWpd1eTZ6fYwscNvnfg3pnzLCNCxuBouq73V16hPOPeLjgci7WuMUu1gUo/dn6YH6pm198oBCdBmKamiY5Iwpg7IBlNOoYntM7E36ufWb/fZxlt7cR+8kABt8/9PRQXHkB/qX/dMv/9F+kVfDOvjoVgSKk/G+vGBCdCF+7iaUNxUjIkPR16ATuxQcGyQQ/D+hmDdEKJ119Qxbmc+MRuSxduZWH2MlFmEaPpNGecK0LnagJ6k5moDRfvk4xhXT4q0T8mvhEL5CyD3lrJM2SmJQwW1BcGpO+lURuqITfuhCND8GffFp6eXqOOu4xui7JjDsUMatoPffnlY7Um+H/MvV5MItkWOnTwvyto1KefQMpD6el+AdvuXCfY+TlnqPeAK2LcstjyiS29aO7s6117i9IT8lonF8ISSfbWyvFABuv+5WUMkWZsz0qk0P9eRmUQJUeMy9n7RnXT71F5zijzWYMQqDhNt2CK4jUzKLKZCzN3ZzTb+5mcHo05rj1reJmYcCqj7c5kez7azg+toutnxDkOATnwiVMkDlaGoP7gbjjChMknWygp2Ws2GESfr9LUzLU77Q8x3wvTXW9kZOd+3tAByNf3smO/o80Wfy/YXG/kdELZ1sDPh+MR+BGhrz1mud6HQM7zfoo1kloDxkaKdzOQnK1mhSLND7U91J3Ci5RpoiGPl+bbY9qqe6WjXMEu9/HHhQVf7nv6vXUNONkbMppdTfLftrJtlGhSvrMo8T9DlGshvzEf4r8kJ0PwdaaQK+KeNMcGyjPqtSVOmnbHxJDRDzi7B4cWhgJ+r+9zRM2ddZOdoqbupjSOC39eb8mQ3mbCwj665O/+P8uPH0zJ+axls1emn79ufnFXo9KUate6H0hGmXD2XNIZjWn6+5PwBCtBiY7UGG7ehF6t0LrMBlrWttqGbCr0xn/9z4lFblUnzsx1qXVuimv15/6lZWlrp0I55USHPSLD+UqRjaK/1N+qJlL3bz0jD5TCujc98J4xtL0L9pdhANtPHSvLl1THOV1gYYJ/j+Fu7Ukt+0jlzfokamztB/zxcAdosEeX/2iB5ttMeOnZwZ+aPK98ibfW4uBouq73V16hPOPdz43R+fym0DvOIMu2grcfpjQUD9cz+xNfrM2gC1wtRXw3UNbvmbcExSQhbnv4s6mDsjfq59Vs/HaacAnU3iL1/8CVlwF6l8x/yQ7PGaXTgO6TenY1Rf8P6eKZ8IuXJWD8+MAG6RB9XyMRNy7j4f9QF6JJ2yCN4f0OwbggTaGfsc7P1MVJmEaLpN2UcnPFfVBswv4bTNuayK9gnH8e4elKkfUo2eTv/6/Q6vZaHHMcd35B7S1mm7OTEoULaguDUnXQqI3XEPqOokGevD/hWDG3PcGyUvrjke5bvF4x6SV+85JgjEkOUHfz2i/9XyL8imoRf9grHTp4XZe1aoJxTArS9PtC/VHl2ylLvz6TtG/p9jj/WKY5Zt5rvndkwWRh06AO2c3ovs4gPMoclQI/rq4U8ba/sX4A24qAYI1eAZuPUbo1mA+ze0U4gnUq/YVOD4ZO1dEcncTBvYGbYufWmup/s1vvr//V7GpqfCQyf7tDGtbnUjsvRBsM+IxCYow1bBLeRSWXPVgh/AMLojZRcJ2FH4w6yv6P5cEtvmJY05LZx93eLfswOPyt59d/IhAKOJkn3fgRoCXxXK3wtN5grfhDtBzcKKOIPfiAKlskztoV9W/PA8xTTKZ69tZMqE+0P2bXM8hA7vZ0J0DvU+mtOUykBevTc4ZN+vHKzb6pOg1/GXP/c9bOHz0yeHV+OdRyLdBr0jrFyvV6OYOepuf/zIe3eW6XqO9kF9Uc/HxpS/0leuOIBxHW9weTUea7vzgaCNNylzrWl0U/g9lKu6k1nNuiGGmIJ9tVQef4ffI8k6OpdnOW7M+82qffYpmNIg4cc3+YcAcLaku1W5bjnWmHwoEk/StUL06BwQ66XQLB2K/E8RpdrwJ84Pvws5Dt58cGkx7dIFJvfIv6Z+NQ5avgDSzNzKuu3Jk2ZdsY2roH6y8/5gDtI5/yOXMjP5T4/fjt7D2543+T0jxegdUyQep7Zef75gLZv/YgaBXb9F8r4rSCzEGavZduTUpSq59rXQjEtN1/GP604NIp3Q9rZbFErIi4Gud9QsxczmGUwJB9um2+xbX+6E2x9yHsB+pzrn9npX4lw7Lv6jnz95Wrurv3yjATr00U6hraMPRHR7uZty97GebefkYbLQepdXhuf+U4Y216E+kuFBegkX+kOrN7wJJsvVccuehvK5GDX5Q6lMVRXlX34/EQEaC7fRfa3jD2TZzsCtGMHV3SNlq+a/Vu2rQ7H1b1tQhiqrzk+4dwvLUAvhttX7i+NE6DHtoMXbDs4qsep5YiceqzqmarHo8HiLI8pXJ9UtlV29GLwI7NXie/DHHPUi2rvF3zJxqg5Y5K8bFsbpwez3Le+Jn5rbc95kbzvZQwg1ydt/Li+mu7TS3rO/cp/SRnu00v+Vd3m/Dfv7eaOyVy/cW0o9eKEalP5+vUdGtivPNul3o0qzbuTUqyPe+3jyC+ybaq1cUxYS8TGp33qm/+68VO+Jf+Pk+7jdlxhI+njjp5tJy74Zb59y0zA8Nq8JC0HKECrPSaSvumIWAwIty/aDsofonYwf48hfH+N/BJFnhGyn3q232co0c5E6+P/kPrl1cccoum3bUNA44hqA/+ZLpThlt7sVWkDto0oOmbMIVpPyrRPPE5blY0T+fzstQ7tOks5DB9x23Ul3ccUO0mZpe1UXltIXjb6bS7Hbf2LOe+X12X6a4LNayJ+DjiW5ttU2zOiOZhxi+2Lf5fTF7c2KjTmcOyQ8uBg+2X8K6M9pf0rpkmo5/j+Ze2a6nsLIbs67U2knFMCdE7/Up03ZanSkhrrfJY71pF9gWRSz8y7LfrmP83JHOQli5qQcn6VttOJVi/ST0z7L+D2Eqcj3ynrt0wohotPxbStIyZAs5Pf1MKh/Oz14x0vCAnDAe0+aFPtvDe4E6NcFgdjJ/jVl6PGXRzgZPaNd//zmi7Yk7XwuqrPtql5STusf6TeJHFntFXVDcYid17cFA/uNfTg9SxXRNfK3EDKGnIS9OQ747FvinTlcffjTirK1CzVfvMdDVQQ5s7fVp1mM4MY7WiVCw36ctfkQH7q+5MT3myQUWWdvdKizr0ubawsUe3zHqdb53X2SoOaa0YI+97M7GSHTDf6A+qt6M6SdDJTJrDr+mS+E4GD009nzLOvtembxwMa9Lnj+YslqsruqjZNn1pxrpw/qHJUsyOyZSKCjIhGU6e4U2PXrZF1iq7NZmfRDNhvjD9Ub26nyyoHHfhnaGlt1CnWZchpdZfgyEmnbMogjYfYp7vZovqdbS/QuvB91EDClnGH2ss1qt+o05w0QGfr1N5sUmNT505mRKr6wr78tZup59qX5T6L7i8MmMFXYf/vcxB/U54hn7lHZnYLD/RUB4N9e61Lndt1avlisY/8ZNYMLqXsT1+Yo7m3ZvXP270OWrxc38yW63CbVs9pe9W4w+jWc5nVqp63wA2N6QTpYK/L889Oeb7JDYbre0PptKjGyz+yS6+Ij6gykOPULOeL8yazLLhx+jrVmGm7qZjwr2m7lXme3uQj5E8cH/5ebypQJD6MOmbcqfnWcYRc2D9NORbxT73MgM5HjZ+7O+BO28MNalypGgFxlpZ+1aS2fb59A8vx5xP3RYXEDePPlUvcINuOHw9yZUkEtSyF14ly68bIz/k+IjAZ31J3ed7nOM6DaO8e4e8LfA+OzZIWOWbOiy/P0Wkuv9nr3qDdyU8qnpb0W/VMWZ6GB/n1tQ717vWcg+3aN3kpQOF6nhPTovliRv75Sdo/k5fYzkvVPLhz3V15Q9m/m5kdYYSl1E7ThqddahjbTl1s0jdOXNy5bcSi80vU2uxRZ61OteVVqivh6hzV2x1qrnR0jFE/J+Z26v1V2thy7c3Hw10asK/IvSz99SV977d+TTtuYQzsS7VzPFAwjsTnbOe4+osN6m5t0OrVGjWvm3ssNDltDRMf0v2MlCs+Nus8+uWgbGfaeP87IUxZy/V+WUt/6Q01AAn0l5RY63wnJ19qAJXKl/m5rmx+c4Ovde3Lxw73JayYpeB6uvHf9fPmbqVfYkTrao6fhulT5+9MDL02GhQOn3AZnmdfuOEPktxn/3L0bNcO//Oz/PKVfJkZ/XP//F2hfBWKqyvhuFq4vub4RCxOS1to29dMf8nv2wXIawfd74+tx5869Zj7tPaelTOL3Fat0uqybRflfKB/o/pgxoe5jWtdXaLm/a552cPnP1yl5l1jk6JjkggDHuyrMj5ZpcZ6l7rrq1S72qRV9gkVe29yG7vSMgPdkmMAt89RtK/Gffols6mT9DG2x/XpJf9/O2oP3SOT/6gfcr37H2ZykXf4fT6JsyqWvNUcH2cF14/9vrARLqRP0eE62rA+wznzx3by/1zG9HHdNl7awlm5zpR5j+td7UqTeltm3Mjn6zc4RijhykmLN16T+B8cr9m2U77jj00DJGNirz7HY0BOmyR2MGOYkB0KYcbi6h6pfpCB7afGCAH7qRnQKfuVa2fi9VHnKV0fY+TYx9UG5GWLevY4beCX1LUv5OwyYEm94L9L9MmjxOrJHtqnZAwnn508rcdE5/USKOlYq+0kcS5jJ09bGBuHJNYpO5g2143bkg4578TtUv01wS6Pwn6xuilxt0EdT+hLIZqDsadoDqm8Gfp3P9BxwD8ydiox5nDtMLb9GmlPuf4V0yQkPf6YL7Frk75zh64xu5Zpb3L6l+qZC79O9S9lrFPEvsmEFT7OsY+PR1606T7IzJU27ZjxiXpRzv3ExXXvRWG03RMtLhynY1pcab/1YriN7rnaVoG+Whn2LEDrDqVOfKHDf0uiGNDOZoOWJADJNRyQZGH/XioecgWzDY57ZN6iMBwQe7LzZeynNEmAdw+ZAaOfIcHO/UwF/NB3FrKzShO40mjncA9nlo253+JtDlSycLupNKcvhRb55iBwZhRQ1L3kp743vU0IBe7stRb0z4El3y31Nozz9ePXk80SBPvGI3WwLSXdesDqfqYro1sJ7VGowyDioM2jlO3yBu0MxNYz/H8OKJm3hEX8gQna2JsZ2e+pHYqt3awvpCwc9Ac/wIeRyv6mbTzV9wJlOM53pMzU5pJsj+vd8eL3kw7VL8rzzLO+F/vJwJjvcYo7VnfFUOH6Yn1ZdcJSn8lbtPB33Lfag4cdHsRKZ5E/s+WSEX84OH7boh9J54DTs/qV788Rnu9yp3iJZpPlA7jhigmfey5XqYO6UU2f1+XdX/8pzY4rT0sqDTOqEeyossgykJdvl5yf6d/s0q4niApit3nJf8huRZ8n/qTW6dL+lLrLfuKDO4shjwL+6VZRaZTrxjaVM/y5dLqlbsu1PFC2L6EkTWpg6aRpFH+s7zZo435zFDuUrf0NM8J+rt/+8md/96aKtdoP+TAx67vEkOPricSw7bV0G9TcMusEG0I2VjOY9uC30uERYVr5V+SQDSRyO8QOY+t5TuwN5sttJ4x/Tvv+OeQOuazbeoH7COFqlBD0T28W65AHzemfJIbLTR2Jb7Ofclsl+ba+qLxX7QQu7dUX5jrmCXd2E0EhdGgf5KGjmTWb/lxsEuw/STvMSCx4769kUCF1vUlf/0lOGhudWaTWt5yyYDnomdpBG5k2PlR2ru1SlGwvoj5sZ8JwvvTPnHW+lF9JvuZOjPJl6PNgPzhAsMepefp4m0cxETtsPAmnUer6nvsz7LG7Wy2qvWvqh8oHx+JAGxGrCxIponbwyjfcHwv7lDuDJRZX35vJxlX/PmPra075yv1icVr6S4Xb1xiF2kFdj1/nZ4TrsRUSNcPvOd4t/MDYapGaPemFWd8J9AW9Nk7P5OT4/NoPzIaHXnrGjUlyGdL27UWdX9PvF2vJrKwfvsbPX2jRttuXKNjGW3L7HDFUn/5tnaYiffoC+Q/GwtQsrvS4QMq1dtsVpcJ1XeJRNM7m+LGG/UjtAcF2vtrWSysFY81H6t+xlOjj9u/W9VJayr5mpiinV/xTbfIlxovGh3C9VvaMpD8W/2PtiBYovPNiu+D9vXFZmb6+R1RzSJWb2O9njv2+SOx34q8c+xkKtzMKvz5qH5T6KOvgSn3MnSUZsU9if+OTi//3l/vQBrw+b8k+eYZYPYn6X7gupvrIj7vpPqbEjYJ9zISy2kIsbvN3R3E7Eke4DfujmY2aOkx/TZA6K+vkVs7U6JOd9MSgFCF7htoZpuiYW+LjuDFHQuH2a5/+JWulG//Ks2swljh2LVPOhfpVDkXsO9j6QPUb5hd4jOVPcsuhf4/7iXbcb/sqXh2Oxdew/8dj++L6/1veb4P1Wv9Sr5C2NSH2vwQHKIdtZNg5cgM/AACAMdjOTY6Qdtx5vEFNEZn6u7SdmsXTpY3bq1R/d4YqbqcO7JMB9W7Li9EB7T507c3HZptWeYAtbXxoUAEKMuhR6zYPdga7tOPal4/O2io13p+jiic8ADAZbJsSFgYAcMF4+CXmKLUzVhvILKcCADhUZHmnFYyhJg0E6BcNBGgAAJgQr7gALW/LvfWZM8g16DxNCPmJ3Q+D60u7SBsf3gkbjEV+qp2s6xuDr5kP7ZAOwH6BAA2Kg/HwS8pRa2cgQANwJBls1rjPnzOzHewJCNAvGtk8ie03/ykEaAAA2B9245HGKyhA71Jb1q+XTXRSS424yBIdtWJrK4Ox6I1EKlTfyvk52tOuauMn/4O1V4Eh9WSNTNkAJ8eAssZkPbjzOwD7BQI0KA7Gwy8jR7CdsdpAGwI0AEeGx22qB/b4APsHAvQLZUDbN/Qux7KBwu//tzkNAACgPP0NWpJ46m+w8Eogs3HNBk2yPtvyKrU37U9IZfmNBtUuValRdH1PMB5Z+9DsUH76Uo0at53Ni2T5jeVFmrvaRh9pH8i6gGrtPLUuX4NaspmU87Po+sIc1dZ2CPNRwIEQ27QHgACI9S8nR6udEW1gTvflFj7Jbq4IAHjh7G6uUus+fmd3UECAflEEFxZPbx4DAACgGMFNHBZyNog9pvQfyI7P86PNE0UcvbBE9bUu7UI/mTyDXequ1Wnpgt1khI9TszR/dZU2HujOqpwDe2fwqEvt5SWaMxvryDFzfp5qNzZoG+MBcED0Q5v2YK1xkIP4CHg5ORLtjLzUzmzoB20AAHC82bMAjQMHDhw4cODAgQMHDhw4cODAgQMHDhw4jucxKfYkQAMAAAAAgCyT7KQBAAA4miDWAwAAAOWAAA0AAAAAMCEgSgAAwPEHsR4AAAAoBwRoAAAAAIAJAVECAACOP4j1AAAAQDkgQAMAAAAATAiIEgAAcPxBrAcAAADKAQEaAAAAAGBCQJQAAIDjD2I9AAAAUA4I0AAAAAAAEwKiBAAAHH8Q6wEAAIByQIAGAAAAAJgQECUAAOD4g1gPAAAAlAMCNAAAAADAhIAoAQAAxx/EegAAAKAcEKABAAAAACYERAlw4DzZJlpZJDrJxxNzDoCXliHRgw2ihdN88L8vCYj1AAAAQDkgQAMAAAAATIjDEyX6RAv8bHn+uOO++UqGXvh694h+FxwozwdEWy2iizNOeUCABi8xT3eJbteITjnxZeEz8+HRBwI0AAAAUA4I0AAAAAAAE+LQRYmHG0RzJ0aCjj3O1vizgbloDN+3iV6bHn331DzRvV2i5+Zz8OKRWc8PuQy26k65QoAGLzHfdokes08vvznyaQjQAAAAwLFlTwK0NLg4cODAgQMHDhyv6hEj77MXR5/ockULOva43jOfFeS6EaAvrBI9M+fAEYDL9h1brhCgwTHgSXsUpyBAAwAAAMcWzIAGAAAAACjB0RegmacdopNG1JHjbNN8UIQB0X+fPtg1hm/W+N7/Zf4AKW5+kGN3eblgyxUCNDgG9DdGcQoCNAAAAHBsgQANAAAAAFCCl0KAFu7WtKhjj0/75oMxPGwSTVeIvhqaExNGieOLRH+AAJ1BbPPaGGH5ui1TCNDgOOCsPQ8BGgAAADi2QIAGAAAAACjBSyNA05Bo2V2Ko4hguUN0nq+9+oX5e9Jwmq7P6rRAgPYwtpmGAA1eJSBAAwAAAK8CEKABAAAAAErw8gjQzLNueimOhbb5IMKdKl9fI/rTAYnD6++ZtECAzrDONrG2gQANXhkgQAMAAACvAvsSoPubS/T69AwtbXo/6Rz2aXu9QYtnKrR635wzDB51qXW1SjMLG7KKHQDgCJJXT/ubP6WZqUC9B0TPB7S71aTFv8rGvqIMn2zTxsoinT65KkOyF8aeyvVJh346M00zVzrHK55zvpZOTal8/RH62ItluE3NCxWqXGjS9iRXf5D7zp2Y2H1fKgFa+KquxR11VIjWIzX2UUt//vkB1ejNGtG0TQcE6BRim6SMIECDVwkI0AAAAMCrwOQF6Ecdat6oU/Wk3iV+JMIMaHutSY0rs+r8FHcwjpVgcYTpry9qm9vj5CJ9ljPo6/HAZpoHiKnv4IXBK8Konk5Hyh0CdJjhww1a/cUSzZo6sxcBevduk1Y/rFJF3QMC9KEBAfrwOGoCdMTHpY7HyPvs8OBMu0txBDcX3CWqThNd3jB/j2HA19+uEV04Pbrv+XmiGx2ip+Yay1OOZu/OjK4LHXsVnh51ia7yc884+Ts1S3SlQfRgTGR6xOlaYVuk7DEg2uTvnjfpPVPlfBaMxs/lu6ucV1lixE1LneheJC2FbOOVSVCADqR7bdt8NoYyZenymO9v7Wf7ldwWUvV1vgenY5m/XxZVnpx2bgMT+mwjOadm8nM5X1jivO6YD3PYj2+4ebM2lrxdFPtG8raf51ky95D88t+3+XxeWQjPuZ4/4DQucDmKz6giYb9YZ/+bkbSwDe/66eDPt1rsg3PGvuY4z3+v8D3yki3+Lt8Vm1x36sg9PnfJ+NJJ/lfy/5CvjcLftc9148CAy3iFy5rbY2WHS+yjD/Lu82I5mrEeAAAAOLoc2BIcvZVp1TBnRJgnbZrn8xCgXzDDAe2s1xJxbOr8R9R7Zj4L8bxPG1crNHWxSd/82ZwDrw5cT380zXUYLx5KMqTu8pQS7/c6A1oGYg1VT1+sAJ3L4za195wfAI4+w3tt2gjMJJUXuPqF7GLq85dPgGb8pTh8ofnTxfGb31k2RdCa06JYf6AFzPWGEYr4OMmffeUIRSKMDeS6HaL5aZOGeaId7mCo83KUfePA31nh58iM6sutkTg35FbrhgiYJi2uMCbI55JWVyS0Qu5gm+iSe945/Pv4POA0SP5Pcb5EHJU8PeZ/b/Lf9h4X+Lm+iOja5h1zndjme2sXOTzb+AL0s32ku2xZxuwnAvT9VeecOYrMpg/e0wjQqdn73nHF8+EETq/4hlyT8Y23R9//h6/NB4Y838jN2x6fl4Lvccv47TXOl73HU/aLa2+O7pE6OJ0P+JonVix3PlMCNPuNWm/dOS/5scl+ymV+QfLKxx1+znNz/gn7TOJP/P37nv+Fnqf8jPOw7D/PHjM5vsDftddZAfrbJscjGyvcI5CeQwICNAAAAFCOgxOgr8cE6A1a5PMQoA+Hwd2aKhc5Kjz4zCsDNXOaO5SYAPgKwvX0PQjQe8L+gmA/AvSqqqNHR4DevVPl/CASgOOKvDhKC8wWaTMTAdoJhnnCw5EWJWJLcTxp63PtP+q/85B1imVW6G4gJnDbMRKNZoke+EIRP+/H9nO+x36W4EjWS57n55pzCbtEF+UzOapEj81pQQS9xwOihy3zuUnL9xxxZfbwzY7+fMBplRnFicjG+fne3MPHipPn+d/Qy30R07hNVdecWorkm5+3YJ/F6Qn4Y4IrQEu6L7IN7nGerYAoeUvKgfMfKithL2X5lJ8jQrU8w+ZJ0tHj6y/U2GbsSxdOmPN83OVrxyFCfZ/ve4vvY78nAvRDtpud+XqD/05mQTtHSGDfs284eUuewfe67+bNCrN82Lzt9XkJbNsbRrg9y3nO4N7jNNEy20LscYPTKc97zJ+Lv9527CcC9Of89zVO8xrX+9fs9zkfKtmOv70TWBf+sYkJclx0P+e0PuTnyQzxy44tpBxuvcnlw+m7yvXmBh92FnRyxMRj/q69RgRoqU/vsh12zbUy0/qOk7dUeg6PIx3rAQAAgCMIBOhXDe7UTS0s0iJ34KV8ZrnDGOoKChCgX2EgQO+ZYydAS8zmeLHaQyQAx5Phg1WanQoL0NJmTkss9OrjSytAS4vvL8Wxu6uFKNmccFw1V2tE87V3+Dsxbr0xuv/7/jIF3KJMRIDmfFwzz5D7hMrujpmRKkdQBHUEOBE5L9TVqQy3+T4yy1quC+U7mVnO9/gq1qNiPrWbL/Kx8Ik56eKmJ5InSyJA8zOvcrmFRO9ks0c+fhN4sTDRsjzH9lsapfk5f7bO918r2YoN2Zb2eSJWXqhml1wY8D3P22vMdb9z/WjSvmHyZn01k7cJPM8Ve2Pl4b48urltTnrISwN7zVm2iztDvM/fub3KMc08X/zWXitidQZOx1vm80S09nDTdJ6fd6mZvU7E5ORFhVwXEtjZlvZzEbDXdsx5lxL14wUBARoAAAAoBwToVw0RoK/36C/8r16Oo0KLkc2IIEC/wkCA3jPHSoB+tkOtyxUVyz+CAA2OI0+7VD8v9S0iQNtY+FZL5JiEl1eAZp5xZDlrhRw+TsmatlWiR+bzKFa8nsu/9u4Ho3uLUJRqRPiPSc2A/srMTr4SWTs6mZXKR7Cfw+cSQSs0c9XwwBHQZJanz61Zc4+6MlGcbcfubMd7/sVuesYIbIkAnZNuEf7UNXxkln6YRFnyPX5uy5Lv1ZnEem2OEJlnAxFa3eUZ/PwlvhESVpmxviH2MZ9L3sbN4t7v8z7lcsxND9Pne9trTnLZhnAF/JM1oj/l1S/O0y9EGI8tjcHnxvmj62N5L7DclyFiz0z/yCn3d0IvZwyJ3/Ox5z7W5IAADQAAAJRj7wL0cEC7Wy2qXZwJCpjFBegerarZRTIAdM9z14c7LMl57vy4g8Ph423aWFmk09wJU8OBfo+aC6fV5l2VM4vU+tZ07J/3qXdziWZPyT1mqLpcdlMpWTu5TvPnZ3Q6TlWpdruXecE//H6D6pf086dOzdL81QY1Ljc9AWnAafmpSUuFTl9YovqNGtUD9uvfa9LSBXO/k6dpceUL2slbs7koRoAWE4jArDc7m+Vy8gdC+nN7rU82fR0vfUMaPOpS62qVZhY2lM0HD9lG7C9ix5mLderY8hzs0Mby21yW5l63vwmP4fi6zootSylnXRZ9+5PTcTzdpd56gxbZPzZ40Dv8tkXzfK/KmdooLYL40pU5nR4pp4UGdb5Pp2jwqKf9Ty1jMqTt2z+iGbn26j/S/znl+vNIwFX2tOf36c9v7smf2f9u16h6RguKYuu5Kw3qhn4OGhOgx9R7ecbOZoOWkvoyS0s3u2z3Os2ZJV/SdnBjhBVezZEZ6BdM/7Nd2lblXNH3VjZ7z/Gv7cS/lB+btKZ8siCDhx21YeOMSU91eYNa1+JrQI+vN8IYATrgn19k/LNL7WXrn+n4FMxnqFyfdKl+wdjaPUx99ut4yBtCDL93bMbHzPl5qq1tp2PqsG/K0NSTp259qHLM3InGiI3l+SRGzFysUcvO9rK4cYDvnY0D2djlMrjPdrKx3sTxxpY3Y82z539JveA6UHXqrbWXiovmflLXP97+i/lkDEE/lxjCzxjj518ERL9C+bJ4sTh7GN9V5biq7KDrg9MGqjRmY30mFhagSPsbuu/woS77TPrddm/QoQ8kFnpLVsl1MfI+OzLcb2gRxx55s2AT2HLsX6nvjT0qeo3aBLbipATocYwT/STqXLXpjAhsgoidUQHasUloGQOfm+fM8/i4GphRXFqAHpNu+6yMAD2JsmS4r68/m1RZcrqS50VEVstNZ3b22V+bkwUZ6xtMERsXZdzzXGE1lp5CtnGu4fYrKggXooA/ugJ0pm64uC9f+Ljlz3B2052zGalrx0Af60XzUsR6AAAA4AixNwH6aY86mzzgU7OGpvYpQGsGW3U9ePRnRg961OBOiyvY7W5tUOfWIp1Q6zKuUvdbHjhfbVHnHqfr5jy9LudP1qjzeIdaVxepvtah3maLloyYUv3X3+sbjaVPG5dnqHprmwYicj4f0PatqkrnzLUvR4LJ0w7VTs7S6j1zhgfd3eVZlTa3O7Zza5ZOXG4nS5oNePArP21P22/Itpul2Wsd+r3SIYa0u1mjNzlPlQstCv0orRSOAG2fJTaZOrlIn3mDh7AAPUqfzodOn8ymlvR9py4esL07tKFsIGXapq/v1qm2skHde11qfziny/p8k7b7XWosLNHqepe66w0jBlSo7s0MGj5qs61mqba+k5SFbKqo7cJ2HiPODx9yetZXqSriDPvSJz3236t1WjI+XDOzW4Zsn9nz7DuP9POHj7hs5ZqTc9R6qM7QDvv+xo2q9j/OW+9zztvykplRXqMv/vxfjj97wpz48zmpG8X9WYubfN/d/fjzgDpXKzR9tk4dkyDlf+reder5KlBIgE7qva7bmXr/bJualyrsG5/Rjtk8Z/ikR6t8TvuBU7efc14uSn6zMWJ3zWz6lRrMFEz/oy5tbDaTJWZWt7bZZjVqbfbYZs3Ev2p3d2nnTo0Wl9ts5w613jc+ebFNvy84YOt/vsSxhn1yc5e9gknqvXl2Kl959eZjr17HBejx/qn9SfxT+x/7p9Q9lU8uP+u3nM9EbhpTrvaFQXoG9KiOi9ie8fMYD5sqz4u3d0jNlXvep87yOXX/6ppOkaqraw2qvmbqybecx1n2+xur1LDlxMesP4CVtuVUlZr/ZmbhPWV//NsTfO0M1bYGKo75caB9348D/58Xu9ICtKwHXJk6R/W71gnZj38s6dQxS13q2/NT/nu5Rg2Ocb2tdiLqz3K70v+qQYvvr9LGFvvtiq3rgfroY/1c2Sjg5zM6TXE//yQ1mzfJV8f8TF/ytSA2ycZimT27yvaqXGa/VWGTY/Gd90y5jOKassN6W/unk0aJ9WIHfT59fxsL9b0KCtAF2l8/xvr3lV8tpNKegvMrsdATVyRPMfI+OzpwfiSd9igi5th1otlWexfkuO4ctAD9iPO2sjTaRE8Ov72yFBVyYwK0WqPY3EMEv3Gk1uD2RURO44sSoCdSlsxhCtCu+Dn1S3NyDJP2jXEUfZ47Azr6MqiIbZxrxB/3UiSy3vI9/u4VO7NfjogNCgvQzPXK6NoV/1o33RCgAQAAgOPKvpbg6HOHSYSiSQjQ0fP814YaCPuDwx41ZFDI51uyU7hD77qIDjzAF7HHnR1rn/HOJ94zwohgPPV+h4fXLrvUektmOI4Gzv3P36Opv/bFYb7uojvQ3abVk1NU+216dtuQByOu/ZQQcLYpcwUchtT9ubaniDT76uKnBGhBRHYrEKbtEhKgB3c/CKdvWcrIE0N5gDMv9z1fpy9T0whtmVa0uG/OKjh9J6Rc3c7pkG0ngsdyVwt9Drt33lbPrVzt0J/HGsam8xxV/+lrfa/nfdp5sKvT8LRDH7x2jprfyh8jpIyUfVxxctiln0k6z1apaWeP93do+5HJTeLPvjDHeVeCVRl/NoLVtS/27s/22tQgVERdscc8tf2BBV8fW4Kj/+mPVHrS9V4LxFMXW1kB99smnVO2SNdtLfoEYgT7gFpz1R3M5KR/OpD+3opeBmPxzk7Gv5S4JSJuaua09cl5+qTIIJp9W9JT/Rdf/N+m5tnsDOhovWZ/lGut+KqJCNA5/qkEe1dUHnSoJvc4tUTt1Oxojkt/E/K/WLny+aAAbWA7/CjiJyF0u+A9+6Hxj9SA1Ma8czS/0iV39VL5ZYwWKKvUTspwh5ocI5Y2tdCc8KhFc3LtyTp9/Zek8o7iwE2zBr4bBwQbuzhfo9BlfSRdLhITxT7zn8pM5xHWnrMct/4YqrcnOXZ4a5tKXZeybBQcWPdWxEbaz1M/fh/j5+k6M8rX104GxGdtvly2b8oLg3P069Saq7vUNi+UFr2fcu/c0i8Y5rh83dwmfpsRLTgWStp9/49QrP0VbIzN3jdfgO5Te346YwfJU4y8z44ObAVJpz2K+Bz7lb7+HNdbc640bMeDEKCHfN/1BtGZGaIF/pfrM605YpUX1xL2K0BzPUmeIYLfOFzBmn0xDaeR66L+LCc9wn4F6ImUJXOYArS7JEWeHQ7SN0Ls5XnuGtAxP3Lze61rTvo49pP7lCmSJ9xDWeF0njrN//J3ZWPIcf6Y+BEfmVjuIRsiumlL4aYbAjQAAABwXNmfAM0dgcMUoPXSHdnBpF26I5suLexMT32U+U4WvlZmJwfWRbNrvFZuaDlJCxDOrDhDf33Dec6OFqYW7KwxS482kmfovNr7uiTLkVzO/iS8FNxZnPJEZTujTYQwd1PCrADN6eOBYzh9WqSauuyUX1Km2TRHxUf+ji98DjaX1LX10OY+Tzu0JM+YqtInsV3eHfRzwyKj8ufXVj2RkLH5YB/8LMmI8b932qP8ujh597wiKkDH/VnbdjGziVAJfx72qHGqQnN3vjMnNGXKwRKsX0ZEzAiAQmKLfQjQOemXuujfI3Y+Xi6j9Ixf63hIvWV5KZD91YBgxe/Rs/PqtZntnfp5vy5X3xfy/FOVlfhUchNzj2A+5dqsaB+Lm9b/wgJ03E9C7H76I6qcqlPXjYGRMgmK1QpH7LRpZZ+ppPJvsbas0Ef/Nkq/LuvAixeLk6ZR7OJyX5nJ/hJFYqpc68VV155py4XLV7D+kG27woxvZ8N+nvbPUb70L1gMTr5G9Kn9jqQ96/u7d+aS/LpY/wmlUflOYCZczD4hirW/At9X1ZPsfbU/hHxNGFDn76czfQHJU4y8z44ObAVJpz388gnBPpFcP25N3Chsx0kK0M/5fjffIzpZIfpwg/sE5rzAvpekN1anuOyTtOTEA640+rpUfWBcUe1saHM1D7mXvZ59MQ2n8YUL0HzsuSyZwxSgU9cGZkAr3+B0HaRvuOzredy/vW5nHJ/j8gn0d7kvrD6XjUOj6XFswvE/2yEL0OfvLJzm+85x2rh1S16YFvBH14/8uuHjXosZ0AAAAMArCQToGDY9eYcd3A+3qWl+Vj3zboM2HmTtIfS586iXB5mjpdtd2s30+e3AO+9Iz1IrjYgKnlCi4Py+p37OrTcllM+VcJC61to8lC57OLZNynQ/AvRodnXmWoX1Dy7vjcAu7x5WaAgKh/yZEgNVPsLHSIQztggIPAon7+nPD0mA9kjWuDX5Gl8OI0L1y4pPwTJKbLEPAdpjXPptWYbyFS6XUXrGCtDDLtXVc8N1MfvsYvV6lFt7fdoXivhn5pnBfIqfZW3zIgToFEO7zrP9BUb6HnEBeuRv1kdsGvMOt/7oso4JjozjJ9EXfk93qStrkqtlXfjw4urLI0B7BPI1wgrQ2Zd4SZzyhFp7PpTGsO/E7ROkYPur7huJseP8Qezsp1+eFyPvs6MDW0HSaY+YP7g8ao2uf7+zx/VluXwmJUA/7RJx2dPULNFXARGVfS9Jb6xOcdknacmJB1xp9HV+u+SKalM1eV+Rj9zLXv8W2zMFp/FFCdATKUuG60aSjsMUoP01oF+Ub1gm8TxxnhXZFJCvOVklumevGxJtNficOZ+7T4BjE46tY8vVbp54vs55MOcSCvjjXgVorAENAAAAvJJAgI4hQi1fG5x1G2RA22t1mlNri05R5UKdNh5mO6HDx11qvms2aJuaofmbziZ6xgZzhTYD2iOSL08osaj1ZVW6Zumj3l+0cOBey+kTwaBw+pIy3Y8APRKYY4KJvVdWoM1ihYasAK2fM/3Wx6NlDHIx/hcQeBRO3jP+fIgCtGxGtnjmNFWvtqj7aFCiHEaE6lf0PkJii/0L0KH0h8S02Pl4uYzSM1aAtvfgsiokQJvri9drXa5pX9iDf0bzKX6Wtc0LE6DVRoFVOn1mkRrr29SX9d0Dac0ToO3yENZHdNnVqVswXOvr9yhAmw1CT8sGh1u7NLj3ss+ANki+fvyDYL5cdteq6vzS/5Na9MMszeEui6Kx/hNK40QEaEWR9pfvG4mx4/yh/2kjM1tenhMj77OjA1tB0mkPv3xCDLvOd2b5FgU2zFyvEz0y/1dwaU9EgN4hOm/Scu1Lc86DfS9Jb6xOcdknacmJB1xp9HV+uzTojJ4xVSHy10z3cZfgyIhwnMZxgp+laLrts3wBeiJlyRymAO0uSZHKn+sbnM8Qk/INxYSeJzzje73D5XF1ieiMCNryHf73Av+9xvcOaNtpHPtxbM0VoF1f3Ar5bQF/dEXlQJ8tRfJrAc5PJt646YYADQAAABxXIEDHMGuAnruZ/dl8Ls/7zkB4lvMfHozIDM7mu6+rdFaSn9+btS8z605PkBwBWpAyVWuHnlyk1ZV571qzhmbR9CVluk8B+rK+1l+D02Lv9ctxwiFjhYb40glL1MnMAglh/C8g8CicvKc/PywBmp97ZYamz9ep6ySoeDmMyBOgg2vXRup29NlBATqe/pCYFjsfL5dReooL0I3CM6DL1Wtdrr4vlPbPaD7Fz7K2eRECtLzkmjtZSa9ZHCmTIgK0FfVlPwJZhsFfHzuGLuvyArRsPDnDcb2+5aRUYqpc68XVl0mATvL1WyfGOPlKY+oitxFtsxmm3lC3QnO3fUFN5ymWxskJ0Ibc9pfvG4mx4/yh/3kzs7yL5ClG3mdHB7aCpNMefvkE4Qh21flO7lIADJcxnfeXpWBDTkKAfuAIX7GNeNn3kmtidYrLPklLTjzgSqOvy9QH9rFlKxTysRwRIC3JJoRVIu9ljbLNixKgJ1KWzGEK0Byj9HXniLadZ7u+kdpfwWFSviFM6nnPOO8XZog2I58XwrEfx9ZcAfqG9duQLwoF/DEpAz4ydcPDbkIYXKrGTTcEaAAAAOC4AgE6xrBHdRnEcqc8PCjtU3tN36W/3srOvPu+RVXJT7I5Xo9amRmQA+qqtWTPUVNtAmPXNo0J10Pq3dkoOAMygogKnlCShp9xfVaVq9gwfS2nryo2L5i+pEz3I0CPZtyFBTyzkV5qk7E4VmgICdDyHMm3uw62y/B+izaSTrrxv4DAo3DynvHnQxCg7T3q3fQspzLlYAnVL7skQmW5R5liiNTt6LPZR30BOi/9vpgmxM7Hy2WUnrECtNhdCVzn6NfuoNeQfXbZeq3L1feF0v4Zzaf4WdY2By9Ac5pkmZ+3WukYFikTnc45avkz7hjtbyPBeXivrl6cycu8zIxl4Umb2vfM/xld1iUFaHvO3wzVEWrdR780ArSTr1TddfLlM+T27YMrtWT5lJnzS9TY3An6pfWfUBonIUAXa38Fvm8kxo71hwCSpxh5nx0d2AqSTnsUXQc4tYkeH7IkwJbfK+ECucfXneLPM77Mn/3cipbzadHy6U5gGYAIrvD1/hfmpAvn54ZZzkAOm47nfD7xF/7Psvmcyz9XyGXfUdcF6oPEl+Q5HOfjm/rJ84wI94/fmHMubnrYNm56fNus2OvGpNumKyNAM/suS+ZABei6U1Y+/MH1N/R1XM9TQTblG/xZhiK+wXBc0Nfk2FiYyPP43GXxjYb5e6849uPYmtPZd/LHxyanxWewTfSWvcaxwcC51s27vHyJPY/HVHRWruM8BmONm24I0AAAAMBx5egI0HZd1bO/Tm+y9bhDtfMyOPQ3jIoPJiciQDM7t2bVfaZOzVPz3i4NzVIZQx4IbFz7IdXNTy3ledWMuLxDrb/m7zoC9OrJOnX/M907G27JTD4rQHO/7m7NzECeo/pvvqOB7Zw+26XejSrNr+06/bsB9dZWqX0/1JmLcL+hNn3K65NKR3jjJyd03j1RRTZ8StK3vhNInzMTKSnr/QnQ9Ix9w85oe+CODhjzomD21s6YPGn0c+fo438PXP20Qx+YdbDnPtygnafmWc+HtHtvlarvtOn3ydeM//limiXx52bGnz+YlWeU8ef9C9DW3umfzQ+oc80thyENrXlD5WAI1q/HbS34cBnVu+mf5kv6lc94dd6K1rJx4YgBbd/SQqu7OVle+qf5vJ9+uT4lslkcn8xEB/OM8QK0ExsWPsneJ7MJodQbp15n6s3bql6P0OWa8QXPP78L+OfoLmbWdTCfco+sbcYJ0In4/7RP/QJ+ksFe69eJh02ac9I6fKZvbtMpyyClS2SHmtImpJ5pzvH1M+/+mnqPbQKHNHi4QbULdeo56qqNAyFxW+H4SRK7rCDrvQjTm+DxeRMrbfpfGgHayddIrNU+a/Ml2Hype19s0U46U1H07PRwGicjQBdpf4V4jPX9Yfik75RxuJ2VPMXI++zIwPbnhI6OwksEsR/cdMS05JgheovPy8Ftsjp3mZ8R4saJ0fesMPqUo8LfrarbF4LbnNGzK0S3+Puqj8Y3eMCfXawSLZtN2+RY4HN9vua/1aVIDex579h7eIKviwjM7DvqOslTyPe57ibPOs/5eGbOu1ix7gL/+5/mnE8yK5UPK3aLba64tuF0JzNT2d6xOOau83w5JOrttyw5HT+xAjSnu0DbOR7Os5uWyC/f6NumLpOQrSflG5ede/jxy2USz0teBvD3f8G2vsd2eMRpELHXPUJ+5eIuS3KSbZNXJGucruRa/v8Dk5ghP3eN03axQfS++VyOtR2+htP5oTPL3xWg815C3HxTXxN6gSO48eitj83JANxvTK4LbBL/onkpYj0AAABwhNiHAK1n74r4c26lN+qzCc958KdmyvJA2vs52mBLz1SbOvtL6qW+JDNZ9f1mr7Soc69LGytLVPu8R201A1rON6i5tq2f9X2L3laDyUVvzUkeLK68oa730zW0a41mvhPh2TY1L5kNsrxjlgdNdiyghYYZWuLOmRWW+pzP2dSMRz2orlz4JXWtODJgO12uOEtwCH3qXDPilnekr+OvW4FgqkadlC0jPOcyWznHtm/Ql38y52KIyCCirydAj0ufKzQPtn5myrpBX7u64fPdpEwz/vFVg96QcuXvuP6RrE99aonadm1PWUv22psZu0QZcHmqmahTVP2nb9I+a+jf/cCsg+0d3kz4AQ9+tP9Vqflt6E7an+W7WX/WdaO4P8vaquzPv/p6z/482LICaJUa613qrq9S7WqTVnlwIfdevNmh9kqLtq1rsv+eEBHYKwdJT/fn+uWEX79khq56Bg+gTi/UafXGKtWv1Gjjvl3j13vpxAMuZWuTpt5mi2pXmtTbMjOg+Xz9RpM6PLjOS7/EjFT6Jf5wOavzvn/da9A5uY+fr6Hjk7Gfc7s84/p8QceryqVV6vJAcTDYpd6tGlWNEFq5VKfmza4RhfPqjWcXO3szUK5F/XP4YFXnU2KDO2vOi82j6hovVxtnKpc+os7WBjVWOkl6434Sgp+tXr7YOsFltlzjMq5rAfpsndqbTWqYnx9bcXXqfI0++525OQ+Mu8tvZvIrDLlOVtWLKv/wZp67ceCmqX8ewdg16FJN3b9C1V9sUJdtsXq1Rs3rS/o5C036Yq1BLfWSLG3P1CuZx5F6a+KziMOZNjVEtCz56WP8PFU33Hz9z8+C+eok+SLavsFxTTbSvcE2uNejnnPsPB4kL2oVz/u0YWLM3K30DOmo7+T4f4hi7S8TjbHyQknH2NlrbepyHKrf2R6175/rlwJ+OyvXx8j77EjwjMt+eVaLOPY4W+OYPNbrDGyd2/PEjpS+h3tcacfFMn/mrToKrkOcwGm47uXBHhcaEnKzz2G/TT1DxDT3cxHHXP8VZJaqPCfJ6yLR79IvWRPu1keC7Sm2z+YOOzp/v8/2vr2k73FtI19EjNkm8WX+954r+vEhM0/txxaVbiP6qYPTHSzfvZYlf+9hS4vA9jrZyO6Jn5CyuAL0DNuRj5t8zj7/ucm/2Jn70+EZ83xNnm/Iu/xc3zB5cz+XvP0hlrf9Po8JlnvsqBBx/yJTnkP++7bzIkSO5S9V8oJwPyZZuzp18P1/xd+TusCxMeUbFz5K+4IrQEtZid/fY3+39UhizY0q34PvuRJZnkbSnfJVtqW7zJXlqZfeBS6jor+YOCCOfKwHAAAAjhh7E6BFnORGVxre0WE25Ip8xt0GM8sofaRmhz3bptaPf6AG/vKT3ta/SSdfluCYSTYdE0L3mZJZNMFna6Fi7LNj8AC6d7tG1ZyfGvfXf0qzb83R3Hm7uWCFTnPnML0JUo9Wz/A1fN1pK5KcmqUldxPChAHtbDZoydyvcqZKtdsBQeJJh5ZOcZqujAShGHbWm06fPfJnmCnRNyNAC+PSp5dNEZHDfZ6a1cf3dM/pQ3xHf8f/LDUbtd+j1tVqYj9bFhm7hAg+N/yT68HDDjWuzNKMXHNSb3jXczq5Qf/zxVVB/Hnh9Mif1ewSzuePXx/vzzIQzvVnI845R/6sySFt88DkB2I743dSu4Y8AJc1eU9zR37bDCqCdUVmX+fUbc1Q+YX+Wb7cs0lfy4sO+72Ajfo8YK+yDys7L39Bu1IXuKxO/JXZoC6paNn0i/Uk/T98zUl/Sf+yPqkEb/ezwMzRDBIbbi7RrKSfB8qzIp7zl3rXK/QDzrst3xHj67WdNZs6vBlDe/JPiY8h20iZjC3XPnU+nKMTUqZX27Sj/CRsz8wsVx+OWfWLkn8TI7+XAub7X+Fzp6pUvzuyuvbxRWptbVD9kq5H2k82aMc3rSUVI6RMGtRRzzCMjQPh2GXzNfy2ZfzblLfYfbhNzQsVLs9F+nj7L2PqrX+eD4mxkTIIrTGuCOZDfgkRTn809poZ3uPy1fp2ZMP+Vi38EsQep+b19RE7fPaHP0Z9Jxh7cuMap6dA+xuNaRaJ1WpzYO5rXO+m2xTOx09npjPtrNwjRt5nhwr7ACdu/MF+UQiZxbmy5GyWNkP0bo3oXn6ZKe43zff4WGgQufW0MFxSsjGefT7HVOKYOoLTwbFLP4OfZ5PFZZrKr3+o/PPFyVrVoWOR76Nvl2IgYjPb4MLp0bXc96PlNlGmTYggtvmrgG0k3a7g6x+Sbm7rRrOjQ0ck3WXKcqwf8edjO9cxuPzc+wx2wukScT+XPfpGkbwF2ePzEriM15xZ0oUOtsWW8SmOceFrzOH1IxLEvsucVm4zVdousW3dX3twm01zJ/hz9md5EeCPV1x7yTO4f0JXOJ/qfnxwf42u8jWxl1vuLwdCh+l7Bj+zR9F4dQAc2VgPAAAAHFH2tQQHAACMxQpRIZEegAhWgA69JAKHyKBHrds96g92acebAd1ZW6XG+3NUWSj4q5SXmJdSgAbgyNPToqI6YmLvMUWE1oucZ5kxz/FUHZttoht8LjnqemkUWZNbbBTc0O8F4gvQrxiI9QAAAEA5IEADAA4WCNBgD0CAPoKopWfq1MudrMrXvNOGAA0A2AOvqAD9tEt0vhpfzzvEpzJ7ODKj/UUBAdr8DwAAAABFgAANADhYIECDPdBbEQHa36wTHB5D6i3L+s916kZ+TS3I2s71uzkXHBMgQANwELyKAvSOXttY1vIug1qaoq5W7zg0IECb/wEAAACgCBCgAQAHSnzjUQAiDLZp9W/0utz+Bnvg8OivL47W4r7aoJZsHuosv1FfmKPaWnqPhOMKBGgADoJXUIC+ZTYwLCvgbi4RLR+y6AsB2vwPAAAAAEWAAA0AOCBkw0UtIrrHuE3FwKuNiJy+z+gN9sBRYPCoS+3lJZo7ozfmlWPm/DzVbmzQ9itUtSXfMfI+AwDk8aoJ0Gb2s+T35GJ8sz4fEX5PHfLyGwIEaPM/AAAAABRhTwK0HXTiwIEDBw4cOHC8ikeMvM8AADkMu1rMVEfDnDzODIlumBnQ6qgQLdSJNreJ+gOigXvsEm1t8OeniU4tET02tzhMvuK02rSvQIAGAAAAQD6YAQ0AAAAAMCEgSgCwB54PiO68NxI0RYy9s8PnzefHFs73ep3opM133sE2+fAz9ZVD5ymXzWVOj02bzOD+3Z/Nh68GiPUAAABAOSBAAwAAAABMCIgSAJShT7RgRMzY8Sos7zBkO2y2ia7MEZ1xhd3TRG8tEa11iJ4cgRX21eaHTtmEjvvm2mMOYj0AAABQDgjQAAAAAAATAqIEAAAcfxDrAQAAgHJAgAYAAAAAmBAQJQAA4PiDWA8AAACUAwI0AAAAAMCEgCgBAADHH8R6AAAAoBwQoAEAAAAAJgRECQAAOP4g1gMAAADlgAANAAAAADAhIEoAAMDxB7EeAAAAKAcEaAAAAACACQFRAgAAjj+I9QAAAEA5IEADAAAAAEwIiBIAAHD8QawHAAAAygEBGgAAAABgQkCUAACA4w9iPQAAAFAOCNAAAAAAABMCogQAABx/EOsBAACAckCABgAAAACYEBAlAADg+INYDwAAAJQDAjQAAAAAwISAKAEAAMcfxHoAAACgHBCgAQAAAAAmBEQJAAA4/iDWAwAAAOWAAA0AAAAAMCEgSgAAwPEHsR4AAAAoBwRoAAAAAIAJAVECAACOP4j1AAAAQDkgQAMAAAAATAiIEgAAcPxBrAcAAADKAQEaAAAAAGBCQJQAAIDjD2I9AAAAUA4I0AAAAAAAEwKiBAAAHH8Q6wEAAIByQIAGAAAAAJgQECUAAOD4g1gPAAAAlAMCNAAAAADAhIAoAQAAxx/EegAAAKAcEKABAAAAACYERAkAADj+INYDAAAA5YAADQAAAAAwISBKAADA8QexHgAAACgHBGgAAAAAgAkBUQIAAI4/iPUAAABAOSBAAwAAAABMCIgSAABw/EGsBwAAAMoBARoAAAAAYEJAlAAAgOMPYj0AAABQDgjQAAAAAAATAqIEAAAcfxDrAQAAgHJAgAYAAAAAmBAQJQAA4PiDWA8AAACUAwI0AAAAAMCEgCgBAADHH8R6AAAAoBwQoAEAAAAAJgRECQAAOP4g1gMAAADlgAANAAAAADAhIEoAAMDxB7EeAAAAKAcEaAAAAACACQFRAgAAjj+I9QAAAEA5IEADAAAAAEwIESVw4MCBA8fxPwAAAABQHAjQAAAAAAAAAAAAAAAAAA4ECNAAAAAAAAAAAAAAAAAADgQI0AAAAAAAAAAAAAAAAAAOBAjQAAAAAAAAAAAAAAAAAA4ECNAAAAAAAAAAAAAAAAAADgQI0AAAAAAAAAAAAAAAAAAOBAjQAAAAAAAAAAAAAAAAAA4ECNAAAAAAAAAAAAAAAAAADgQI0AAAAAAAAAAAAAAAAAAOBAjQAAAAAAAAAAAAAAAAAA4ECNAAAAAAAAAAAAAAAAAADgQI0AAAAAAAAAAAAAAAAAAOAKL/H2z80Cx1RVO6AAAAAElFTkSuQmCC;" vertex="1" parent="1">
          <mxGeometry x="137" y="996" width="922.5" height="82" as="geometry" />
        </mxCell>
        <mxCell id="bIEeLJ-2RRx14gN9JyyU-5" style="edgeStyle=orthogonalEdgeStyle;rounded=0;orthogonalLoop=1;jettySize=auto;html=1;strokeColor=default;align=center;verticalAlign=middle;fontFamily=Helvetica;fontSize=11;fontColor=default;labelBackgroundColor=default;endArrow=classic;curved=1;" edge="1" parent="1" source="bIEeLJ-2RRx14gN9JyyU-6">
          <mxGeometry relative="1" as="geometry">
            <mxPoint x="332.2666992187501" y="1005.3333984374999" as="targetPoint" />
          </mxGeometry>
        </mxCell>
        <mxCell id="bIEeLJ-2RRx14gN9JyyU-6" value="A paragraph with display: inline&lt;br&gt;This inline box is wrapped to the next line." style="text;html=1;align=center;verticalAlign=middle;whiteSpace=wrap;rounded=0;fontStyle=2" vertex="1" parent="1">
          <mxGeometry x="236.5" y="897" width="243" height="36" as="geometry" />
        </mxCell>
        <mxCell id="bIEeLJ-2RRx14gN9JyyU-7" style="edgeStyle=orthogonalEdgeStyle;rounded=0;orthogonalLoop=1;jettySize=auto;html=1;strokeColor=default;align=center;verticalAlign=middle;fontFamily=Helvetica;fontSize=11;fontColor=default;labelBackgroundColor=default;endArrow=classic;curved=1;" edge="1" parent="1" source="bIEeLJ-2RRx14gN9JyyU-8">
          <mxGeometry relative="1" as="geometry">
            <mxPoint x="646.9333984374998" y="1057.60009765625" as="targetPoint" />
          </mxGeometry>
        </mxCell>
        <mxCell id="bIEeLJ-2RRx14gN9JyyU-8" value="Another paragraph with display: inline. It has some padding. The horizontal padding works as usual but the vertical padding causes overlays. The same is true for margins." style="text;html=1;align=center;verticalAlign=middle;whiteSpace=wrap;rounded=0;fontStyle=2" vertex="1" parent="1">
          <mxGeometry x="592" y="1107" width="343" height="74" as="geometry" />
        </mxCell>
        <mxCell id="bIEeLJ-2RRx14gN9JyyU-9" style="edgeStyle=orthogonalEdgeStyle;rounded=0;orthogonalLoop=1;jettySize=auto;html=1;strokeColor=default;align=center;verticalAlign=middle;fontFamily=Helvetica;fontSize=11;fontColor=default;labelBackgroundColor=default;endArrow=classic;curved=1;" edge="1" parent="1" source="bIEeLJ-2RRx14gN9JyyU-10">
          <mxGeometry relative="1" as="geometry">
            <mxPoint x="517.86669921875" y="1047.4667480468752" as="targetPoint" />
          </mxGeometry>
        </mxCell>
        <mxCell id="bIEeLJ-2RRx14gN9JyyU-10" value="This space comes from a line break in the html code." style="text;html=1;align=left;verticalAlign=top;whiteSpace=wrap;rounded=0;fontStyle=2" vertex="1" parent="1">
          <mxGeometry x="202" y="1107" width="292" height="44" as="geometry" />
        </mxCell>
        <mxCell id="bIEeLJ-2RRx14gN9JyyU-11" value="&lt;font color=&quot;#cc0000&quot;&gt;Vertical margins and vertical padding don&#39;t effect the alignment of inline boxes but the horizontal margins and horizontal paddings do.&lt;/font&gt;" style="text;html=1;align=left;verticalAlign=middle;whiteSpace=wrap;rounded=0;fontFamily=Helvetica;fontSize=11;fontColor=default;labelBackgroundColor=default;" vertex="1" parent="1">
          <mxGeometry x="564" y="959" width="331" height="30" as="geometry" />
        </mxCell>
        <mxCell id="bIEeLJ-2RRx14gN9JyyU-12" value="&lt;font color=&quot;#cc0000&quot;&gt;There are two primary boxes generated by elements: block boxes and inline boxes.&lt;/font&gt;" style="text;html=1;align=left;verticalAlign=middle;whiteSpace=wrap;rounded=0;fontFamily=Helvetica;fontSize=11;fontColor=default;labelBackgroundColor=default;" vertex="1" parent="1">
          <mxGeometry x="315" y="24" width="331" height="30" as="geometry" />
        </mxCell>
        <mxCell id="bIEeLJ-2RRx14gN9JyyU-13" value="Block 1" style="rounded=0;whiteSpace=wrap;html=1;fontFamily=Helvetica;fontSize=11;fontColor=default;labelBackgroundColor=default;" vertex="1" parent="1">
          <mxGeometry x="153" y="1258" width="387" height="60" as="geometry" />
        </mxCell>
        <mxCell id="bIEeLJ-2RRx14gN9JyyU-14" value="Block 2" style="rounded=0;whiteSpace=wrap;html=1;fontFamily=Helvetica;fontSize=11;fontColor=default;labelBackgroundColor=default;" vertex="1" parent="1">
          <mxGeometry x="154" y="1354" width="386" height="60" as="geometry" />
        </mxCell>
        <mxCell id="bIEeLJ-2RRx14gN9JyyU-15" value="" style="endArrow=classic;startArrow=classic;html=1;rounded=0;strokeColor=default;align=center;verticalAlign=middle;fontFamily=Helvetica;fontSize=11;fontColor=default;labelBackgroundColor=default;edgeStyle=orthogonalEdgeStyle;entryX=0.75;entryY=1;entryDx=0;entryDy=0;exitX=0.75;exitY=0;exitDx=0;exitDy=0;" edge="1" parent="1" source="bIEeLJ-2RRx14gN9JyyU-14" target="bIEeLJ-2RRx14gN9JyyU-13">
          <mxGeometry width="50" height="50" relative="1" as="geometry">
            <mxPoint x="443" y="1339" as="sourcePoint" />
            <mxPoint x="667" y="1428" as="targetPoint" />
          </mxGeometry>
        </mxCell>
        <mxCell id="bIEeLJ-2RRx14gN9JyyU-16" value="&lt;font color=&quot;#cc0000&quot;&gt;Vertical margins between block boxes collapse. The effective margin is the maximum of&lt;br&gt;margin-bottom of block 1 and margin-top of block 2.&lt;br&gt;&lt;/font&gt;" style="text;html=1;align=left;verticalAlign=middle;whiteSpace=wrap;rounded=0;fontFamily=Helvetica;fontSize=11;fontColor=default;labelBackgroundColor=default;" vertex="1" parent="1">
          <mxGeometry x="455" y="1321" width="440" height="30" as="geometry" />
        </mxCell>
        <mxCell id="bIEeLJ-2RRx14gN9JyyU-17" value="&lt;p style=&quot;line-height: 110%; font-size: 14px;&quot;&gt;&lt;font style=&quot;font-size: 14px;&quot;&gt;&amp;lt;section&amp;gt;&lt;/font&gt;&lt;/p&gt;&lt;p style=&quot;line-height: 110%; font-size: 14px;&quot;&gt;&lt;font style=&quot;font-size: 14px;&quot;&gt;&amp;nbsp; &amp;lt;span&amp;gt;Foo&amp;lt;/span&amp;gt;&lt;/font&gt;&lt;/p&gt;&lt;p style=&quot;line-height: 110%; font-size: 14px;&quot;&gt;&lt;font style=&quot;font-size: 14px;&quot;&gt;&amp;nbsp; &amp;lt;div&amp;gt;Bar&amp;lt;/div&amp;gt;&lt;/font&gt;&lt;/p&gt;&lt;p style=&quot;line-height: 110%; font-size: 14px;&quot;&gt;&lt;font style=&quot;font-size: 14px;&quot;&gt;&amp;nbsp; Baz&lt;/font&gt;&lt;/p&gt;&lt;p style=&quot;line-height: 110%; font-size: 14px;&quot;&gt;&lt;font style=&quot;font-size: 14px;&quot;&gt;&amp;lt;/section&amp;gt;&lt;/font&gt;&lt;/p&gt;" style="text;html=1;align=left;verticalAlign=top;whiteSpace=wrap;rounded=0;labelPosition=center;verticalLabelPosition=middle;fontFamily=consolas;fillColor=#fff2cc;gradientColor=#ffd966;strokeColor=#d6b656;opacity=40;" vertex="1" parent="1">
          <mxGeometry x="884" y="265" width="194" height="173" as="geometry" />
        </mxCell>
        <mxCell id="bIEeLJ-2RRx14gN9JyyU-18" value="&lt;b&gt;section &lt;/b&gt;(block box 1)" style="rounded=0;whiteSpace=wrap;html=1;fontFamily=Helvetica;fontSize=11;fontColor=default;labelBackgroundColor=default;verticalAlign=top;align=left;" vertex="1" parent="1">
          <mxGeometry x="729" y="446" width="349" height="334" as="geometry" />
        </mxCell>
        <mxCell id="bIEeLJ-2RRx14gN9JyyU-19" value="anonymous block box (block box 2)" style="rounded=0;whiteSpace=wrap;html=1;fontFamily=Helvetica;fontSize=11;fontColor=default;labelBackgroundColor=default;verticalAlign=top;align=left;" vertex="1" parent="1">
          <mxGeometry x="740" y="478" width="326" height="89" as="geometry" />
        </mxCell>
        <mxCell id="bIEeLJ-2RRx14gN9JyyU-20" value="&lt;b&gt;span &lt;/b&gt;(inline box)" style="rounded=0;whiteSpace=wrap;html=1;fontFamily=Helvetica;fontSize=11;fontColor=default;labelBackgroundColor=default;verticalAlign=middle;align=center;" vertex="1" parent="1">
          <mxGeometry x="749" y="514" width="124" height="37" as="geometry" />
        </mxCell>
        <mxCell id="bIEeLJ-2RRx14gN9JyyU-21" value="&lt;b&gt;div &lt;/b&gt;(block box 3)" style="rounded=0;whiteSpace=wrap;html=1;fontFamily=Helvetica;fontSize=11;fontColor=default;labelBackgroundColor=default;verticalAlign=top;align=left;" vertex="1" parent="1">
          <mxGeometry x="740.5" y="575" width="326" height="89" as="geometry" />
        </mxCell>
        <mxCell id="bIEeLJ-2RRx14gN9JyyU-22" value="anonymous inline box for text &quot;&lt;b&gt;Bar&lt;/b&gt;&quot;" style="rounded=0;whiteSpace=wrap;html=1;fontFamily=Helvetica;fontSize=11;fontColor=default;labelBackgroundColor=default;verticalAlign=middle;align=center;" vertex="1" parent="1">
          <mxGeometry x="751" y="609" width="210" height="37" as="geometry" />
        </mxCell>
        <mxCell id="bIEeLJ-2RRx14gN9JyyU-23" value="anonymous block box (block box 4)" style="rounded=0;whiteSpace=wrap;html=1;fontFamily=Helvetica;fontSize=11;fontColor=default;labelBackgroundColor=default;verticalAlign=top;align=left;" vertex="1" parent="1">
          <mxGeometry x="740" y="672" width="326" height="89" as="geometry" />
        </mxCell>
        <mxCell id="bIEeLJ-2RRx14gN9JyyU-24" value="anonymous inline box for text &quot;&lt;b&gt;Baz&lt;/b&gt;&quot;" style="rounded=0;whiteSpace=wrap;html=1;fontFamily=Helvetica;fontSize=11;fontColor=default;labelBackgroundColor=default;verticalAlign=middle;align=center;" vertex="1" parent="1">
          <mxGeometry x="751" y="709" width="210" height="37" as="geometry" />
        </mxCell>
        <mxCell id="bIEeLJ-2RRx14gN9JyyU-25" value="&lt;font color=&quot;#cc0000&quot;&gt;A block container box must either contain only block-level boxes or only inline-level boxes as direct children. If there is a mixture anonymous boxes are created automatically.&lt;/font&gt;" style="text;html=1;align=left;verticalAlign=middle;whiteSpace=wrap;rounded=0;fontFamily=Helvetica;fontSize=11;fontColor=default;labelBackgroundColor=default;" vertex="1" parent="1">
          <mxGeometry x="722" y="344" width="158" height="94" as="geometry" />
        </mxCell>
      </root>
    </mxGraphModel>
  </diagram>
</mxfile>
